<svg xmlns="http://www.w3.org/2000/svg" width="84.079" height="13.396" viewBox="0 0 84.079 13.396">
  <g id="Group_28" data-name="Group 28" transform="translate(-50 -51.77)">
    <path id="Path_125" data-name="Path 125" d="M-26.3,0h7.17V-1.38h-5.85v-.06c.375-.345,1.215-1.155,1.47-1.47l4.38-5.61v-1.5H-26.16v1.38h5.64v.075c-.345.345-1.335,1.275-1.47,1.455L-26.3-1.635Zm8.55-3.63c0,2.67,1.65,3.795,3.84,3.795C-11.73.165-10.08-.96-10.08-3.63v-6.39h-1.485v6.585c0,1.575-.735,2.22-2.115,2.22h-.465c-1.38,0-2.115-.63-2.115-2.22V-10.02h-1.485Zm15.27-.315c1.065-.45,1.59-1.47,1.59-2.985,0-2.01-1.035-3.09-3.225-3.09H-8.055V0h1.47V-3.69H-3.96L-2.31,0H-.735V-.105ZM-6.585-8.64h2.7c.99,0,1.53.345,1.53,1.5v.525c0,1.005-.42,1.7-1.53,1.7h-2.7Zm8.8-3.705c0,.7.105.87.81.87.69,0,.795-.165.795-.87s-.1-.885-.795-.885C2.325-13.23,2.22-13.065,2.22-12.345Zm3.135,0c0,.7.105.87.8.87.705,0,.81-.165.81-.87s-.105-.885-.81-.885C5.46-13.23,5.355-13.065,5.355-12.345ZM.765-3.63C.765-.96,2.415.165,4.6.165S8.43-.96,8.43-3.63v-6.39H6.945v6.585c0,1.575-.735,2.22-2.115,2.22H4.365c-1.38,0-2.115-.63-2.115-2.22V-10.02H.765Zm9.3-1.485c0,3.525,1.275,5.25,4.485,5.25A7.807,7.807,0,0,0,17.37-.3V-1.56L17.3-1.635a11.8,11.8,0,0,1-2.625.36,3.662,3.662,0,0,1-2.175-.51,4.187,4.187,0,0,1-.87-2.94V-5.28a4.159,4.159,0,0,1,.825-2.865,3.549,3.549,0,0,1,2.37-.6,10.648,10.648,0,0,1,2.22.24l.075-.075V-9.9a10.207,10.207,0,0,0-2.4-.255C11.67-10.155,10.065-8.58,10.065-5.115Zm12.1.12,4.44-4.92-.06-.1H24.825L20.685-5.4h-.21v-4.62H19V0h1.47V-4.395H20.7L24.735,0h1.92L26.7-.105Z" transform="translate(107.379 65)" fill="#ff8674"/>
    <path id="straight_24dp_1F1F1F_FILL0_wght400_GRAD0_opsz24" d="M323.227-820.637v-15.249l-1.721,1.694L320-835.7l4.3-4.3,4.3,4.3-1.506,1.506-1.721-1.694v15.249Z" transform="translate(890 384.605) rotate(-90)" fill="#ff8674"/>
  </g>
</svg>
