<svg xmlns="http://www.w3.org/2000/svg" width="396.865" height="78.495" viewBox="0 0 396.865 78.495">
  <path id="Path_129" data-name="Path 129" d="M-120.75-23.38v9.87h-10.78v-9.87h-3.43V0h3.43V-10.29h10.78V0h3.43V-23.38Zm8.19-.525c0,1.645.21,2.03,1.89,2.03,1.645,0,1.89-.385,1.89-2.03,0-1.68-.245-2.065-1.89-2.065C-112.35-25.97-112.56-25.585-112.56-23.905Zm.175,5.425V0h3.395V-18.48Zm22.19,9.695V-12.11c0-4.305-2.835-6.755-6.895-6.755-5.075,0-7.98,3.01-7.98,9.73,0,6.23,2.1,9.52,8.75,9.52A13.988,13.988,0,0,0-90.79-.6V-3.5L-91-3.71a14.428,14.428,0,0,1-5.25.875c-4.2,0-5.39-1.015-5.39-3.85v-2.1Zm-7.35-6.86h.385c2.9,0,3.605.77,3.605,2.8v1.505h-8.085C-101.535-14.49-100.73-15.645-97.545-15.645ZM-77.91-18.8a5.008,5.008,0,0,0-4.83,2.975h-.245l-1.26-2.66H-86.31V0h3.395V-13.965c.945-.7,2.24-1.365,5.285-1.365h1.085l.21-.175v-3.01A4.335,4.335,0,0,0-77.91-18.8Zm20.3,9.205,7.315-8.61-.175-.28h-3.955l-6.335,7.56h-.91V-26.11h-3.4V0h3.4V-8.05h.91L-54.04,0h4.06l.175-.28Zm15.365-9.275a21.876,21.876,0,0,0-5.25.63v3.01l.175.21a23.279,23.279,0,0,1,5.215-.63c3.6,0,5.285.8,5.285,3.535v1.715h-.1A26.421,26.421,0,0,0-42-10.885c-4.515,0-6.4,2.24-6.4,5.565,0,3.5,2.135,5.7,5.985,5.7,3.08,0,4.935-.98,5.53-3.01h.1L-35.77,0h2.345V-10.71C-33.425-16.1-35.7-18.865-42.245-18.865Zm.735,16.03H-42c-2.31,0-2.975-.595-2.975-2.24V-6.23c0-1.3.63-2.03,2.17-2.03h5.985v4.305A9.36,9.36,0,0,1-41.51-2.835Zm21.315-16.03c-2.765,0-4.235,1.155-5.11,3.045h-.21l-1.015-2.66h-2.345V0h3.395V-14.63a8.752,8.752,0,0,1,4.2-1.015c3.045,0,3.5.875,3.5,2.31V0h3.43V-12.32C-14.35-17.045-16.8-18.865-20.195-18.865Zm19.04,0c-2.765,0-4.235,1.155-5.11,3.045h-.21L-7.49-18.48H-9.835V0H-6.44V-14.63a8.752,8.752,0,0,1,4.2-1.015c3.045,0,3.5.875,3.5,2.31V0H4.69V-12.32C4.69-17.045,2.24-18.865-1.155-18.865Zm9.765,5.6c0,2.31,1.26,4.235,4.34,4.8l2.8.525c2.555.455,3.01,1.05,3.01,2.24v.35c0,1.855-.77,2.52-4.305,2.52a34.689,34.689,0,0,1-5.18-.49l-.14.14v3.08A31.066,31.066,0,0,0,14.56.35c5.425,0,7.6-2.625,7.6-5.95,0-2.45-1.26-4.41-4.55-5.005l-2.8-.525c-2.45-.455-2.835-.91-2.835-2.1v-.28c0-1.54.98-2.135,4.48-2.135a35.1,35.1,0,0,1,4.48.385l.175-.14v-3.01a21.505,21.505,0,0,0-4.585-.42C10.605-18.83,8.61-16.17,8.61-13.265ZM36.12-3.01a24.062,24.062,0,0,1-3.01.175c-2.59,0-2.765-.7-2.765-2.66v-10.08h5.7v-2.9h-5.7v-4.76h-1.33l-2.1,1.085v3.675h-2.66v2.9h2.66V-6.4c0,3.885,1.645,6.79,5.845,6.79A16.149,16.149,0,0,0,36.33-.07V-2.8Zm22.82-23.1v8.085h-.1a10.422,10.422,0,0,0-4.34-.84c-4.375,0-7.805,2.9-7.805,9.73,0,6.44,2.9,9.52,7,9.52,2.625,0,4.62-.91,5.215-3.01h.14L59.99,0h2.38V-26.11ZM54.285-2.835c-3.185,0-4.165-1.085-4.165-4.9V-10.22c0-4.27.98-5.425,4.515-5.425a32.127,32.127,0,0,1,4.305.245V-4.025A8.635,8.635,0,0,1,54.285-2.835ZM77.98-18.48V-4.165a7.287,7.287,0,0,1-4.27,1.33c-2.45,0-3.43-.56-3.43-2.52V-18.48H66.85V-6.44c0,4.8,2.38,6.825,6.02,6.825,2.59,0,4.445-.945,5.075-3.01h.14L79.03,0h2.345V-18.48ZM105.6-26.11v8.085h-.1a10.422,10.422,0,0,0-4.34-.84c-4.375,0-7.805,2.9-7.805,9.73,0,6.44,2.905,9.52,7,9.52,2.625,0,4.62-.91,5.215-3.01h.14L106.645,0h2.38V-26.11ZM100.94-2.835c-3.185,0-4.165-1.085-4.165-4.9V-10.22c0-4.27.98-5.425,4.515-5.425a32.126,32.126,0,0,1,4.305.245V-4.025A8.635,8.635,0,0,1,100.94-2.835Zm12.7-21.07c0,1.645.21,2.03,1.89,2.03,1.645,0,1.89-.385,1.89-2.03,0-1.68-.245-2.065-1.89-2.065C113.855-25.97,113.645-25.585,113.645-23.905Zm.175,5.425V0h3.395V-18.48Zm22.19,9.695V-12.11c0-4.305-2.835-6.755-6.9-6.755-5.075,0-7.98,3.01-7.98,9.73,0,6.23,2.1,9.52,8.75,9.52a13.988,13.988,0,0,0,5.53-.98V-3.5l-.21-.21a14.428,14.428,0,0,1-5.25.875c-4.2,0-5.39-1.015-5.39-3.85v-2.1Zm-7.35-6.86h.385c2.9,0,3.605.77,3.605,2.8v1.505h-8.085C124.67-14.49,125.475-15.645,128.66-15.645ZM-183.768,39.89v8.365a11.282,11.282,0,0,1-4.13.77c-2.415,0-4.06-.315-5.145-1.155-1.225-.945-2.1-3.85-2.1-6.965V39.68c0-2.625.7-5.355,1.96-6.51,1.155-.98,3.325-1.575,6.16-1.575a32.815,32.815,0,0,1,6.16.665l.175-.175V28.9a31.651,31.651,0,0,0-6.37-.595c-8.015,0-11.725,3.745-11.725,11.97,0,8.155,3.255,12.04,10.255,12.04,2.275,0,3.99-.735,4.76-2.2h.07l.945,1.89h2.38V39.89Zm7.735-14V52h3.4V25.89Zm11.515,4.235c1.61,0,1.855-.385,1.855-2.03,0-1.68-.245-2.065-1.855-2.065-1.645,0-1.89.385-1.89,2.065C-166.408,29.74-166.163,30.125-164.518,30.125Zm7.28,0c1.645,0,1.89-.385,1.89-2.03,0-1.68-.245-2.065-1.89-2.065-1.61,0-1.855.385-1.855,2.065C-159.092,29.74-158.848,30.125-157.238,30.125Zm.245,3.4V47.835a7.287,7.287,0,0,1-4.27,1.33c-2.45,0-3.43-.56-3.43-2.52V33.52h-3.43V45.56c0,4.795,2.38,6.825,6.02,6.825,2.59,0,4.445-.945,5.075-3.01h.14l.945,2.625h2.345V33.52Zm7.315,9.24c0,6.195,2.45,9.625,8.4,9.625a14.868,14.868,0,0,0,5.215-.8V48.57l-.21-.175a18.966,18.966,0,0,1-4.935.77c-4.025,0-5.04-1.225-5.04-5.46V41.78c0-4.1,1.225-5.425,5.145-5.425a20.356,20.356,0,0,1,4.235.49l.175-.175V33.695a12.849,12.849,0,0,0-3.955-.56C-146.387,33.135-149.677,36.075-149.677,42.76Zm24.57-.35,7.315-8.61-.175-.28h-3.955l-6.335,7.56h-.91V25.89h-3.4V52h3.4V43.95h.91l6.72,8.05h4.06l.175-.28Zm8.925-8.89-.175.28,4.375,18.2h4.725l2.66-11.1c.245-1.015.63-3.6.77-4.69h.21c.14,1.085.525,3.675.77,4.69l2.66,11.1h4.725l4.375-18.2-.175-.28h-3.29L-97,44.86c-.21.945-.56,3.01-.8,4.445h-.28c-.175-1.365-.49-3.5-.7-4.34l-2.73-11.445h-4.41L-108.658,45c-.21.805-.525,2.975-.7,4.305h-.28c-.245-1.4-.6-3.57-.805-4.48l-2.45-11.305Zm31.535-3.4c1.61,0,1.855-.385,1.855-2.03,0-1.68-.245-2.065-1.855-2.065-1.645,0-1.89.385-1.89,2.065C-86.537,29.74-86.293,30.125-84.647,30.125Zm7.28,0c1.645,0,1.89-.385,1.89-2.03,0-1.68-.245-2.065-1.89-2.065-1.61,0-1.855.385-1.855,2.065C-79.223,29.74-78.978,30.125-77.368,30.125Zm.245,3.4V47.835a7.287,7.287,0,0,1-4.27,1.33c-2.45,0-3.43-.56-3.43-2.52V33.52h-3.43V45.56c0,4.795,2.38,6.825,6.02,6.825,2.59,0,4.445-.945,5.075-3.01h.14L-76.073,52h2.345V33.52Zm16.9-.385c-2.765,0-4.235,1.155-5.11,3.045h-.21l-1.015-2.66H-68.9V52H-65.5V37.37a8.752,8.752,0,0,1,4.2-1.015c3.045,0,3.5.875,3.5,2.31V52h3.43V39.68C-54.372,34.955-56.823,33.135-60.217,33.135Zm9.765,5.6c0,2.31,1.26,4.235,4.34,4.795l2.8.525c2.555.455,3.01,1.05,3.01,2.24v.35c0,1.855-.77,2.52-4.305,2.52a34.689,34.689,0,0,1-5.18-.49l-.14.14V51.9a31.066,31.066,0,0,0,5.425.455c5.425,0,7.6-2.625,7.6-5.95,0-2.45-1.26-4.41-4.55-5.005l-2.8-.525c-2.45-.455-2.835-.91-2.835-2.1v-.28c0-1.54.98-2.135,4.48-2.135a35.1,35.1,0,0,1,4.48.385l.175-.14V33.59a21.5,21.5,0,0,0-4.585-.42C-48.458,33.17-50.453,35.83-50.453,38.735Zm16.59,4.025c0,6.195,2.45,9.625,8.4,9.625a14.868,14.868,0,0,0,5.215-.8V48.57l-.21-.175a18.966,18.966,0,0,1-4.935.77c-4.025,0-5.04-1.225-5.04-5.46V41.78c0-4.1,1.225-5.425,5.145-5.425a20.356,20.356,0,0,1,4.235.49l.175-.175V33.695a12.849,12.849,0,0,0-3.955-.56C-30.573,33.135-33.863,36.075-33.863,42.76Zm25.8-9.625c-2.73,0-4.375,1.12-5.18,3.045h-.105V25.89h-3.395V52h3.395V37.37a8.752,8.752,0,0,1,4.2-1.015c3.045,0,3.5.875,3.5,2.31V52h3.43V39.68C-2.223,34.955-4.673,33.135-8.068,33.135Zm24.325,10.08V39.89c0-4.305-2.835-6.755-6.895-6.755-5.075,0-7.98,3.01-7.98,9.73,0,6.23,2.1,9.52,8.75,9.52a13.988,13.988,0,0,0,5.53-.98V48.5l-.21-.21a14.428,14.428,0,0,1-5.25.875c-4.2,0-5.39-1.015-5.39-3.85v-2.1Zm-7.35-6.86h.385c2.9,0,3.605.77,3.605,2.8V40.66H4.813C4.918,37.51,5.723,36.355,8.908,36.355Zm28.035-3.22c-2.94,0-4.34,1.26-5.25,3.045h-.21c.1-1.75.1-3.465.1-4.1V25.89H28.192V52h2.345l.945-2.52h.14c.63,1.925,1.89,2.9,4.935,2.9,4.34,0,7.28-3.15,7.28-9.94C43.837,35.69,40.337,33.135,36.942,33.135ZM40.407,43.67c0,4.1-1.19,5.5-4.55,5.5a8.835,8.835,0,0,1-4.27-.945V37.335a10.547,10.547,0,0,1,4.445-.98c3.185,0,4.375.77,4.375,4.9Zm21.35-.455V39.89c0-4.305-2.835-6.755-6.895-6.755-5.075,0-7.98,3.01-7.98,9.73,0,6.23,2.1,9.52,8.75,9.52a13.988,13.988,0,0,0,5.53-.98V48.5l-.21-.21a14.428,14.428,0,0,1-5.25.875c-4.2,0-5.39-1.015-5.39-3.85v-2.1Zm-7.35-6.86h.385c2.9,0,3.6.77,3.6,2.8V40.66H50.313C50.418,37.51,51.223,36.355,54.408,36.355Zm16.45-3.22a21.876,21.876,0,0,0-5.25.63v3.01l.175.21A23.279,23.279,0,0,1,71,36.355c3.605,0,5.285.805,5.285,3.535V41.6h-.105a26.421,26.421,0,0,0-5.075-.49c-4.515,0-6.4,2.24-6.4,5.565,0,3.5,2.135,5.7,5.985,5.7,3.08,0,4.935-.98,5.53-3.01h.1L77.332,52h2.345V41.29C79.677,35.9,77.4,33.135,70.857,33.135Zm.735,16.03H71.1c-2.31,0-2.975-.6-2.975-2.24V45.77c0-1.3.63-2.03,2.17-2.03h5.985v4.305A9.36,9.36,0,0,1,71.592,49.165Zm21.035-15.96A5.008,5.008,0,0,0,87.8,36.18h-.245l-1.26-2.66H84.227V52h3.395V38.035c.945-.7,2.24-1.365,5.285-1.365h1.085l.21-.175v-3.01A4.335,4.335,0,0,0,92.627,33.205Zm13.545-.07c-2.94,0-4.34,1.26-5.25,3.045h-.21c.1-1.75.1-3.465.1-4.1V25.89H97.422V52h2.345l.945-2.52h.14c.63,1.925,1.89,2.9,4.935,2.9,4.34,0,7.28-3.15,7.28-9.94C113.067,35.69,109.567,33.135,106.172,33.135Zm3.465,10.535c0,4.1-1.19,5.5-4.55,5.5a8.835,8.835,0,0,1-4.27-.945V37.335a10.547,10.547,0,0,1,4.445-.98c3.185,0,4.375.77,4.375,4.9Zm21.35-.455V39.89c0-4.305-2.835-6.755-6.9-6.755-5.075,0-7.98,3.01-7.98,9.73,0,6.23,2.1,9.52,8.75,9.52a13.988,13.988,0,0,0,5.53-.98V48.5l-.21-.21a14.428,14.428,0,0,1-5.25.875c-4.2,0-5.39-1.015-5.39-3.85v-2.1Zm-7.35-6.86h.385c2.9,0,3.605.77,3.605,2.8V40.66h-8.085C119.647,37.51,120.452,36.355,123.637,36.355Zm11.06-8.26c0,1.645.21,2.03,1.89,2.03,1.645,0,1.89-.385,1.89-2.03,0-1.68-.245-2.065-1.89-2.065C134.908,26.03,134.7,26.415,134.7,28.095Zm.175,5.425V52h3.4V33.52Zm18.55,15.47a24.063,24.063,0,0,1-3.01.175c-2.59,0-2.765-.7-2.765-2.66V36.425h5.705v-2.9h-5.705V28.76h-1.33l-2.1,1.085V33.52h-2.66v2.9h2.66V45.6c0,3.885,1.645,6.79,5.845,6.79a16.149,16.149,0,0,0,3.57-.455V49.2Zm17.36-5.775V39.89c0-4.305-2.835-6.755-6.9-6.755-5.075,0-7.98,3.01-7.98,9.73,0,6.23,2.1,9.52,8.75,9.52a13.988,13.988,0,0,0,5.53-.98V48.5l-.21-.21a14.428,14.428,0,0,1-5.25.875c-4.2,0-5.39-1.015-5.39-3.85v-2.1Zm-7.35-6.86h.385c2.9,0,3.605.77,3.605,2.8V40.66h-8.085C159.443,37.51,160.248,36.355,163.433,36.355Zm19.915-3.22c-2.765,0-4.235,1.155-5.11,3.045h-.21l-1.015-2.66h-2.345V52h3.4V37.37a8.752,8.752,0,0,1,4.2-1.015c3.045,0,3.5.875,3.5,2.31V52h3.43V39.68C189.192,34.955,186.742,33.135,183.347,33.135ZM193.6,49.655c0,2.065.315,2.485,2.24,2.485,1.89,0,2.24-.42,2.24-2.485,0-2.03-.35-2.45-2.24-2.45C193.917,47.205,193.6,47.625,193.6,49.655Z" transform="translate(198.782 26.11)" fill="#3c1053"/>
</svg>
