<svg xmlns="http://www.w3.org/2000/svg" width="22.115" height="22.142" viewBox="0 0 22.115 22.142">
  <path id="edit_square_24dp_1F1F1F_FILL0_wght400_GRAD0_opsz24" d="M122.211-898.858a2.129,2.129,0,0,1-1.562-.65,2.13,2.13,0,0,1-.65-1.562v-15.48a2.13,2.13,0,0,1,.65-1.562,2.129,2.129,0,0,1,1.562-.65h9.869l-2.211,2.211h-7.657v15.48h15.48v-7.685l2.211-2.212v9.9a2.129,2.129,0,0,1-.65,1.562,2.129,2.129,0,0,1-1.562.65ZM129.952-908.809Zm-3.317,3.317v-4.7l10.145-10.145a2.211,2.211,0,0,1,.746-.5,2.219,2.219,0,0,1,.829-.166,2.184,2.184,0,0,1,.843.166,2.25,2.25,0,0,1,.733.5l1.548,1.576a2.483,2.483,0,0,1,.47.733,2.115,2.115,0,0,1,.166.815,2.282,2.282,0,0,1-.152.815,2.072,2.072,0,0,1-.484.733l-10.145,10.173Zm13.3-11.721-1.548-1.548ZM128.846-907.7h1.548l6.413-6.413-.774-.774-.8-.774-6.386,6.386Zm7.187-7.187-.8-.774.8.774.774.774Z" transform="translate(-120 921)" fill="#220f4f"/>
</svg>
