<svg xmlns="http://www.w3.org/2000/svg" xmlns:xlink="http://www.w3.org/1999/xlink" width="349.578" height="381.512" viewBox="0 0 349.578 381.512">
  <defs>
    <clipPath id="clip-path">
      <rect id="Rectangle_84" data-name="Rectangle 84" width="309.094" height="66.953" fill="#3c1053"/>
    </clipPath>
  </defs>
  <g id="Group_27" data-name="Group 27" transform="translate(7886.865 9682.757)">
    <path id="Path_129" data-name="Path 129" d="M-98.175-22.605a30.178,30.178,0,0,0-5.94.55l-.165-.11.5-6.765H-88v-7.81h-22.99l-1.43,20.57.33.33a100.082,100.082,0,0,1,10.065-.44c6.325,0,7.26,1.6,7.26,3.905v.88c0,2.86-1.76,4.455-7.48,4.455A39.137,39.137,0,0,1-111.98-8.3l-.275.22v7.26A48.161,48.161,0,0,0-100.98.605c9.9,0,14.9-4.015,14.9-12.98C-86.075-19.14-89.98-22.605-98.175-22.605ZM-71.5-36.355-59.015-13.09V0h9.9V-13.09L-36.63-36.355l-.275-.385H-47.08l-3.74,7.7c-.715,1.375-2.365,6.435-3.08,8.635h-.33c-.715-2.2-2.365-7.26-3.08-8.635l-3.74-7.7H-71.225ZM-23.65-8.2v-6.93h14.9V-22.11h-14.9v-6.435H-7.37V-36.74H-33.385V0H-6.82V-8.2Zm44-28.545H7.59L-4.95-.385-4.675,0H5.17L7.535-7.645h12.87L22.77,0h9.9l.275-.385Zm-6.105,8.415c1.265,4.73,2.64,9.68,4.015,13.97H9.68c1.375-4.29,2.8-9.24,4.07-13.97ZM61.82-12.815c3.19-2.145,4.895-6.05,4.895-11.605,0-8.305-4.4-12.32-13.035-12.32H36.19V0h9.735V-10.89H52.25L56.87,0H67.155l.11-.385ZM45.925-28.435H52.8c2.75,0,4.18.935,4.18,4.015v1.76c0,2.64-1.1,4.62-4.18,4.62H45.925Zm24.53,2.64c0,5.83,2.805,8.965,8.415,9.9l4.895.88c5.225.935,5.665,1.54,5.665,3.465v.44c0,2.53-1.485,3.465-7.59,3.465A73.791,73.791,0,0,1,71.115-8.47l-.22.22V-.33A69.343,69.343,0,0,0,82.17.495c13.475,0,17.105-4.51,17.105-12.155,0-5.885-2.915-9.075-9.735-10.23l-4.73-.825c-4.07-.66-4.455-1.32-4.455-2.915v-.5c0-2.035,1.265-2.97,7.645-2.97a74.383,74.383,0,0,1,8.855.55l.275-.275v-7.59a55.241,55.241,0,0,0-9.515-.825C74.415-37.235,70.455-32.725,70.455-25.8ZM102.795-4.51c0,3.905.715,4.73,4.95,4.73,4.29,0,4.95-.825,4.95-4.73s-.66-4.73-4.95-4.73C103.51-9.24,102.795-8.415,102.795-4.51Z" transform="translate(-7708 -9537)" fill="#3c1053"/>
    <g id="Group_25" data-name="Group 25" transform="translate(-8091 -9904)">
      <path id="Path_128" data-name="Path 128" d="M-79.54-19.557c0,4.1,2.173,6.273,6.232,7.093l3.854.82c4.059.861,4.51,1.6,4.51,3.28v.451c0,2.706-1.435,3.4-6.314,3.4a47.958,47.958,0,0,1-7.872-.738l-.205.164V-.328a43.594,43.594,0,0,0,8.282.7c9.1,0,11.808-3.485,11.808-8.651,0-4.223-2.3-6.6-7.134-7.626l-3.772-.779c-3.28-.656-3.731-1.312-3.731-2.747v-.492c0-2.091,1.312-2.952,6.232-2.952a46.125,46.125,0,0,1,6.6.533l.2-.246v-4.551a41.269,41.269,0,0,0-6.847-.615C-76.711-27.757-79.54-24.313-79.54-19.557Zm31-2.542a29.11,29.11,0,0,0-6.478.7v4.387l.205.2a31.684,31.684,0,0,1,6.15-.656c4.264,0,5.986.779,5.986,3.526v1.517H-42.8a26.81,26.81,0,0,0-5.74-.615c-5.412,0-7.585,2.747-7.585,6.765,0,4.1,2.419,6.724,7.011,6.724,3.608,0,5.658-1.107,6.4-3.485h.123L-41.2,0h3.854V-12.218C-37.351-18.7-40.18-22.1-48.544-22.1Zm1.23,18.163h-.533c-2.3,0-2.952-.615-2.952-2.173v-1.23c0-1.271.656-1.968,2.173-1.968h5.945v4.264A9.109,9.109,0,0,1-47.314-3.936Zm33.456-17.712H-19.27L-22.181-13.2c-.615,1.886-1.271,5.412-1.763,7.462h-.287c-.574-2.255-1.189-5.576-1.8-7.216l-3.526-8.692h-5.412l-.2.287L-26.937,0h.492l-3.239,8.979.2.2h5.453l10.373-30.545Zm-103.32,68.892a28.9,28.9,0,0,1-3.567.205c-2.624,0-2.952-.738-2.952-2.706V34.985h6.437V30.352H-123.7V24.776h-1.968l-3.485,1.435v4.141h-2.993v4.633h2.993v9.266c0,4.92,1.968,8.2,7.585,8.2a21.653,21.653,0,0,0,4.551-.533V47.449Zm2.542-5.945c0,6.929,3.854,11.152,10.127,11.152S-94.382,48.228-94.382,41.3c0-7.872-4.469-11.4-10.127-11.4S-114.636,33.427-114.636,41.3Zm5.494,1.312v-2.87c0-3.4,1.23-5.084,4.633-5.084s4.633,1.681,4.633,5.084v2.87c0,3.4-1.148,5.084-4.633,5.084S-109.142,46.055-109.142,42.611Zm27.224-1.435c0,7.257,2.87,11.275,10.168,11.275a18.719,18.719,0,0,0,6.355-.943V47.039l-.205-.164a24.653,24.653,0,0,1-5.412.738c-4.223,0-5.371-1.23-5.371-5.453V40.151c0-4.1,1.394-5.412,5.494-5.412a23.692,23.692,0,0,1,4.674.492l.205-.2V30.557a17.476,17.476,0,0,0-4.961-.656C-78.023,29.9-81.918,33.345-81.918,41.176Zm37.187,1.148V38.142c0-5.412-3.362-8.241-8.569-8.241-6.478,0-10,3.608-10,11.4,0,7.38,2.706,11.152,10.988,11.152a19.1,19.1,0,0,0,6.888-1.107V47.2l-.2-.2a21.126,21.126,0,0,1-6.519.943c-4.756,0-6.027-1.066-6.027-3.9V42.324Zm-9.1-8.036h.41c3.034,0,3.772.779,3.772,2.829v1.6h-8.528C-58.1,35.518-57.236,34.288-53.833,34.288Zm13.079-12.874V52h5.494V21.414Zm28.044,20.91V38.142c0-5.412-3.362-8.241-8.569-8.241-6.478,0-10,3.608-10,11.4,0,7.38,2.706,11.152,10.988,11.152a19.1,19.1,0,0,0,6.888-1.107V47.2l-.2-.2a21.126,21.126,0,0,1-6.519.943c-4.756,0-6.027-1.066-6.027-3.9V42.324Zm-9.1-8.036h.41c3.034,0,3.772.779,3.772,2.829v1.6h-8.528C-26.076,35.518-25.215,34.288-21.812,34.288ZM2.993,29.9c-3.444,0-5.125,1.476-6.109,3.608h-.246c.082-2.091.123-4.1.123-4.838V21.414H-8.733V52H-4.8l1.353-2.952h.082c.738,2.132,2.173,3.4,5.822,3.4,5.125,0,8.569-3.731,8.569-11.644C11.029,32.853,7.093,29.9,2.993,29.9Zm2.46,12.5c0,3.977-1.148,5.371-4.469,5.371a8.568,8.568,0,0,1-4.223-.943V35.518a10.777,10.777,0,0,1,4.346-.943c3.157,0,4.346.779,4.346,4.756ZM25.994,30.024a5.586,5.586,0,0,0-5.617,3.526h-.2l-1.6-3.2H14.924V52h5.494V36.666a11.742,11.742,0,0,1,5.822-1.148h1.312l.246-.2v-5A5.227,5.227,0,0,0,25.994,30.024ZM37.31,29.9a29.11,29.11,0,0,0-6.478.7v4.387l.2.205a31.684,31.684,0,0,1,6.15-.656c4.264,0,5.986.779,5.986,3.526v1.517H43.05a26.81,26.81,0,0,0-5.74-.615c-5.412,0-7.585,2.747-7.585,6.765,0,4.1,2.419,6.724,7.011,6.724,3.608,0,5.658-1.107,6.4-3.485h.123L44.649,52H48.5V39.782C48.5,33.3,45.674,29.9,37.31,29.9Zm1.23,18.163h-.533c-2.3,0-2.952-.615-2.952-2.173v-1.23c0-1.271.656-1.968,2.173-1.968h5.945v4.264A9.109,9.109,0,0,1,38.54,48.064Zm27.921-.82a28.9,28.9,0,0,1-3.567.205c-2.624,0-2.952-.738-2.952-2.706V34.985h6.437V30.352H59.942V24.776H57.974l-3.485,1.435v4.141H51.5v4.633h2.993v9.266c0,4.92,1.968,8.2,7.585,8.2a21.653,21.653,0,0,0,4.551-.533V47.449Zm3.28-23c0,2.132.328,2.624,2.952,2.624s2.952-.492,2.952-2.624c0-2.214-.328-2.665-2.952-2.665S69.741,22.029,69.741,24.243Zm.205,6.109V52H75.44V30.352ZM91.963,29.9c-3.362,0-5.125,1.394-6.109,3.649h-.205l-1.435-3.2H80.278V52h5.494V35.928a8.694,8.694,0,0,1,4.141-.984c2.952,0,3.444.861,3.444,2.337V52h5.494V37.609C98.851,32.115,96.1,29.9,91.963,29.9Zm30.791.451H114.8a10.793,10.793,0,0,0-3.116-.451c-4.838,0-8.4,2.87-8.4,7.831a7.126,7.126,0,0,0,2.5,5.822V43.6a3.451,3.451,0,0,0-2.419,3.608,4.236,4.236,0,0,0,2.255,4.141v.041c-1.927.287-2.952,1.722-2.952,4.018,0,3.608,2.132,6.273,9.963,6.273,6.929,0,10.127-2.542,10.127-7.708,0-3.69-2.5-5.863-6.847-5.863H109.47c-1.517,0-2.009-.615-2.009-1.763v-.369a2.6,2.6,0,0,1,.328-1.312,11.257,11.257,0,0,0,3.895.615c5.33,0,8.405-2.788,8.405-7.544a8.1,8.1,0,0,0-.738-3.526l3.4-.451Zm-7.585,8.405c0,1.64-.738,2.46-3.485,2.46-2.788,0-3.485-.82-3.485-2.46V36.584c0-1.8.656-2.665,3.485-2.665,2.747,0,3.485.861,3.485,2.665Zm-5.207,13.366h5.863c1.517,0,1.8.574,1.8,1.8v.9c0,1.968-.7,2.542-4.469,2.542h-1.312c-3.731,0-4.223-.615-4.223-2.665v-.492A7.616,7.616,0,0,1,107.912,52,15.745,15.745,0,0,0,109.962,52.123Z" transform="translate(384 249)" fill="#3c1053"/>
      <g id="YES" transform="translate(-13417 5718.163)">
        <path id="Path_64" data-name="Path 64" d="M79.577,22.631,72.456,5.788h8.4l3.6,9h.08l6.8-9h9.282L87.5,22.631l-1.96,11.162H77.616Z" transform="translate(13723.123 -5501.039)" fill="#3c1053"/>
        <path id="Path_65" data-name="Path 65" d="M110.942,5.788h20.764l-1.2,6.641H117.622l-.8,4.282h11.4l-1.04,5.761H115.823l-.84,4.681h13.083l-1.2,6.641H105.98Z" transform="translate(13715.003 -5501.039)" fill="#3c1053"/>
        <path id="Path_66" data-name="Path 66" d="M142.281,24.866a13.9,13.9,0,0,0,7.442,2.561c2.08,0,3.361-.92,3.361-2.16,0-1.56-2.04-1.96-4.641-2.841-3.441-1.12-7.282-2.72-7.282-8,0-5.2,4.2-9.322,11.442-9.322a20.984,20.984,0,0,1,10.4,2.921L159.485,13.7a14.184,14.184,0,0,0-6.922-1.92c-1.96,0-3.12.92-3.12,2.12,0,1.48,1.92,1.92,4.4,2.72,3.4,1.12,7.482,2.48,7.482,8.042,0,5.321-3.881,9.482-11.963,9.482a19.524,19.524,0,0,1-11.282-3.841Z" transform="translate(13707.229 -5500.873)" fill="#3c1053"/>
      </g>
    </g>
    <path id="Path_124" data-name="Path 124" d="M103.9,5.976h-1.35l-1.926,6.84c-.234.792-.648,2.844-.846,3.834h-.144c-.18-.882-.558-2.61-.72-3.15l-2.16-7.524h-1.4L93.175,13.5c-.162.54-.54,2.268-.72,3.15h-.126c-.216-.99-.612-3.06-.846-3.834l-1.944-6.84H88.207l-.072.108L91.483,18h1.71L95.3,10.818c.18-.576.5-2.3.7-3.33h.09c.216,1.026.522,2.754.7,3.33L98.917,18h1.692l3.366-11.916Zm1.566-.252c0,.81.108.99.774.99.684,0,.774-.18.774-.99,0-.828-.09-1.008-.774-1.008C105.577,4.716,105.469,4.9,105.469,5.724Zm.09,2.772V18h1.386V8.5Zm8.136-.144a2.8,2.8,0,0,0-2.61,1.512h-.072l-.5-1.368h-.864V18h1.386V10.674a3.571,3.571,0,0,1,2.79-.918c.2,0,.414,0,.612.018L114.5,9.7V8.478A2.169,2.169,0,0,0,113.695,8.352Zm10.764-3.96c-2.178,0-3.1,1.26-3.1,3.276V8.5h-1.782V9.684h1.782V18h1.368V9.684h2.646V8.5h-2.646V7.2c0-1.08.468-1.494,1.782-1.494a8.067,8.067,0,0,1,1.152.09l.072-.072V4.554A4.569,4.569,0,0,0,124.459,4.392Zm9.2,8.928V11.682a3.141,3.141,0,0,0-3.438-3.366c-2.538,0-4.014,1.566-4.014,4.986,0,3.024.936,4.878,4.374,4.878a6.672,6.672,0,0,0,2.754-.5V16.488l-.072-.072a7.318,7.318,0,0,1-2.646.45c-2.412,0-3.024-.882-3.024-2.61V13.32Zm-3.636-3.69h.18c1.584,0,2.088.54,2.088,1.782v.846h-4.7C127.681,10.35,128.4,9.63,130.021,9.63Zm5.76-3.906c0,.81.108.99.774.99.684,0,.774-.18.774-.99,0-.828-.09-1.008-.774-1.008C135.889,4.716,135.781,4.9,135.781,5.724Zm.09,2.772V18h1.386V8.5Zm11.07,4.824V11.682A3.141,3.141,0,0,0,143.5,8.316c-2.538,0-4.014,1.566-4.014,4.986,0,3.024.936,4.878,4.374,4.878a6.672,6.672,0,0,0,2.754-.5V16.488l-.072-.072a7.318,7.318,0,0,1-2.646.45c-2.412,0-3.024-.882-3.024-2.61V13.32ZM143.3,9.63h.18c1.584,0,2.088.54,2.088,1.782v.846h-4.7C140.965,10.35,141.685,9.63,143.3,9.63Zm9.9-1.278a2.8,2.8,0,0,0-2.61,1.512h-.072l-.5-1.368h-.864V18h1.386V10.674a3.571,3.571,0,0,1,2.79-.918c.2,0,.414,0,.612.018l.072-.072V8.478A2.169,2.169,0,0,0,153.2,8.352Zm6.912-.036a3.059,3.059,0,0,0-2.862,1.548h-.072l-.4-1.368h-.972V18H157.2V10.422a4.148,4.148,0,0,1,2.5-.792c1.548,0,1.962.486,1.962,1.422V18h1.386V11.448C163.051,9.18,161.809,8.316,160.117,8.316Zm15.624-3.744V8.784h-.054a5.343,5.343,0,0,0-2.34-.468c-2.376,0-4.086,1.512-4.086,4.986,0,3.258,1.422,4.878,3.6,4.878a2.775,2.775,0,0,0,2.862-1.566h.054L176.155,18h.972V4.572ZM173.1,16.866c-1.746,0-2.448-.774-2.448-3.024V12.87c0-2.5.81-3.24,2.754-3.24a9.464,9.464,0,0,1,2.34.234V15.93A3.676,3.676,0,0,1,173.1,16.866Zm13.7-3.546V11.682a3.141,3.141,0,0,0-3.438-3.366c-2.538,0-4.014,1.566-4.014,4.986,0,3.024.936,4.878,4.374,4.878a6.672,6.672,0,0,0,2.754-.5V16.488l-.072-.072a7.318,7.318,0,0,1-2.646.45c-2.412,0-3.024-.882-3.024-2.61V13.32Zm-3.636-3.69h.18c1.584,0,2.088.54,2.088,1.782v.846h-4.7C180.817,10.35,181.537,9.63,183.157,9.63Zm10.152-1.314a3.059,3.059,0,0,0-2.862,1.548h-.072l-.4-1.368h-.972V18h1.386V10.422a4.148,4.148,0,0,1,2.5-.792c1.548,0,1.962.486,1.962,1.422V18h1.386V11.448C196.243,9.18,195,8.316,193.309,8.316Zm16.6,5V11.682a3.141,3.141,0,0,0-3.438-3.366c-2.538,0-4.014,1.566-4.014,4.986,0,3.024.936,4.878,4.374,4.878a6.672,6.672,0,0,0,2.754-.5V16.488l-.072-.072a7.318,7.318,0,0,1-2.646.45c-2.412,0-3.024-.882-3.024-2.61V13.32Zm-3.636-3.69h.18c1.584,0,2.088.54,2.088,1.782v.846h-4.7C203.929,10.35,204.649,9.63,206.269,9.63Zm9.9-1.278a2.8,2.8,0,0,0-2.61,1.512h-.072l-.5-1.368h-.864V18H213.5V10.674a3.571,3.571,0,0,1,2.79-.918c.2,0,.414,0,.612.018l.072-.072V8.478A2.169,2.169,0,0,0,216.169,8.352Zm2,2.718c0,1.206.594,2.106,2.232,2.412l1.494.27c1.368.252,1.674.648,1.674,1.386v.144c0,1.08-.54,1.584-2.448,1.584a18.493,18.493,0,0,1-2.61-.234l-.072.054v1.242a14.348,14.348,0,0,0,2.718.234c2.664,0,3.78-1.26,3.78-2.988,0-1.242-.612-2.2-2.358-2.52l-1.476-.27c-1.3-.252-1.566-.558-1.566-1.278V10.98c0-.918.63-1.35,2.52-1.35a14.739,14.739,0,0,1,2.268.2l.072-.054V8.55a11,11,0,0,0-2.3-.216C219.157,8.334,218.167,9.63,218.167,11.07Zm13.842,5.688a11.652,11.652,0,0,1-1.512.108c-1.422,0-1.548-.486-1.548-1.728V9.684h2.97V8.5h-2.97V6.048h-.54l-.846.45v2h-1.422V9.684h1.422v5.094c0,2.052.7,3.4,2.79,3.4a8.179,8.179,0,0,0,1.728-.216V16.83Zm8.838-3.438V11.682a3.141,3.141,0,0,0-3.438-3.366c-2.538,0-4.014,1.566-4.014,4.986,0,3.024.936,4.878,4.374,4.878a6.672,6.672,0,0,0,2.754-.5V16.488l-.072-.072a7.318,7.318,0,0,1-2.646.45c-2.412,0-3.024-.882-3.024-2.61V13.32Zm-3.636-3.69h.18c1.584,0,2.088.54,2.088,1.782v.846h-4.7C234.871,10.35,235.591,9.63,237.211,9.63Zm10.152-1.314A3.059,3.059,0,0,0,244.5,9.864h-.072l-.4-1.368h-.972V18h1.386V10.422a4.148,4.148,0,0,1,2.5-.792c1.548,0,1.962.486,1.962,1.422V18H250.3V11.448C250.3,9.18,249.055,8.316,247.363,8.316ZM257.029,18h1.386V14h3.15c2.322,0,3.672-1.44,3.672-4.176,0-2.646-1.332-3.852-3.96-3.852h-4.248Zm1.386-5.166V7.29h3.078c1.692,0,2.358.7,2.358,2.3v.666c0,1.566-.684,2.574-2.286,2.574Zm11.412-4.518a10.875,10.875,0,0,0-2.646.324V9.864l.072.09A11.441,11.441,0,0,1,269.9,9.63c2,0,2.952.54,2.952,2.142v.99H272.8a14.169,14.169,0,0,0-2.772-.27c-2.412,0-3.312,1.17-3.312,2.79a2.712,2.712,0,0,0,3.042,2.9c1.692,0,2.664-.594,3.06-1.566h.054L273.247,18h.972V12.312C274.219,9.684,273.067,8.316,269.827,8.316Zm.288,8.55H269.9c-1.278,0-1.8-.432-1.8-1.476v-.468c0-.774.36-1.35,1.62-1.35,1.1,0,2.178.054,3.132.09v2.3A3.95,3.95,0,0,1,270.115,16.866Zm11.646-.108a11.652,11.652,0,0,1-1.512.108c-1.422,0-1.548-.486-1.548-1.728V9.684h2.97V8.5H278.7V6.048h-.54l-.846.45v2h-1.422V9.684h1.422v5.094c0,2.052.7,3.4,2.79,3.4a8.179,8.179,0,0,0,1.728-.216V16.83Zm1.782-11.034c0,.81.108.99.774.99.684,0,.774-.18.774-.99,0-.828-.09-1.008-.774-1.008C283.651,4.716,283.543,4.9,283.543,5.724Zm.09,2.772V18h1.386V8.5ZM294.7,13.32V11.682a3.141,3.141,0,0,0-3.438-3.366c-2.538,0-4.014,1.566-4.014,4.986,0,3.024.936,4.878,4.374,4.878a6.672,6.672,0,0,0,2.754-.5V16.488l-.072-.072a7.318,7.318,0,0,1-2.646.45c-2.412,0-3.024-.882-3.024-2.61V13.32Zm-3.636-3.69h.18c1.584,0,2.088.54,2.088,1.782v.846h-4.7C288.727,10.35,289.447,9.63,291.067,9.63Zm10.152-1.314a3.058,3.058,0,0,0-2.862,1.548h-.072l-.4-1.368h-.972V18H298.3V10.422a4.148,4.148,0,0,1,2.5-.792c1.548,0,1.962.486,1.962,1.422V18h1.386V11.448C304.153,9.18,302.911,8.316,301.219,8.316ZM311.7,16.758a11.652,11.652,0,0,1-1.512.108c-1.422,0-1.548-.486-1.548-1.728V9.684h2.97V8.5h-2.97V6.048h-.54l-.846.45v2h-1.422V9.684h1.422v5.094c0,2.052.7,3.4,2.79,3.4a8.179,8.179,0,0,0,1.728-.216V16.83Zm8.838-3.438V11.682A3.141,3.141,0,0,0,317.1,8.316c-2.538,0-4.014,1.566-4.014,4.986,0,3.024.936,4.878,4.374,4.878a6.672,6.672,0,0,0,2.754-.5V16.488l-.072-.072a7.318,7.318,0,0,1-2.646.45c-2.412,0-3.024-.882-3.024-2.61V13.32ZM316.9,9.63h.18c1.584,0,2.088.54,2.088,1.782v.846h-4.7C314.557,10.35,315.277,9.63,316.9,9.63Zm10.152-1.314a3.058,3.058,0,0,0-2.862,1.548h-.072l-.4-1.368h-.972V18h1.386V10.422a4.148,4.148,0,0,1,2.5-.792c1.548,0,1.962.486,1.962,1.422V18h1.386V11.448C329.983,9.18,328.741,8.316,327.049,8.316Zm9.522-2.592c0,.81.108.99.774.99.684,0,.774-.18.774-.99,0-.828-.09-1.008-.774-1.008C336.679,4.716,336.571,4.9,336.571,5.724Zm.09,2.772V18h1.386V8.5Zm8.388-.18a3.058,3.058,0,0,0-2.862,1.548h-.072l-.4-1.368h-.972V18h1.386V10.422a4.148,4.148,0,0,1,2.5-.792c1.548,0,1.962.486,1.962,1.422V18h1.386V11.448C347.983,9.18,346.741,8.316,345.049,8.316ZM356.8,3.2c0,.81.09.99.756.99.684,0,.774-.18.774-.99,0-.828-.09-1.008-.774-1.008C356.893,2.2,356.8,2.376,356.8,3.2Zm3.546,0c0,.81.108.99.774.99s.774-.18.774-.99c0-.828-.108-1.008-.774-1.008S360.349,2.376,360.349,3.2Zm-6.1,8.82c0,3.942,1.872,6.138,5.112,6.138,3.222,0,5.094-2.142,5.094-6.138,0-4.356-2.2-6.21-5.094-6.21S354.247,7.668,354.247,12.024Zm1.476.522V11.43c0-2.736,1.188-4.3,3.636-4.3s3.636,1.566,3.636,4.3v1.116c0,2.682-1.17,4.3-3.636,4.3S355.723,15.246,355.723,12.546Zm10.71-1.476c0,1.206.594,2.106,2.232,2.412l1.494.27c1.368.252,1.674.648,1.674,1.386v.144c0,1.08-.54,1.584-2.448,1.584a18.492,18.492,0,0,1-2.61-.234l-.072.054v1.242a14.348,14.348,0,0,0,2.718.234c2.664,0,3.78-1.26,3.78-2.988,0-1.242-.612-2.2-2.358-2.52l-1.476-.27c-1.3-.252-1.566-.558-1.566-1.278V10.98c0-.918.63-1.35,2.52-1.35a14.739,14.739,0,0,1,2.268.2l.072-.054V8.55a11,11,0,0,0-2.3-.216C367.423,8.334,366.433,9.63,366.433,11.07Zm13.842,5.688a11.652,11.652,0,0,1-1.512.108c-1.422,0-1.548-.486-1.548-1.728V9.684h2.97V8.5h-2.97V6.048h-.54l-.846.45v2h-1.422V9.684h1.422v5.094c0,2.052.7,3.4,2.79,3.4a8.179,8.179,0,0,0,1.728-.216V16.83Zm8.838-3.438V11.682a3.141,3.141,0,0,0-3.438-3.366c-2.538,0-4.014,1.566-4.014,4.986,0,3.024.936,4.878,4.374,4.878a6.672,6.672,0,0,0,2.754-.5V16.488l-.072-.072a7.318,7.318,0,0,1-2.646.45c-2.412,0-3.024-.882-3.024-2.61V13.32Zm-3.636-3.69h.18c1.584,0,2.088.54,2.088,1.782v.846h-4.7C383.137,10.35,383.857,9.63,385.477,9.63Zm9.9-1.278a2.8,2.8,0,0,0-2.61,1.512h-.072l-.5-1.368h-.864V18h1.386V10.674a3.571,3.571,0,0,1,2.79-.918c.2,0,.414,0,.612.018l.072-.072V8.478A2.169,2.169,0,0,0,395.377,8.352Zm6.66,0a2.8,2.8,0,0,0-2.61,1.512h-.072l-.5-1.368h-.864V18h1.386V10.674a3.571,3.571,0,0,1,2.79-.918c.2,0,.414,0,.612.018l.072-.072V8.478A2.169,2.169,0,0,0,402.037,8.352Zm9.126,4.968V11.682a3.141,3.141,0,0,0-3.438-3.366c-2.538,0-4.014,1.566-4.014,4.986,0,3.024.936,4.878,4.374,4.878a6.672,6.672,0,0,0,2.754-.5V16.488l-.072-.072a7.318,7.318,0,0,1-2.646.45c-2.412,0-3.024-.882-3.024-2.61V13.32Zm-3.636-3.69h.18c1.584,0,2.088.54,2.088,1.782v.846h-4.7C405.187,10.35,405.907,9.63,407.527,9.63Zm5.76-3.906c0,.81.108.99.774.99.684,0,.774-.18.774-.99,0-.828-.09-1.008-.774-1.008C413.4,4.716,413.287,4.9,413.287,5.724Zm.09,2.772V18h1.386V8.5Zm3.618,4.752c0,3.15,1.224,4.932,4.23,4.932a7.36,7.36,0,0,0,2.628-.432V16.524l-.09-.072a9.153,9.153,0,0,1-2.5.414c-2.178,0-2.88-.846-2.88-3.24v-.774c0-2.412.882-3.222,2.952-3.222a9.009,9.009,0,0,1,2.142.27l.09-.072V8.622a6.617,6.617,0,0,0-2.052-.306C418.633,8.316,416.995,9.846,416.995,13.248Zm13.158-4.932a3.037,3.037,0,0,0-2.88,1.548h-.036V4.572h-1.386V18h1.386V10.422a4.148,4.148,0,0,1,2.5-.792c1.548,0,1.962.486,1.962,1.422V18h1.386V11.448C433.087,9.18,431.845,8.316,430.153,8.316Zm6.534,7.452c-.864,0-1.008.18-1.008,1.152,0,.954.144,1.134.846,1.134h.144l.018.036c-.36.522-.612.972-1.008,1.584l-1.062,1.638.072.108h1.08l.558-.936a6.479,6.479,0,0,0,1.386-3.33C437.713,16.128,437.5,15.768,436.687,15.768Zm-307.854,16.8v4.212h-.054a5.343,5.343,0,0,0-2.34-.468c-2.376,0-4.086,1.512-4.086,4.986,0,3.258,1.422,4.878,3.6,4.878a2.775,2.775,0,0,0,2.862-1.566h.054L129.247,46h.972V32.572Zm-2.646,12.294c-1.746,0-2.448-.774-2.448-3.024V40.87c0-2.5.81-3.24,2.754-3.24a9.464,9.464,0,0,1,2.34.234V43.93A3.676,3.676,0,0,1,126.187,44.866Zm13.7-3.546V39.682a3.141,3.141,0,0,0-3.438-3.366c-2.538,0-4.014,1.566-4.014,4.986,0,3.024.936,4.878,4.374,4.878a6.672,6.672,0,0,0,2.754-.5V44.488l-.072-.072a7.318,7.318,0,0,1-2.646.45c-2.412,0-3.024-.882-3.024-2.61V41.32Zm-3.636-3.69h.18c1.584,0,2.088.54,2.088,1.782v.846h-4.7C133.909,38.35,134.629,37.63,136.249,37.63Zm9.9-1.278a2.8,2.8,0,0,0-2.61,1.512h-.072l-.5-1.368H142.1V46h1.386V38.674a3.571,3.571,0,0,1,2.79-.918c.2,0,.414,0,.612.018l.072-.072V36.478A2.169,2.169,0,0,0,146.149,36.352Zm10.44,2.34a14.8,14.8,0,0,0-2.268.2l-.054-.018.288-3.582h5.508V33.976h-6.732l-.5,6.084.126.108a17.969,17.969,0,0,1,3.222-.306c2.52,0,3.114.81,3.114,2.142v.342c0,1.71-1.044,2.52-3.1,2.52a10.63,10.63,0,0,1-3.348-.576l-.09.072V45.6a11.543,11.543,0,0,0,3.474.558c2.592,0,4.446-1.134,4.446-4.086C160.675,39.9,159.343,38.692,156.589,38.692Zm9.378,6.048v1.224a8.794,8.794,0,0,0,1.98.234c2.376,0,3.726-1.152,3.726-4.194V33.976h-1.4V42.4c0,1.908-.792,2.484-2.43,2.484a8.622,8.622,0,0,1-1.782-.216Zm11.088-8.424a10.875,10.875,0,0,0-2.646.324v1.224l.072.09a11.442,11.442,0,0,1,2.646-.324c2,0,2.952.54,2.952,2.142v.99h-.054a14.169,14.169,0,0,0-2.772-.27c-2.412,0-3.312,1.17-3.312,2.79a2.712,2.712,0,0,0,3.042,2.9c1.692,0,2.664-.594,3.06-1.566h.054L180.475,46h.972V40.312C181.447,37.684,180.295,36.316,177.055,36.316Zm.288,8.55h-.216c-1.278,0-1.8-.432-1.8-1.476v-.468c0-.774.36-1.35,1.62-1.35,1.1,0,2.178.054,3.132.09v2.3A3.95,3.95,0,0,1,177.343,44.866Zm10.962-8.55a3.037,3.037,0,0,0-2.88,1.548h-.036V32.572H184V46h1.386V38.422a4.148,4.148,0,0,1,2.5-.792c1.548,0,1.962.486,1.962,1.422V46h1.386V39.448C191.239,37.18,190,36.316,188.3,36.316Zm9.522.036a2.8,2.8,0,0,0-2.61,1.512h-.072l-.5-1.368h-.864V46h1.386V38.674a3.571,3.571,0,0,1,2.79-.918c.2,0,.414,0,.612.018l.072-.072V36.478A2.169,2.169,0,0,0,197.827,36.352Zm9.126,4.968V39.682a3.141,3.141,0,0,0-3.438-3.366c-2.538,0-4.014,1.566-4.014,4.986,0,3.024.936,4.878,4.374,4.878a6.672,6.672,0,0,0,2.754-.5V44.488l-.072-.072a7.318,7.318,0,0,1-2.646.45c-2.412,0-3.024-.882-3.024-2.61V41.32Zm-3.636-3.69h.18c1.584,0,2.088.54,2.088,1.782v.846h-4.7C200.977,38.35,201.7,37.63,203.317,37.63Zm14.292-1.314a3.059,3.059,0,0,0-2.862,1.548h-.072l-.4-1.368h-.972V46h1.386V38.422a4.148,4.148,0,0,1,2.5-.792c1.548,0,1.962.486,1.962,1.422V46h1.386V39.448C220.543,37.18,219.3,36.316,217.609,36.316Zm8.262,0a10.875,10.875,0,0,0-2.646.324v1.224l.072.09a11.442,11.442,0,0,1,2.646-.324c2,0,2.952.54,2.952,2.142v.99h-.054a14.169,14.169,0,0,0-2.772-.27c-2.412,0-3.312,1.17-3.312,2.79a2.712,2.712,0,0,0,3.042,2.9c1.692,0,2.664-.594,3.06-1.566h.054L229.291,46h.972V40.312C230.263,37.684,229.111,36.316,225.871,36.316Zm.288,8.55h-.216c-1.278,0-1.8-.432-1.8-1.476v-.468c0-.774.36-1.35,1.62-1.35,1.1,0,2.178.054,3.132.09v2.3A3.95,3.95,0,0,1,226.159,44.866Zm6.192-3.618c0,3.15,1.224,4.932,4.23,4.932a7.361,7.361,0,0,0,2.628-.432V44.524l-.09-.072a9.153,9.153,0,0,1-2.5.414c-2.178,0-2.88-.846-2.88-3.24v-.774c0-2.412.882-3.222,2.952-3.222a9.009,9.009,0,0,1,2.142.27l.09-.072V36.622a6.617,6.617,0,0,0-2.052-.306C233.989,36.316,232.351,37.846,232.351,41.248Zm13.158-4.932a3.037,3.037,0,0,0-2.88,1.548h-.036V32.572h-1.386V46h1.386V38.422a4.148,4.148,0,0,1,2.5-.792c1.548,0,1.962.486,1.962,1.422V46h1.386V39.448C248.443,37.18,247.2,36.316,245.509,36.316Zm15.624-3.744v4.212h-.054a5.343,5.343,0,0,0-2.34-.468c-2.376,0-4.086,1.512-4.086,4.986,0,3.258,1.422,4.878,3.6,4.878a2.775,2.775,0,0,0,2.862-1.566h.054L261.547,46h.972V32.572Zm-2.646,12.294c-1.746,0-2.448-.774-2.448-3.024V40.87c0-2.5.81-3.24,2.754-3.24a9.464,9.464,0,0,1,2.34.234V43.93A3.676,3.676,0,0,1,258.487,44.866Zm13.7-3.546V39.682a3.141,3.141,0,0,0-3.438-3.366c-2.538,0-4.014,1.566-4.014,4.986,0,3.024.936,4.878,4.374,4.878a6.672,6.672,0,0,0,2.754-.5V44.488l-.072-.072a7.318,7.318,0,0,1-2.646.45c-2.412,0-3.024-.882-3.024-2.61V41.32Zm-3.636-3.69h.18c1.584,0,2.088.54,2.088,1.782v.846h-4.7C266.209,38.35,266.929,37.63,268.549,37.63Zm9.9-1.278a2.8,2.8,0,0,0-2.61,1.512h-.072l-.5-1.368H274.4V46h1.386V38.674a3.571,3.571,0,0,1,2.79-.918c.2,0,.414,0,.612.018l.072-.072V36.478A2.169,2.169,0,0,0,278.449,36.352Zm6.8,9.648h4.86c2.106,0,3.51-1.008,3.51-3.456a2.569,2.569,0,0,0-2.394-2.808v-.09A2.445,2.445,0,0,0,293.137,37c0-1.98-1.26-3.024-3.384-3.024h-4.5Zm1.386-6.8V35.29h3.15c1.476,0,1.98.5,1.98,1.728v.288c0,1.134-.45,1.89-1.872,1.89Zm0,5.49v-4.3H289.9c1.89,0,2.34.828,2.34,1.926v.342c0,1.4-.558,2.034-2.016,2.034Zm16.11-3.366V39.682a3.141,3.141,0,0,0-3.438-3.366c-2.538,0-4.014,1.566-4.014,4.986,0,3.024.936,4.878,4.374,4.878a6.672,6.672,0,0,0,2.754-.5V44.488l-.072-.072a7.318,7.318,0,0,1-2.646.45c-2.412,0-3.024-.882-3.024-2.61V41.32Zm-3.636-3.69h.18c1.584,0,2.088.54,2.088,1.782v.846h-4.7C296.773,38.35,297.493,37.63,299.113,37.63Zm10.152-1.314a3.037,3.037,0,0,0-2.88,1.548h-.036V32.572h-1.386V46h1.386V38.422a4.148,4.148,0,0,1,2.5-.792c1.548,0,1.962.486,1.962,1.422V46H312.2V39.448C312.2,37.18,310.957,36.316,309.265,36.316Zm8.262,0a10.876,10.876,0,0,0-2.646.324v1.224l.072.09a11.441,11.441,0,0,1,2.646-.324c2,0,2.952.54,2.952,2.142v.99H320.5a14.169,14.169,0,0,0-2.772-.27c-2.412,0-3.312,1.17-3.312,2.79a2.712,2.712,0,0,0,3.042,2.9c1.692,0,2.664-.594,3.06-1.566h.054L320.947,46h.972V40.312C321.919,37.684,320.767,36.316,317.527,36.316Zm.288,8.55H317.6c-1.278,0-1.8-.432-1.8-1.476v-.468c0-.774.36-1.35,1.62-1.35,1.1,0,2.178.054,3.132.09v2.3A3.95,3.95,0,0,1,317.815,44.866Zm10.962-8.55a3.058,3.058,0,0,0-2.862,1.548h-.072l-.4-1.368h-.972V46h1.386V38.422a4.148,4.148,0,0,1,2.5-.792c1.548,0,1.962.486,1.962,1.422V46h1.386V39.448C331.711,37.18,330.469,36.316,328.777,36.316Zm11.484-3.744v4.212h-.054a5.343,5.343,0,0,0-2.34-.468c-2.376,0-4.086,1.512-4.086,4.986,0,3.258,1.422,4.878,3.6,4.878a2.775,2.775,0,0,0,2.862-1.566h.054L340.675,46h.972V32.572Zm-2.646,12.294c-1.746,0-2.448-.774-2.448-3.024V40.87c0-2.5.81-3.24,2.754-3.24a9.464,9.464,0,0,1,2.34.234V43.93A3.676,3.676,0,0,1,337.615,44.866Zm6.714-12.294V46h1.386V32.572ZM354.1,36.5v7.416a3.7,3.7,0,0,1-2.52.954c-1.35,0-1.944-.414-1.944-1.6V36.5h-1.386v6.372c0,2.358,1.224,3.312,3.006,3.312a2.833,2.833,0,0,0,2.826-1.566h.036l.4,1.386h.972V36.5Zm8.388-.18a3.058,3.058,0,0,0-2.862,1.548h-.072l-.4-1.368h-.972V46h1.386V38.422a4.148,4.148,0,0,1,2.5-.792c1.548,0,1.962.486,1.962,1.422V46h1.386V39.448C365.425,37.18,364.183,36.316,362.491,36.316Zm13.266.18h-3.294a3.686,3.686,0,0,0-1.206-.18,3.167,3.167,0,0,0-3.366,3.438,3.343,3.343,0,0,0,.918,2.484l-.018.054a1.488,1.488,0,0,0-.936,1.53,1.78,1.78,0,0,0,.954,1.764v.036c-.72.126-1.242.7-1.242,1.872,0,1.656.972,2.718,4.1,2.718,2.736,0,4.086-.99,4.086-3.114,0-1.53-.99-2.358-2.7-2.358h-2.808c-.9,0-1.188-.4-1.188-1.062v-.162a1.2,1.2,0,0,1,.324-.864,3.942,3.942,0,0,0,1.872.414,3.033,3.033,0,0,0,3.348-3.312,3.8,3.8,0,0,0-.558-2.088l1.71-.126Zm-2.52,3.672c0,1.1-.45,1.692-1.98,1.692-1.548,0-1.98-.594-1.98-1.692V39.3c0-1.134.414-1.782,1.98-1.782,1.53,0,1.98.63,1.98,1.782ZM370.5,45.91h2.682c.972,0,1.188.378,1.188,1.134v.324c0,1.134-.54,1.548-2.5,1.548h-.5c-1.944,0-2.412-.4-2.412-1.584V47.17a1.685,1.685,0,0,1,.54-1.35A5.515,5.515,0,0,0,370.5,45.91Zm20.3-9.594a2.76,2.76,0,0,0-2.646,1.62h-.072a2.235,2.235,0,0,0-2.376-1.62,2.715,2.715,0,0,0-2.592,1.548h-.072l-.4-1.368h-.972V46h1.386V38.422a3.048,3.048,0,0,1,2.124-.792c1.134,0,1.638.324,1.638,1.26V46h1.386V38.44a3.139,3.139,0,0,1,2.142-.81c1.1,0,1.638.324,1.638,1.26V46h1.386V39.214C393.379,37.234,392.407,36.316,390.8,36.316Zm5.022-2.592c0,.81.108.99.774.99.684,0,.774-.18.774-.99,0-.828-.09-1.008-.774-1.008C395.935,32.716,395.827,32.9,395.827,33.724Zm.09,2.772V46H397.3V36.5Zm9.09,8.262a11.652,11.652,0,0,1-1.512.108c-1.422,0-1.548-.486-1.548-1.728V37.684h2.97V36.5h-2.97V34.048h-.54l-.846.45v2h-1.422v1.188h1.422v5.094c0,2.052.7,3.4,2.79,3.4a8.179,8.179,0,0,0,1.728-.216V44.83ZM105.825,62.084,110,69.3V74h1.386V69.3l4.176-7.218-.072-.108h-1.44l-1.872,3.294c-.36.63-1.08,2.088-1.44,2.826h-.09c-.342-.738-1.062-2.2-1.44-2.826l-1.854-3.294H105.9Zm17.316,7.236V67.682a3.141,3.141,0,0,0-3.438-3.366c-2.538,0-4.014,1.566-4.014,4.986,0,3.024.936,4.878,4.374,4.878a6.672,6.672,0,0,0,2.754-.5V72.488l-.072-.072a7.318,7.318,0,0,1-2.646.45c-2.412,0-3.024-.882-3.024-2.61V69.32Zm-3.636-3.69h.18c1.584,0,2.088.54,2.088,1.782v.846h-4.7C117.165,66.35,117.885,65.63,119.505,65.63Zm5.526,1.44c0,1.206.594,2.106,2.232,2.412l1.494.27c1.368.252,1.674.648,1.674,1.386v.144c0,1.08-.54,1.584-2.448,1.584a18.493,18.493,0,0,1-2.61-.234l-.072.054v1.242a14.349,14.349,0,0,0,2.718.234c2.664,0,3.78-1.26,3.78-2.988,0-1.242-.612-2.2-2.358-2.52l-1.476-.27c-1.3-.252-1.566-.558-1.566-1.278V66.98c0-.918.63-1.35,2.52-1.35a14.739,14.739,0,0,1,2.268.2l.072-.054V64.55a11,11,0,0,0-2.3-.216C126.021,64.334,125.031,65.63,125.031,67.07Zm8.532,2.178c0,3.15,1.224,4.932,4.23,4.932a7.361,7.361,0,0,0,2.628-.432V72.524l-.09-.072a9.153,9.153,0,0,1-2.5.414c-2.178,0-2.88-.846-2.88-3.24v-.774c0-2.412.882-3.222,2.952-3.222a9.008,9.008,0,0,1,2.142.27l.09-.072V64.622a6.617,6.617,0,0,0-2.052-.306C135.2,64.316,133.563,65.846,133.563,69.248Zm11.5-4.932a10.875,10.875,0,0,0-2.646.324v1.224l.072.09a11.442,11.442,0,0,1,2.646-.324c2,0,2.952.54,2.952,2.142v.99h-.054a14.169,14.169,0,0,0-2.772-.27c-2.412,0-3.312,1.17-3.312,2.79a2.712,2.712,0,0,0,3.042,2.9c1.692,0,2.664-.594,3.06-1.566h.054L148.485,74h.972V68.312C149.457,65.684,148.305,64.316,145.065,64.316Zm.288,8.55h-.216c-1.278,0-1.8-.432-1.8-1.476v-.468c0-.774.36-1.35,1.62-1.35,1.1,0,2.178.054,3.132.09v2.3A3.95,3.95,0,0,1,145.353,72.866Zm10.71-8.514a2.8,2.8,0,0,0-2.61,1.512h-.072l-.5-1.368h-.864V74H153.4V66.674a3.571,3.571,0,0,1,2.79-.918c.2,0,.414,0,.612.018l.072-.072V64.478A2.169,2.169,0,0,0,156.063,64.352Zm7.614,8.406a11.653,11.653,0,0,1-1.512.108c-1.422,0-1.548-.486-1.548-1.728V65.684h2.97V64.5h-2.97V62.048h-.54l-.846.45v2h-1.422v1.188h1.422v5.094c0,2.052.7,3.4,2.79,3.4a8.179,8.179,0,0,0,1.728-.216V72.83Zm4.662-8.442a10.875,10.875,0,0,0-2.646.324v1.224l.072.09a11.442,11.442,0,0,1,2.646-.324c2,0,2.952.54,2.952,2.142v.99h-.054a14.169,14.169,0,0,0-2.772-.27c-2.412,0-3.312,1.17-3.312,2.79a2.712,2.712,0,0,0,3.042,2.9c1.692,0,2.664-.594,3.06-1.566h.054L171.759,74h.972V68.312C172.731,65.684,171.579,64.316,168.339,64.316Zm.288,8.55h-.216c-1.278,0-1.8-.432-1.8-1.476v-.468c0-.774.36-1.35,1.62-1.35,1.1,0,2.178.054,3.132.09v2.3A3.95,3.95,0,0,1,168.627,72.866ZM177.591,60.9a3.223,3.223,0,0,0-3.328,3.57c0,2.278,1.333,3.612,3.328,3.612,1.974,0,3.318-1.291,3.318-3.612A3.221,3.221,0,0,0,177.591,60.9Zm0,6.478a2.46,2.46,0,0,1-2.6-2.782v-.252a2.6,2.6,0,1,1,5.2,0V64.6A2.457,2.457,0,0,1,177.591,67.381Zm1.533-3.475a1.125,1.125,0,0,0-1.27-1.176h-1.617v3.528h.819V65.144h.682l.5,1.113h.861l.031-.042-.567-1.228A1.147,1.147,0,0,0,179.124,63.905Zm-2.068-.378h.85c.262,0,.388.073.388.346v.136c0,.262-.074.43-.378.43h-.861Zm13.719-1.8c0,.81.108.99.774.99.684,0,.774-.18.774-.99,0-.828-.09-1.008-.774-1.008C190.883,60.716,190.775,60.9,190.775,61.724Zm.09,2.772V74h1.386V64.5Zm13.212-.18a2.76,2.76,0,0,0-2.646,1.62h-.072a2.235,2.235,0,0,0-2.376-1.62,2.715,2.715,0,0,0-2.592,1.548h-.072l-.4-1.368h-.972V74h1.386V66.422a3.048,3.048,0,0,1,2.124-.792c1.134,0,1.638.324,1.638,1.26V74h1.386V66.44a3.138,3.138,0,0,1,2.142-.81c1.1,0,1.638.324,1.638,1.26V74h1.386V67.214C206.651,65.234,205.679,64.316,204.077,64.316Zm15.57,4.878c1.386-.468,2.07-1.71,2.07-3.564,0-2.376-1.17-3.654-3.8-3.654h-4.536V74h1.386V69.428h3.474L220.421,74H221.9l.018-.108Zm-4.878-5.9h3.33c1.53,0,2.232.558,2.232,2.142v.5c0,1.458-.666,2.322-2.142,2.322h-3.42Zm12.06,1.026a10.875,10.875,0,0,0-2.646.324v1.224l.072.09a11.442,11.442,0,0,1,2.646-.324c2,0,2.952.54,2.952,2.142v.99H229.8a14.169,14.169,0,0,0-2.772-.27c-2.412,0-3.312,1.17-3.312,2.79a2.712,2.712,0,0,0,3.042,2.9c1.692,0,2.664-.594,3.06-1.566h.054L230.249,74h.972V68.312C231.221,65.684,230.069,64.316,226.829,64.316Zm.288,8.55H226.9c-1.278,0-1.8-.432-1.8-1.476v-.468c0-.774.36-1.35,1.62-1.35,1.1,0,2.178.054,3.132.09v2.3A3.95,3.95,0,0,1,227.117,72.866Zm10.962-8.55a3.037,3.037,0,0,0-2.88,1.548h-.036V60.572h-1.386V74h1.386V66.422a4.148,4.148,0,0,1,2.5-.792c1.548,0,1.962.486,1.962,1.422V74h1.386V67.448C241.013,65.18,239.771,64.316,238.079,64.316Zm14.6,0a2.76,2.76,0,0,0-2.646,1.62h-.072a2.235,2.235,0,0,0-2.376-1.62,2.715,2.715,0,0,0-2.592,1.548h-.072l-.4-1.368h-.972V74h1.386V66.422a3.048,3.048,0,0,1,2.124-.792c1.134,0,1.638.324,1.638,1.26V74h1.386V66.44a3.138,3.138,0,0,1,2.142-.81c1.1,0,1.638.324,1.638,1.26V74h1.386V67.214C255.251,65.234,254.279,64.316,252.677,64.316Zm12.1,5V67.682a3.141,3.141,0,0,0-3.438-3.366c-2.538,0-4.014,1.566-4.014,4.986,0,3.024.936,4.878,4.374,4.878a6.672,6.672,0,0,0,2.754-.5V72.488l-.072-.072a7.318,7.318,0,0,1-2.646.45c-2.412,0-3.024-.882-3.024-2.61V69.32Zm-3.636-3.69h.18c1.584,0,2.088.54,2.088,1.782v.846h-4.7C258.8,66.35,259.517,65.63,261.137,65.63Zm10.152-1.314a3.058,3.058,0,0,0-2.862,1.548h-.072l-.4-1.368h-.972V74h1.386V66.422a4.148,4.148,0,0,1,2.5-.792c1.548,0,1.962.486,1.962,1.422V74h1.386V67.448C274.223,65.18,272.981,64.316,271.289,64.316Zm15.624-3.744v4.212h-.054a5.343,5.343,0,0,0-2.34-.468c-2.376,0-4.086,1.512-4.086,4.986,0,3.258,1.422,4.878,3.6,4.878a2.775,2.775,0,0,0,2.862-1.566h.054L287.327,74h.972V60.572Zm-2.646,12.294c-1.746,0-2.448-.774-2.448-3.024V68.87c0-2.5.81-3.24,2.754-3.24a9.464,9.464,0,0,1,2.34.234V71.93A3.676,3.676,0,0,1,284.267,72.866Zm13.7-3.546V67.682a3.141,3.141,0,0,0-3.438-3.366c-2.538,0-4.014,1.566-4.014,4.986,0,3.024.936,4.878,4.374,4.878a6.672,6.672,0,0,0,2.754-.5V72.488l-.072-.072a7.318,7.318,0,0,1-2.646.45c-2.412,0-3.024-.882-3.024-2.61V69.32Zm-3.636-3.69h.18c1.584,0,2.088.54,2.088,1.782v.846h-4.7C291.989,66.35,292.709,65.63,294.329,65.63Zm9.9-1.278a2.8,2.8,0,0,0-2.61,1.512h-.072l-.5-1.368h-.864V74h1.386V66.674a3.571,3.571,0,0,1,2.79-.918c.2,0,.414,0,.612.018l.072-.072V64.478A2.169,2.169,0,0,0,304.229,64.352Zm9.918,4.734L318.3,64.6l-.072-.108h-1.6l-3.708,4.032h-.558V60.572h-1.386V74h1.386V69.716h.558L316.865,74H318.5l.09-.108Zm5.166.216c0,3.042,1.584,4.878,4.086,4.878,2.484,0,4.068-1.836,4.068-4.878,0-3.438-1.818-4.986-4.068-4.986C321.131,64.316,319.313,65.864,319.313,69.3Zm1.386.468v-.99c0-2.124.81-3.15,2.7-3.15,1.872,0,2.682,1.026,2.682,3.15v.99c0,2.034-.774,3.1-2.682,3.1S320.7,71.822,320.7,69.77Zm18.126-5.454a2.76,2.76,0,0,0-2.646,1.62h-.072a2.235,2.235,0,0,0-2.376-1.62,2.715,2.715,0,0,0-2.592,1.548h-.072l-.4-1.368H329.7V74h1.386V66.422a3.048,3.048,0,0,1,2.124-.792c1.134,0,1.638.324,1.638,1.26V74h1.386V66.44a3.138,3.138,0,0,1,2.142-.81c1.1,0,1.638.324,1.638,1.26V74H341.4V67.214C341.4,65.234,340.427,64.316,338.825,64.316Zm14.238,0a2.76,2.76,0,0,0-2.646,1.62h-.072a2.235,2.235,0,0,0-2.376-1.62,2.715,2.715,0,0,0-2.592,1.548H345.3l-.4-1.368h-.972V74h1.386V66.422a3.048,3.048,0,0,1,2.124-.792c1.134,0,1.638.324,1.638,1.26V74h1.386V66.44a3.138,3.138,0,0,1,2.142-.81c1.1,0,1.638.324,1.638,1.26V74h1.386V67.214C355.637,65.234,354.665,64.316,353.063,64.316Zm12.1,5V67.682a3.141,3.141,0,0,0-3.438-3.366c-2.538,0-4.014,1.566-4.014,4.986,0,3.024.936,4.878,4.374,4.878a6.672,6.672,0,0,0,2.754-.5V72.488l-.072-.072a7.318,7.318,0,0,1-2.646.45c-2.412,0-3.024-.882-3.024-2.61V69.32Zm-3.636-3.69h.18c1.584,0,2.088.54,2.088,1.782v.846h-4.7C359.183,66.35,359.9,65.63,361.523,65.63Zm9.9-1.278a2.8,2.8,0,0,0-2.61,1.512h-.072l-.5-1.368h-.864V74h1.386V66.674a3.571,3.571,0,0,1,2.79-.918c.2,0,.414,0,.612.018l.072-.072V64.478A2.169,2.169,0,0,0,371.423,64.352Zm2.16.144v1.188H379v.072c-.432.414-1.332,1.3-1.818,1.89l-3.816,4.914V74h6.894V72.812h-5.706v-.054c.324-.324,1.368-1.386,1.872-2.034l3.834-4.914V64.5Zm8.64-2.772c0,.81.108.99.774.99.684,0,.774-.18.774-.99,0-.828-.09-1.008-.774-1.008C382.331,60.716,382.223,60.9,382.223,61.724Zm.09,2.772V74H383.7V64.5Zm11.07,4.824V67.682a3.141,3.141,0,0,0-3.438-3.366c-2.538,0-4.014,1.566-4.014,4.986,0,3.024.936,4.878,4.374,4.878a6.672,6.672,0,0,0,2.754-.5V72.488l-.072-.072a7.318,7.318,0,0,1-2.646.45c-2.412,0-3.024-.882-3.024-2.61V69.32Zm-3.636-3.69h.18c1.584,0,2.088.54,2.088,1.782v.846h-4.7C387.407,66.35,388.127,65.63,389.747,65.63Zm5.85-5.058V74h1.386V60.572Zm4.086,0V74h1.386V60.572Zm11.07,8.748V67.682a3.141,3.141,0,0,0-3.438-3.366c-2.538,0-4.014,1.566-4.014,4.986,0,3.024.936,4.878,4.374,4.878a6.672,6.672,0,0,0,2.754-.5V72.488l-.072-.072a7.318,7.318,0,0,1-2.646.45c-2.412,0-3.024-.882-3.024-2.61V69.32Zm-3.636-3.69h.18c1.584,0,2.088.54,2.088,1.782v.846h-4.7C404.777,66.35,405.5,65.63,407.117,65.63Zm10.152-1.314a3.058,3.058,0,0,0-2.862,1.548h-.072l-.4-1.368h-.972V74h1.386V66.422a4.148,4.148,0,0,1,2.5-.792c1.548,0,1.962.486,1.962,1.422V74H420.2V67.448C420.2,65.18,418.961,64.316,417.269,64.316ZM170.422,102h8.532v-1.314h-7.272v-.054c.4-.4,1.35-1.386,1.656-1.8l5.616-7.434V89.976h-8.37V91.29h7.02v.072c-.378.378-1.476,1.548-1.656,1.782l-5.526,7.326Zm16.146-9.5v7.416a3.7,3.7,0,0,1-2.52.954c-1.35,0-1.944-.414-1.944-1.6V92.5h-1.386v6.372c0,2.358,1.224,3.312,3.006,3.312a2.833,2.833,0,0,0,2.826-1.566h.036l.4,1.386h.972V92.5Zm4.086-3.924V102h1.386V88.572Zm6.876,3.744a10.875,10.875,0,0,0-2.646.324v1.224l.072.09a11.442,11.442,0,0,1,2.646-.324c2,0,2.952.54,2.952,2.142v.99H200.5a14.169,14.169,0,0,0-2.772-.27c-2.412,0-3.312,1.17-3.312,2.79a2.712,2.712,0,0,0,3.042,2.9c1.692,0,2.664-.594,3.06-1.566h.054L200.95,102h.972V96.312C201.922,93.684,200.77,92.316,197.53,92.316Zm.288,8.55H197.6c-1.278,0-1.8-.432-1.8-1.476v-.468c0-.774.36-1.35,1.62-1.35,1.1,0,2.178.054,3.132.09v2.3A3.95,3.95,0,0,1,197.818,100.866Zm6.336-5.8c0,1.206.594,2.106,2.232,2.412l1.494.27c1.368.252,1.674.648,1.674,1.386v.144c0,1.08-.54,1.584-2.448,1.584a18.493,18.493,0,0,1-2.61-.234l-.072.054v1.242a14.348,14.348,0,0,0,2.718.234c2.664,0,3.78-1.26,3.78-2.988,0-1.242-.612-2.2-2.358-2.52l-1.476-.27c-1.3-.252-1.566-.558-1.566-1.278V94.98c0-.918.63-1.35,2.52-1.35a14.739,14.739,0,0,1,2.268.2l.072-.054V92.55a11,11,0,0,0-2.3-.216C205.144,92.334,204.154,93.63,204.154,95.07Zm8.64,0c0,1.206.594,2.106,2.232,2.412l1.494.27c1.368.252,1.674.648,1.674,1.386v.144c0,1.08-.54,1.584-2.448,1.584a18.493,18.493,0,0,1-2.61-.234l-.072.054v1.242a14.348,14.348,0,0,0,2.718.234c2.664,0,3.78-1.26,3.78-2.988,0-1.242-.612-2.2-2.358-2.52l-1.476-.27c-1.3-.252-1.566-.558-1.566-1.278V94.98c0-.918.63-1.35,2.52-1.35a14.739,14.739,0,0,1,2.268.2l.072-.054V92.55a11,11,0,0,0-2.3-.216C213.784,92.334,212.794,93.63,212.794,95.07ZM227.482,92.5v7.416a3.7,3.7,0,0,1-2.52.954c-1.35,0-1.944-.414-1.944-1.6V92.5h-1.386v6.372c0,2.358,1.224,3.312,3.006,3.312a2.833,2.833,0,0,0,2.826-1.566h.036l.4,1.386h.972V92.5Zm8.388-.18a3.059,3.059,0,0,0-2.862,1.548h-.072l-.4-1.368h-.972V102h1.386V94.422a4.148,4.148,0,0,1,2.5-.792c1.548,0,1.962.486,1.962,1.422V102H238.8V95.448C238.8,93.18,237.562,92.316,235.87,92.316Zm13.266.18h-3.294a3.686,3.686,0,0,0-1.206-.18,3.167,3.167,0,0,0-3.366,3.438,3.343,3.343,0,0,0,.918,2.484l-.018.054a1.488,1.488,0,0,0-.936,1.53,1.78,1.78,0,0,0,.954,1.764v.036c-.72.126-1.242.7-1.242,1.872,0,1.656.972,2.718,4.1,2.718,2.736,0,4.086-.99,4.086-3.114,0-1.53-.99-2.358-2.7-2.358h-2.808c-.9,0-1.188-.4-1.188-1.062v-.162a1.2,1.2,0,0,1,.324-.864,3.942,3.942,0,0,0,1.872.414,3.033,3.033,0,0,0,3.348-3.312,3.8,3.8,0,0,0-.558-2.088l1.71-.126Zm-2.52,3.672c0,1.1-.45,1.692-1.98,1.692-1.548,0-1.98-.594-1.98-1.692V95.3c0-1.134.414-1.782,1.98-1.782,1.53,0,1.98.63,1.98,1.782Zm-2.736,5.742h2.682c.972,0,1.188.378,1.188,1.134v.324c0,1.134-.54,1.548-2.5,1.548h-.5c-1.944,0-2.412-.4-2.412-1.584v-.162a1.685,1.685,0,0,1,.54-1.35A5.515,5.515,0,0,0,243.88,101.91Zm13.968-9.594a10.875,10.875,0,0,0-2.646.324v1.224l.072.09a11.442,11.442,0,0,1,2.646-.324c2,0,2.952.54,2.952,2.142v.99h-.054a14.168,14.168,0,0,0-2.772-.27c-2.412,0-3.312,1.17-3.312,2.79a2.712,2.712,0,0,0,3.042,2.9c1.692,0,2.664-.594,3.06-1.566h.054l.378,1.386h.972V96.312C262.24,93.684,261.088,92.316,257.848,92.316Zm.288,8.55h-.216c-1.278,0-1.8-.432-1.8-1.476v-.468c0-.774.36-1.35,1.62-1.35,1.1,0,2.178.054,3.132.09v2.3A3.95,3.95,0,0,1,258.136,100.866Zm15.786-8.55a2.76,2.76,0,0,0-2.646,1.62H271.2a2.235,2.235,0,0,0-2.376-1.62,2.715,2.715,0,0,0-2.592,1.548h-.072l-.4-1.368H264.8V102h1.386V94.422a3.048,3.048,0,0,1,2.124-.792c1.134,0,1.638.324,1.638,1.26V102h1.386V94.44a3.139,3.139,0,0,1,2.142-.81c1.1,0,1.638.324,1.638,1.26V102H276.5V95.214C276.5,93.234,275.524,92.316,273.922,92.316Zm10.692,8.37V89.976h-1.386V102h7.362v-1.314ZM298.96,97.32V95.682a3.141,3.141,0,0,0-3.438-3.366c-2.538,0-4.014,1.566-4.014,4.986,0,3.024.936,4.878,4.374,4.878a6.672,6.672,0,0,0,2.754-.5v-1.188l-.072-.072a7.318,7.318,0,0,1-2.646.45c-2.412,0-3.024-.882-3.024-2.61V97.32Zm-3.636-3.69h.18c1.584,0,2.088.54,2.088,1.782v.846h-4.7C292.984,94.35,293.7,93.63,295.324,93.63Zm10.134-1.314a3.007,3.007,0,0,0-2.862,1.566h-.09c.036-.828.054-1.692.054-2.088V88.572h-1.386V102h.972l.4-1.332h.036c.36.936,1.134,1.512,2.7,1.512,2.3,0,3.744-1.692,3.744-5.094C309.022,93.63,307.312,92.316,305.458,92.316Zm2.178,5.256c0,2.286-.72,3.294-2.61,3.294a3.28,3.28,0,0,1-2.466-.846V94.458a4.087,4.087,0,0,1,2.538-.828c1.8,0,2.538.648,2.538,2.988Zm10.62-.252V95.682a3.141,3.141,0,0,0-3.438-3.366c-2.538,0-4.014,1.566-4.014,4.986,0,3.024.936,4.878,4.374,4.878a6.672,6.672,0,0,0,2.754-.5v-1.188l-.072-.072a7.318,7.318,0,0,1-2.646.45c-2.412,0-3.024-.882-3.024-2.61V97.32Zm-3.636-3.69h.18c1.584,0,2.088.54,2.088,1.782v.846h-4.7C312.28,94.35,313,93.63,314.62,93.63Zm10.152-1.314a3.058,3.058,0,0,0-2.862,1.548h-.072l-.4-1.368h-.972V102h1.386V94.422a4.148,4.148,0,0,1,2.5-.792c1.548,0,1.962.486,1.962,1.422V102h1.386V95.448C327.706,93.18,326.464,92.316,324.772,92.316Zm9.522-2.592c0,.81.108.99.774.99.684,0,.774-.18.774-.99,0-.828-.09-1.008-.774-1.008C334.4,88.716,334.294,88.9,334.294,89.724Zm.09,2.772V102h1.386V92.5Zm3.762,2.574c0,1.206.594,2.106,2.232,2.412l1.494.27c1.368.252,1.674.648,1.674,1.386v.144c0,1.08-.54,1.584-2.448,1.584a18.493,18.493,0,0,1-2.61-.234l-.072.054v1.242a14.349,14.349,0,0,0,2.718.234c2.664,0,3.78-1.26,3.78-2.988,0-1.242-.612-2.2-2.358-2.52l-1.476-.27c-1.3-.252-1.566-.558-1.566-1.278V94.98c0-.918.63-1.35,2.52-1.35a14.738,14.738,0,0,1,2.268.2l.072-.054V92.55a11,11,0,0,0-2.3-.216C339.136,92.334,338.146,93.63,338.146,95.07Zm13.842,5.688a11.653,11.653,0,0,1-1.512.108c-1.422,0-1.548-.486-1.548-1.728V93.684h2.97V92.5h-2.97V90.048h-.54l-.846.45v2H346.12v1.188h1.422v5.094c0,2.052.7,3.4,2.79,3.4a8.179,8.179,0,0,0,1.728-.216V100.83Zm1.926.162c0,.954.144,1.134.918,1.134s.9-.18.9-1.134c0-.972-.126-1.152-.9-1.152S353.914,99.948,353.914,100.92Z" transform="translate(-7975 -9511)" fill="#3c1053"/>
    <g id="Group_26" data-name="Group 26" transform="translate(-7866.547 -9368.198)">
      <path id="Path_71" data-name="Path 71" d="M360.861,3.839l7,12.111,7.01-12.111Z" transform="translate(-79.339 -0.844)" fill="#3c1053"/>
      <path id="Path_72" data-name="Path 72" d="M79.787,23.128,72.456,5.788H81.1l3.707,9.267h.083l7-9.267h9.556l-13.51,17.34L85.924,34.618H77.768Z" transform="translate(-15.93 -1.272)" fill="#3c1053"/>
      <path id="Path_73" data-name="Path 73" d="M111.088,5.788h21.376l-1.235,6.837H117.966l-.823,4.408h11.739l-1.071,5.931h-11.7l-.865,4.819h13.468l-1.236,6.837h-21.5Z" transform="translate(-23.301 -1.272)" fill="#3c1053"/>
      <g id="Group_21" data-name="Group 21" transform="translate(0 0)">
        <g id="Group_20" data-name="Group 20" clip-path="url(#clip-path)">
          <path id="Path_74" data-name="Path 74" d="M142.405,25.449a14.3,14.3,0,0,0,7.661,2.636c2.141,0,3.46-.947,3.46-2.224,0-1.606-2.1-2.018-4.778-2.925-3.543-1.153-7.5-2.8-7.5-8.237,0-5.354,4.324-9.6,11.779-9.6a21.6,21.6,0,0,1,10.709,3.007l-3.625,5.849a14.6,14.6,0,0,0-7.126-1.977c-2.018,0-3.212.947-3.212,2.183,0,1.524,1.977,1.977,4.53,2.8,3.5,1.153,7.7,2.553,7.7,8.279,0,5.478-4,9.761-12.315,9.761a20.1,20.1,0,0,1-11.615-3.954Z" transform="translate(-30.359 -1.122)" fill="#3c1053"/>
          <path id="Path_75" data-name="Path 75" d="M188.921,5.1a14.835,14.835,0,0,1,10.956,4.366L195.222,14.2a9.018,9.018,0,0,0-6.26-2.429c-4.613,0-8.526,4.2-8.526,9.515,0,4.572,2.595,7.042,6.137,7.042a9.694,9.694,0,0,0,6.631-2.883l4.2,5.189A16.187,16.187,0,0,1,185.955,35c-7.66,0-13.715-4.695-13.715-13.386A16.32,16.32,0,0,1,188.921,5.1" transform="translate(-37.869 -1.122)" fill="#3c1053"/>
          <path id="Path_76" data-name="Path 76" d="M219.536,5.787h9.021l4.613,28.832h-8.156l-.494-4.283h-8.856l-1.936,4.283h-9.021Zm-1.194,18.659h5.477l-1.07-9.432h-.082Z" transform="translate(-45.007 -1.272)" fill="#3c1053"/>
          <path id="Path_77" data-name="Path 77" d="M249.518,5.787h12.274c6.755,0,10.709,3.5,10.709,8.732,0,3.254-1.318,7.043-6.425,8.855l2.677,11.244h-7.661L259.115,24.4h-4.778l-1.812,10.214h-8.114ZM259.856,18.8c2.553,0,4.366-1.565,4.366-4,0-1.895-1.2-2.842-3.172-2.842h-4.53l-1.2,6.837Z" transform="translate(-53.737 -1.272)" fill="#3c1053"/>
          <path id="Path_78" data-name="Path 78" d="M291.649,12.79h-8.856l1.2-7h25.33l-1.194,7H299.68l-3.83,21.829h-8.073Z" transform="translate(-62.175 -1.273)" fill="#3c1053"/>
          <path id="Path_79" data-name="Path 79" d="M323.281,5.787H332.3l4.613,28.832h-8.156l-.495-4.283h-8.855l-1.936,4.283h-9.021Zm-1.194,18.659h5.477l-1.07-9.432h-.082Z" transform="translate(-67.817 -1.272)" fill="#3c1053"/>
          <path id="Path_80" data-name="Path 80" d="M82.137,51.5a24.121,24.121,0,0,0-2.914,12.189,24.209,24.209,0,0,0,2.914,12.189h-1.1c-1.414-2.282-3-6.275-3-12.189,0-5.945,1.584-9.937,3-12.189Z" transform="translate(-17.157 -11.322)" fill="#3c1053"/>
          <path id="Path_81" data-name="Path 81" d="M92.229,70.755A29.437,29.437,0,0,0,92.343,74H91.211L91.1,72.406h-.085a2.8,2.8,0,0,1-2.546,1.831c-1.669,0-3-1.5-3-3.963,0-3.482,2.461-5.1,5.544-5.133V64.6c0-2.462-.367-4.113-2.348-4.113a3.221,3.221,0,0,0-1.923.69l-.339-.99a4.119,4.119,0,0,1,2.518-.841c1.839,0,3.309,1.141,3.309,4.593Zm-1.216-4.5c-1.046,0-4.271.09-4.271,3.933,0,2.162.99,2.912,1.895,2.912,1.16,0,2.065-.991,2.32-2.732a5.525,5.525,0,0,0,.056-.931Z" transform="translate(-18.791 -13.048)" fill="#3c1053"/>
          <path id="Path_82" data-name="Path 82" d="M99.056,59.654l1.528,3.422c.368.811.679,1.621,1.047,2.582h.057c.367-1.02.764-1.832,1.075-2.582l1.471-3.422h1.329l-3.337,7.116,3.253,7.3h-1.33l-1.528-3.6c-.339-.781-.623-1.531-1.047-2.642h-.056c-.339.96-.708,1.771-1.075,2.642l-1.528,3.6h-1.3l3.366-7.3-3.225-7.116Z" transform="translate(-21.462 -13.116)" fill="#3c1053"/>
          <path id="Path_83" data-name="Path 83" d="M111.616,55.718c-.509,0-.877-.42-.877-1.11,0-.661.368-1.112.906-1.112.622,0,.933.451.933,1.112,0,.69-.311,1.11-.933,1.11ZM111.05,58.3h1.216V72.711H111.05Z" transform="translate(-24.347 -11.762)" fill="#3c1053"/>
          <path id="Path_84" data-name="Path 84" d="M123.672,73.577a3.979,3.979,0,0,1-2.207.6c-2.659,0-4.526-2.553-4.526-7.356,0-3.933,1.669-7.475,4.838-7.475a3.627,3.627,0,0,1,1.867.51l-.4,1.141a3.152,3.152,0,0,0-1.67-.48c-2.432,0-3.366,3.362-3.366,6.394,0,3.843,1.33,6.124,3.48,6.124a3.352,3.352,0,0,0,1.7-.45Z" transform="translate(-25.71 -13.048)" fill="#3c1053"/>
          <path id="Path_85" data-name="Path 85" d="M134.65,70.755A29.433,29.433,0,0,0,134.764,74h-1.132l-.113-1.591h-.085a2.8,2.8,0,0,1-2.546,1.831c-1.669,0-3-1.5-3-3.963,0-3.482,2.461-5.1,5.544-5.133V64.6c0-2.462-.367-4.113-2.348-4.113a3.221,3.221,0,0,0-1.923.69l-.339-.99a4.119,4.119,0,0,1,2.518-.841c1.839,0,3.309,1.141,3.309,4.593Zm-1.216-4.5c-1.046,0-4.271.09-4.271,3.933,0,2.162.99,2.912,1.895,2.912,1.16,0,2.065-.991,2.32-2.732a5.524,5.524,0,0,0,.056-.931Z" transform="translate(-28.118 -13.048)" fill="#3c1053"/>
          <path id="Path_86" data-name="Path 86" d="M141.6,51.5h1.216v8.2h.056a2.956,2.956,0,0,1,2.886-2.07c1.811,0,3.65,2.191,3.65,7.445,0,5.314-2.122,7.445-3.933,7.445a2.819,2.819,0,0,1-2.716-2.251h-.113l-.113,2.011h-1.047c.029-.541.114-2.221.114-2.942Zm1.216,15.732a4.374,4.374,0,0,0,.056.87c.623,2.823,1.811,3.273,2.518,3.273,2.065,0,2.744-3.063,2.744-6.3,0-3.153-.708-6.3-2.8-6.3-1.272,0-2.319,1.771-2.489,3.362-.028.36-.028.691-.028,1.051Z" transform="translate(-31.107 -11.322)" fill="#3c1053"/>
          <path id="Path_87" data-name="Path 87" d="M157.125,55.614v3.152H159.7v1.111h-2.574v9.817c0,2.011.623,2.552,1.442,2.552a3.024,3.024,0,0,0,.821-.09l.141.991a2.646,2.646,0,0,1-1.216.21,2.092,2.092,0,0,1-1.811-.841c-.424-.6-.594-1.471-.594-3.3V59.877h-1.7V58.766h1.7v-2.4Z" transform="translate(-33.905 -12.228)" fill="#3c1053"/>
          <path id="Path_88" data-name="Path 88" d="M170.4,70.755A29.433,29.433,0,0,0,170.513,74h-1.132l-.113-1.591h-.085a2.8,2.8,0,0,1-2.546,1.831c-1.669,0-3-1.5-3-3.963,0-3.482,2.461-5.1,5.544-5.133V64.6c0-2.462-.367-4.113-2.348-4.113a3.221,3.221,0,0,0-1.923.69l-.339-.99a4.119,4.119,0,0,1,2.518-.841c1.839,0,3.309,1.141,3.309,4.593Zm-1.216-4.5c-1.046,0-4.271.09-4.271,3.933,0,2.162.99,2.912,1.895,2.912,1.16,0,2.065-.991,2.32-2.732a5.525,5.525,0,0,0,.056-.931Z" transform="translate(-35.978 -13.048)" fill="#3c1053"/>
          <path id="Path_89" data-name="Path 89" d="M184.353,71.985c0,4.233-.4,5.524-1.16,6.515a3.866,3.866,0,0,1-3.112,1.5,5.255,5.255,0,0,1-2.744-.72l.4-1.081a5.113,5.113,0,0,0,2.489.661c1.641,0,2.914-1.051,2.914-4.984v-1.83h-.056A2.776,2.776,0,0,1,180.393,74c-2.009,0-3.848-2.462-3.848-7.2,0-5.644,2.405-7.446,4.1-7.446a2.737,2.737,0,0,1,2.546,1.951h.057l.056-1.712h1.16c-.029.781-.113,1.921-.113,4.444Zm-1.217-7.625a4.273,4.273,0,0,0-.085-1.052c-.282-1.2-.848-2.822-2.461-2.822-1.725,0-2.772,2.462-2.772,6.185,0,4.323,1.329,6.184,2.8,6.184.793,0,1.868-.36,2.4-2.7a6.46,6.46,0,0,0,.113-1.411Z" transform="translate(-38.815 -13.048)" fill="#3c1053"/>
          <path id="Path_90" data-name="Path 90" d="M192,66.252c0,5.794,1.895,6.784,3.423,6.784a3.485,3.485,0,0,0,2.036-.569l.283.99a4.484,4.484,0,0,1-2.546.721c-2.97,0-4.441-2.972-4.441-7.326,0-4.563,1.556-7.5,4.045-7.5,2.688,0,3.422,3.512,3.422,6.064v.841Zm4.923-1.051c.056-3.543-1.33-4.714-2.32-4.714-1.584,0-2.432,2.4-2.574,4.714Z" transform="translate(-41.94 -13.048)" fill="#3c1053"/>
          <path id="Path_91" data-name="Path 91" d="M204.323,62.919c0-1.771-.086-2.312-.114-3.333h1.1l.058,1.772h.056a3.19,3.19,0,0,1,3-2.011c1.442,0,3.083,1.02,3.083,4.683V74h-1.216V64.54c0-2.042-.339-4.083-2.235-4.083-1.1,0-2.178,1.021-2.461,3a9.027,9.027,0,0,0-.056,1.261V74h-1.216Z" transform="translate(-44.898 -13.048)" fill="#3c1053"/>
          <path id="Path_92" data-name="Path 92" d="M219.05,66.252c0,5.794,1.895,6.784,3.423,6.784a3.49,3.49,0,0,0,2.037-.569l.282.99a4.482,4.482,0,0,1-2.546.721c-2.97,0-4.441-2.972-4.441-7.326,0-4.563,1.556-7.5,4.045-7.5,2.688,0,3.422,3.512,3.422,6.064v.841Zm4.923-1.051c.056-3.543-1.33-4.714-2.32-4.714-1.584,0-2.432,2.4-2.574,4.714Z" transform="translate(-47.887 -13.048)" fill="#3c1053"/>
          <path id="Path_93" data-name="Path 93" d="M243.718,73.577a3.975,3.975,0,0,1-2.206.6c-2.66,0-4.526-2.553-4.526-7.356,0-3.933,1.669-7.475,4.838-7.475a3.629,3.629,0,0,1,1.867.51l-.4,1.141a3.148,3.148,0,0,0-1.669-.48c-2.432,0-3.366,3.362-3.366,6.394,0,3.843,1.329,6.124,3.479,6.124a3.353,3.353,0,0,0,1.7-.45Z" transform="translate(-52.104 -13.048)" fill="#3c1053"/>
          <path id="Path_94" data-name="Path 94" d="M249.646,55.718c-.509,0-.877-.42-.877-1.11,0-.661.368-1.112.9-1.112.623,0,.934.451.934,1.112,0,.69-.311,1.11-.934,1.11ZM249.08,58.3H250.3V72.711H249.08Z" transform="translate(-54.695 -11.762)" fill="#3c1053"/>
          <rect id="Rectangle_79" data-name="Rectangle 79" width="1.216" height="20.775" transform="translate(199.591 40.174)" fill="#3c1053"/>
          <path id="Path_95" data-name="Path 95" d="M265.935,74.238c-1.924,0-3.932-2.131-3.932-7.445s2.008-7.446,4.13-7.446c1.923,0,3.9,2.131,3.9,7.446s-2.009,7.445-4.074,7.445Zm.113-1.141c2.291,0,2.716-3.963,2.716-6.3s-.424-6.305-2.772-6.305c-2.292,0-2.716,3.963-2.716,6.305s.424,6.3,2.745,6.3Z" transform="translate(-57.604 -13.048)" fill="#3c1053"/>
          <rect id="Rectangle_80" data-name="Rectangle 80" width="1.216" height="20.775" transform="translate(215.741 40.174)" fill="#3c1053"/>
          <path id="Path_96" data-name="Path 96" d="M283.949,66.252c0,5.794,1.895,6.784,3.423,6.784a3.49,3.49,0,0,0,2.037-.569l.282.99a4.482,4.482,0,0,1-2.546.721c-2.97,0-4.441-2.972-4.441-7.326,0-4.563,1.556-7.5,4.045-7.5,2.688,0,3.422,3.512,3.422,6.064v.841Zm4.923-1.051c.056-3.543-1.33-4.714-2.32-4.714-1.584,0-2.432,2.4-2.574,4.714Z" transform="translate(-62.156 -13.048)" fill="#3c1053"/>
          <path id="Path_97" data-name="Path 97" d="M303.309,70.432c0,1.621.085,2.733.113,3.632h-1.1l-.113-1.5h-.057a3.359,3.359,0,0,1-2.772,1.742c-2.235,0-3.112-1.921-3.112-5.314V59.654h1.216V68.72c0,2.493.339,4.473,2.122,4.473,1.7,0,2.347-1.74,2.432-2.521a10.256,10.256,0,0,0,.057-1.322v-9.7h1.216Z" transform="translate(-65.137 -13.116)" fill="#3c1053"/>
          <path id="Path_98" data-name="Path 98" d="M316.195,73.577a3.973,3.973,0,0,1-2.206.6c-2.659,0-4.526-2.553-4.526-7.356,0-3.933,1.669-7.475,4.838-7.475a3.626,3.626,0,0,1,1.866.51L315.77,61a3.146,3.146,0,0,0-1.669-.48c-2.432,0-3.366,3.362-3.366,6.394,0,3.843,1.329,6.124,3.479,6.124a3.348,3.348,0,0,0,1.7-.45Z" transform="translate(-68.039 -13.048)" fill="#3c1053"/>
          <path id="Path_99" data-name="Path 99" d="M321.693,66.252c0,5.794,1.895,6.784,3.423,6.784a3.49,3.49,0,0,0,2.037-.569l.282.99a4.482,4.482,0,0,1-2.546.721c-2.97,0-4.441-2.972-4.441-7.326,0-4.563,1.556-7.5,4.045-7.5,2.688,0,3.422,3.512,3.422,6.064v.841Zm4.923-1.051c.056-3.543-1.33-4.714-2.32-4.714-1.584,0-2.432,2.4-2.574,4.714Z" transform="translate(-70.454 -13.048)" fill="#3c1053"/>
          <rect id="Rectangle_81" data-name="Rectangle 81" width="1.216" height="20.775" transform="translate(260.602 40.174)" fill="#3c1053"/>
          <path id="Path_100" data-name="Path 100" d="M340.027,75.874a24.2,24.2,0,0,0,2.914-12.189A24.114,24.114,0,0,0,340.027,51.5h1.1c1.414,2.251,3,6.243,3,12.189,0,5.913-1.585,9.907-3,12.189Z" transform="translate(-74.759 -11.322)" fill="#3c1053"/>
          <path id="Path_101" data-name="Path 101" d="M1.715,30.658A178.152,178.152,0,0,1,47.51,22.575a177.514,177.514,0,0,1-45.842-7.8,19.484,19.484,0,0,0,.047,15.881" transform="translate(0 -3.249)" fill="#ff8674"/>
          <path id="Path_102" data-name="Path 102" d="M18.637,3.123A19.4,19.4,0,0,1,48.253,15.767a63.672,63.672,0,0,0,7.18,2.588,63.193,63.193,0,0,1-36.8-15.231M21.9,37.412a19.765,19.765,0,0,1-3.167-1.64A63.187,63.187,0,0,1,55.438,20.324a63.579,63.579,0,0,0-7.165,2.631A19.423,19.423,0,0,1,29.238,38.833,19.179,19.179,0,0,1,21.9,37.412" transform="translate(-4.098 0)" fill="#3c1053"/>
          <path id="Path_103" data-name="Path 103" d="M349.523,4.995a4.34,4.34,0,1,1-4.334,4.346,4.353,4.353,0,0,1,4.334-4.346m.012,7.962a3.628,3.628,0,1,0-3.616-3.616,3.631,3.631,0,0,0,3.616,3.616m-1.808-5.879h2.167c1.245,0,1.712.731,1.712,1.473a1.367,1.367,0,0,1-.862,1.281c.229.384.731,1.4.958,1.748h-1.112l-.827-1.628h-1.006V11.58h-1.03Zm2.06,2.1c.6,0,.8-.335.8-.623,0-.323-.2-.658-.8-.658h-1.03V9.173Z" transform="translate(-75.894 -1.098)" fill="#3c1053"/>
          <rect id="Rectangle_82" data-name="Rectangle 82" width="0.962" height="7.886" transform="translate(273.489 40.575)" fill="#3c1053"/>
          <path id="Path_104" data-name="Path 104" d="M353.322,56.3c0-.667-.037-1.006-.049-1.463h.837l.049.679h.025a1.553,1.553,0,0,1,1.388-.772c.838,0,1.463.573,1.463,1.954v3.8h-.963V56.846c0-.679-.137-1.346-.838-1.346-.4,0-.787.316-.9.924a1.915,1.915,0,0,0-.051.5V60.5h-.962Z" transform="translate(-77.671 -12.035)" fill="#3c1053"/>
          <path id="Path_105" data-name="Path 105" d="M359.546,59.81V54.825h-.763v-.679h.763V53.8a2.371,2.371,0,0,1,.537-1.7,1.7,1.7,0,0,1,1.213-.48,1.788,1.788,0,0,1,.75.14l-.15.7a1.44,1.44,0,0,0-.538-.094c-.688,0-.85.69-.85,1.416v.363h1.1v.679h-1.1V59.81Z" transform="translate(-78.882 -11.349)" fill="#3c1053"/>
          <path id="Path_106" data-name="Path 106" d="M366.453,58.978c0,.62.037,1.123.049,1.545h-.837l-.075-.6h-.025a1.566,1.566,0,0,1-1.287.69c-1.05,0-1.475-.772-1.475-2.177V54.859h.963v3.452c0,.878.15,1.545.813,1.545a.905.905,0,0,0,.862-.761,2.1,2.1,0,0,0,.05-.5V54.859h.963Z" transform="translate(-79.766 -12.062)" fill="#3c1053"/>
          <path id="Path_107" data-name="Path 107" d="M368.615,59.561a2.006,2.006,0,0,0,.975.293.8.8,0,0,0,.888-.819c0-.433-.162-.737-.775-1.112-.787-.48-1.213-.971-1.213-1.615a1.57,1.57,0,0,1,1.663-1.568,2.019,2.019,0,0,1,1.074.293l-.25.679a1.445,1.445,0,0,0-.813-.257.716.716,0,0,0-.775.726c0,.374.15.6.75.971a2.094,2.094,0,0,1,1.251,1.732,1.644,1.644,0,0,1-1.826,1.685,2.155,2.155,0,0,1-1.187-.328Z" transform="translate(-80.992 -12.035)" fill="#3c1053"/>
          <path id="Path_108" data-name="Path 108" d="M373.622,53.4a.546.546,0,0,1-.55-.585.556.556,0,0,1,.562-.585.585.585,0,0,1,0,1.17Zm-.45.878h.962v5.664h-.962Z" transform="translate(-82.024 -11.484)" fill="#3c1053"/>
          <path id="Path_109" data-name="Path 109" d="M377.454,60.59c-1.087,0-1.963-.924-1.963-2.914,0-2.071.988-2.937,2.025-2.937,1.087,0,1.95.936,1.95,2.914,0,2.2-1.075,2.937-2,2.937Zm.05-.714c.825,0,1-1.322,1-2.212s-.175-2.212-1.024-2.212-1.026,1.334-1.026,2.212c0,.936.176,2.212,1.038,2.212Z" transform="translate(-82.556 -12.035)" fill="#3c1053"/>
          <path id="Path_110" data-name="Path 110" d="M381.629,56.3c0-.667-.038-1.006-.05-1.463h.837l.05.679h.025a1.552,1.552,0,0,1,1.388-.772c.837,0,1.462.573,1.462,1.954v3.8h-.963V56.846c0-.679-.137-1.346-.837-1.346-.4,0-.788.316-.9.924a1.883,1.883,0,0,0-.051.5V60.5h-.962Z" transform="translate(-83.894 -12.035)" fill="#3c1053"/>
          <path id="Path_111" data-name="Path 111" d="M387.535,59.561a2.006,2.006,0,0,0,.975.293.8.8,0,0,0,.888-.819c0-.433-.162-.737-.775-1.112-.788-.48-1.213-.971-1.213-1.615a1.57,1.57,0,0,1,1.662-1.568,2.022,2.022,0,0,1,1.075.293l-.25.679a1.442,1.442,0,0,0-.812-.257.716.716,0,0,0-.775.726c0,.374.15.6.75.971a2.093,2.093,0,0,1,1.251,1.732,1.644,1.644,0,0,1-1.826,1.685,2.155,2.155,0,0,1-1.187-.328Z" transform="translate(-85.152 -12.035)" fill="#3c1053"/>
          <rect id="Rectangle_83" data-name="Rectangle 83" width="2.738" height="0.69" transform="translate(305.608 45.056)" fill="#3c1053"/>
          <path id="Path_112" data-name="Path 112" d="M354.044,67.74v6.74c0,.386.038,1.03.051,1.357h-.825l-.062-.7h-.05a1.388,1.388,0,0,1-1.262.8c-1.025,0-1.762-1.03-1.762-2.9,0-2.013.887-2.949,1.825-2.949a1.167,1.167,0,0,1,1.1.667h.025V67.74Zm-.962,4.586c0-.117,0-.246-.012-.374-.05-.585-.438-1.1-.9-1.1-.8,0-1.075,1.041-1.075,2.177,0,1.194.325,2.153,1.026,2.153.3,0,.712-.152.924-.971a1.162,1.162,0,0,0,.037-.374Z" transform="translate(-76.98 -14.894)" fill="#3c1053"/>
          <path id="Path_113" data-name="Path 113" d="M356.961,69.4a.546.546,0,0,1-.55-.585.557.557,0,0,1,.563-.585.585.585,0,0,1,0,1.17Zm-.449.878h.962v5.664h-.962Z" transform="translate(-78.361 -15.002)" fill="#3c1053"/>
          <path id="Path_114" data-name="Path 114" d="M358.892,75.561a2,2,0,0,0,.975.293.8.8,0,0,0,.887-.819c0-.433-.162-.737-.775-1.112-.787-.48-1.212-.971-1.212-1.615a1.569,1.569,0,0,1,1.662-1.568,2.024,2.024,0,0,1,1.075.293l-.25.679a1.443,1.443,0,0,0-.813-.257.717.717,0,0,0-.775.726c0,.374.151.6.75.971a2.093,2.093,0,0,1,1.251,1.732,1.644,1.644,0,0,1-1.825,1.685,2.16,2.16,0,0,1-1.188-.328Z" transform="translate(-78.854 -15.553)" fill="#3c1053"/>
          <path id="Path_115" data-name="Path 115" d="M363.446,72.6c0-.866-.037-1.369-.051-1.767h.863l.05.714h.025a1.41,1.41,0,0,1,1.275-.807c1.063,0,1.75,1.041,1.75,2.914,0,2.106-.924,2.937-1.862,2.937a1.142,1.142,0,0,1-1.063-.644h-.025v2.8h-.962Zm.962,1.826a1.866,1.866,0,0,0,.05.468c.188.807.613.948.875.948.8,0,1.063-1.03,1.063-2.165,0-1.182-.3-2.165-1.063-2.165-.438,0-.838.515-.888,1.03a1.65,1.65,0,0,0-.037.433Z" transform="translate(-79.896 -15.553)" fill="#3c1053"/>
          <path id="Path_116" data-name="Path 116" d="M370.147,73.746c.013,1.744.739,2.106,1.425,2.106a2.274,2.274,0,0,0,1-.211l.162.655a3.106,3.106,0,0,1-1.338.269c-1.437,0-2.187-1.1-2.187-2.844,0-1.837.825-2.984,2.038-2.984s1.725,1.217,1.725,2.493a5.048,5.048,0,0,1-.026.515Zm1.9-.667c.012-1.135-.438-1.638-.9-1.638-.625,0-.949.866-.988,1.638Z" transform="translate(-81.175 -15.553)" fill="#3c1053"/>
          <path id="Path_117" data-name="Path 117" d="M375.011,72.3c0-.48-.037-1.041-.049-1.463h.862l.049.889h.026a1.455,1.455,0,0,1,1.275-.983,1.075,1.075,0,0,1,.2.012v.924a1.076,1.076,0,0,0-.2-.012,1.263,1.263,0,0,0-1.162,1.182,3.128,3.128,0,0,0-.037.515V76.5h-.963Z" transform="translate(-82.44 -15.553)" fill="#3c1053"/>
          <path id="Path_118" data-name="Path 118" d="M378.418,75.561a2.006,2.006,0,0,0,.975.293.8.8,0,0,0,.888-.819c0-.433-.162-.737-.775-1.112-.788-.48-1.213-.971-1.213-1.615a1.57,1.57,0,0,1,1.662-1.568,2.022,2.022,0,0,1,1.075.293l-.25.679a1.442,1.442,0,0,0-.812-.257.716.716,0,0,0-.775.726c0,.374.15.6.75.971a2.093,2.093,0,0,1,1.251,1.732,1.644,1.644,0,0,1-1.826,1.685,2.155,2.155,0,0,1-1.187-.328Z" transform="translate(-83.147 -15.553)" fill="#3c1053"/>
          <path id="Path_119" data-name="Path 119" d="M383.425,69.4a.546.546,0,0,1-.55-.585.556.556,0,0,1,.563-.585.585.585,0,0,1,0,1.17Zm-.45.878h.962v5.664h-.962Z" transform="translate(-84.179 -15.002)" fill="#3c1053"/>
          <path id="Path_120" data-name="Path 120" d="M387.257,76.59c-1.088,0-1.963-.924-1.963-2.914,0-2.071.988-2.937,2.025-2.937,1.087,0,1.95.936,1.95,2.914,0,2.2-1.075,2.937-2,2.937Zm.05-.714c.825,0,1-1.322,1-2.212s-.175-2.212-1.024-2.212-1.026,1.334-1.026,2.212c0,.936.176,2.212,1.038,2.212Z" transform="translate(-84.711 -15.553)" fill="#3c1053"/>
          <path id="Path_121" data-name="Path 121" d="M391.431,72.3c0-.667-.037-1.006-.049-1.463h.837l.049.679h.025a1.553,1.553,0,0,1,1.388-.772c.838,0,1.463.573,1.463,1.954v3.8h-.963V72.846c0-.679-.137-1.346-.838-1.346-.4,0-.787.316-.9.924a1.915,1.915,0,0,0-.051.5V76.5h-.962Z" transform="translate(-86.05 -15.553)" fill="#3c1053"/>
        </g>
      </g>
    </g>
  </g>
</svg>
