<svg xmlns="http://www.w3.org/2000/svg" xmlns:xlink="http://www.w3.org/1999/xlink" width="349.578" height="417.74" viewBox="0 0 349.578 417.74">
  <defs>
    <clipPath id="clip-path">
      <rect id="Rectangle_84" data-name="Rectangle 84" width="309.094" height="66.953" fill="#3c1053"/>
    </clipPath>
    <clipPath id="clip-path-2">
      <path id="Path_127" data-name="Path 127" d="M98.6,91.487h31.472l1.369-39.321-27.365-2.132Z" transform="translate(-98.597 -50.034)" fill="none"/>
    </clipPath>
    <clipPath id="clip-path-3">
      <path id="Path_130" data-name="Path 130" d="M69.7,93.586l67.448.81,5.8-38.219L85.011,46.85Z" transform="translate(-69.705 -46.85)" fill="none"/>
    </clipPath>
    <clipPath id="clip-path-4">
      <rect id="Rectangle_93" data-name="Rectangle 93" width="314.188" height="159.565" fill="none"/>
    </clipPath>
    <clipPath id="clip-path-5">
      <path id="Path_146" data-name="Path 146" d="M69.537,0V46.467H160.75L163.467,0Z" transform="translate(-69.537 0)" fill="none"/>
    </clipPath>
  </defs>
  <g id="Group_40" data-name="Group 40" transform="translate(7158.865 9595.985)">
    <path id="Path_153" data-name="Path 153" d="M103.9,5.976h-1.35l-1.926,6.84c-.234.792-.648,2.844-.846,3.834h-.144c-.18-.882-.558-2.61-.72-3.15l-2.16-7.524h-1.4L93.175,13.5c-.162.54-.54,2.268-.72,3.15h-.126c-.216-.99-.612-3.06-.846-3.834l-1.944-6.84H88.207l-.072.108L91.483,18h1.71L95.3,10.818c.18-.576.5-2.3.7-3.33h.09c.216,1.026.522,2.754.7,3.33L98.917,18h1.692l3.366-11.916Zm1.566-.252c0,.81.108.99.774.99.684,0,.774-.18.774-.99,0-.828-.09-1.008-.774-1.008C105.577,4.716,105.469,4.9,105.469,5.724Zm.09,2.772V18h1.386V8.5Zm8.136-.144a2.8,2.8,0,0,0-2.61,1.512h-.072l-.5-1.368h-.864V18h1.386V10.674a3.571,3.571,0,0,1,2.79-.918c.2,0,.414,0,.612.018L114.5,9.7V8.478A2.169,2.169,0,0,0,113.695,8.352Zm10.764-3.96c-2.178,0-3.1,1.26-3.1,3.276V8.5h-1.782V9.684h1.782V18h1.368V9.684h2.646V8.5h-2.646V7.2c0-1.08.468-1.494,1.782-1.494a8.067,8.067,0,0,1,1.152.09l.072-.072V4.554A4.569,4.569,0,0,0,124.459,4.392Zm9.2,8.928V11.682a3.141,3.141,0,0,0-3.438-3.366c-2.538,0-4.014,1.566-4.014,4.986,0,3.024.936,4.878,4.374,4.878a6.672,6.672,0,0,0,2.754-.5V16.488l-.072-.072a7.318,7.318,0,0,1-2.646.45c-2.412,0-3.024-.882-3.024-2.61V13.32Zm-3.636-3.69h.18c1.584,0,2.088.54,2.088,1.782v.846h-4.7C127.681,10.35,128.4,9.63,130.021,9.63Zm5.76-3.906c0,.81.108.99.774.99.684,0,.774-.18.774-.99,0-.828-.09-1.008-.774-1.008C135.889,4.716,135.781,4.9,135.781,5.724Zm.09,2.772V18h1.386V8.5Zm11.07,4.824V11.682A3.141,3.141,0,0,0,143.5,8.316c-2.538,0-4.014,1.566-4.014,4.986,0,3.024.936,4.878,4.374,4.878a6.672,6.672,0,0,0,2.754-.5V16.488l-.072-.072a7.318,7.318,0,0,1-2.646.45c-2.412,0-3.024-.882-3.024-2.61V13.32ZM143.3,9.63h.18c1.584,0,2.088.54,2.088,1.782v.846h-4.7C140.965,10.35,141.685,9.63,143.3,9.63Zm9.9-1.278a2.8,2.8,0,0,0-2.61,1.512h-.072l-.5-1.368h-.864V18h1.386V10.674a3.571,3.571,0,0,1,2.79-.918c.2,0,.414,0,.612.018l.072-.072V8.478A2.169,2.169,0,0,0,153.2,8.352Zm6.912-.036a3.059,3.059,0,0,0-2.862,1.548h-.072l-.4-1.368h-.972V18H157.2V10.422a4.148,4.148,0,0,1,2.5-.792c1.548,0,1.962.486,1.962,1.422V18h1.386V11.448C163.051,9.18,161.809,8.316,160.117,8.316Zm15.624-3.744V8.784h-.054a5.343,5.343,0,0,0-2.34-.468c-2.376,0-4.086,1.512-4.086,4.986,0,3.258,1.422,4.878,3.6,4.878a2.775,2.775,0,0,0,2.862-1.566h.054L176.155,18h.972V4.572ZM173.1,16.866c-1.746,0-2.448-.774-2.448-3.024V12.87c0-2.5.81-3.24,2.754-3.24a9.464,9.464,0,0,1,2.34.234V15.93A3.676,3.676,0,0,1,173.1,16.866Zm13.7-3.546V11.682a3.141,3.141,0,0,0-3.438-3.366c-2.538,0-4.014,1.566-4.014,4.986,0,3.024.936,4.878,4.374,4.878a6.672,6.672,0,0,0,2.754-.5V16.488l-.072-.072a7.318,7.318,0,0,1-2.646.45c-2.412,0-3.024-.882-3.024-2.61V13.32Zm-3.636-3.69h.18c1.584,0,2.088.54,2.088,1.782v.846h-4.7C180.817,10.35,181.537,9.63,183.157,9.63Zm10.152-1.314a3.059,3.059,0,0,0-2.862,1.548h-.072l-.4-1.368h-.972V18h1.386V10.422a4.148,4.148,0,0,1,2.5-.792c1.548,0,1.962.486,1.962,1.422V18h1.386V11.448C196.243,9.18,195,8.316,193.309,8.316Zm16.6,5V11.682a3.141,3.141,0,0,0-3.438-3.366c-2.538,0-4.014,1.566-4.014,4.986,0,3.024.936,4.878,4.374,4.878a6.672,6.672,0,0,0,2.754-.5V16.488l-.072-.072a7.318,7.318,0,0,1-2.646.45c-2.412,0-3.024-.882-3.024-2.61V13.32Zm-3.636-3.69h.18c1.584,0,2.088.54,2.088,1.782v.846h-4.7C203.929,10.35,204.649,9.63,206.269,9.63Zm9.9-1.278a2.8,2.8,0,0,0-2.61,1.512h-.072l-.5-1.368h-.864V18H213.5V10.674a3.571,3.571,0,0,1,2.79-.918c.2,0,.414,0,.612.018l.072-.072V8.478A2.169,2.169,0,0,0,216.169,8.352Zm2,2.718c0,1.206.594,2.106,2.232,2.412l1.494.27c1.368.252,1.674.648,1.674,1.386v.144c0,1.08-.54,1.584-2.448,1.584a18.493,18.493,0,0,1-2.61-.234l-.072.054v1.242a14.348,14.348,0,0,0,2.718.234c2.664,0,3.78-1.26,3.78-2.988,0-1.242-.612-2.2-2.358-2.52l-1.476-.27c-1.3-.252-1.566-.558-1.566-1.278V10.98c0-.918.63-1.35,2.52-1.35a14.739,14.739,0,0,1,2.268.2l.072-.054V8.55a11,11,0,0,0-2.3-.216C219.157,8.334,218.167,9.63,218.167,11.07Zm13.842,5.688a11.652,11.652,0,0,1-1.512.108c-1.422,0-1.548-.486-1.548-1.728V9.684h2.97V8.5h-2.97V6.048h-.54l-.846.45v2h-1.422V9.684h1.422v5.094c0,2.052.7,3.4,2.79,3.4a8.179,8.179,0,0,0,1.728-.216V16.83Zm8.838-3.438V11.682a3.141,3.141,0,0,0-3.438-3.366c-2.538,0-4.014,1.566-4.014,4.986,0,3.024.936,4.878,4.374,4.878a6.672,6.672,0,0,0,2.754-.5V16.488l-.072-.072a7.318,7.318,0,0,1-2.646.45c-2.412,0-3.024-.882-3.024-2.61V13.32Zm-3.636-3.69h.18c1.584,0,2.088.54,2.088,1.782v.846h-4.7C234.871,10.35,235.591,9.63,237.211,9.63Zm10.152-1.314A3.059,3.059,0,0,0,244.5,9.864h-.072l-.4-1.368h-.972V18h1.386V10.422a4.148,4.148,0,0,1,2.5-.792c1.548,0,1.962.486,1.962,1.422V18H250.3V11.448C250.3,9.18,249.055,8.316,247.363,8.316ZM257.029,18h1.386V14h3.15c2.322,0,3.672-1.44,3.672-4.176,0-2.646-1.332-3.852-3.96-3.852h-4.248Zm1.386-5.166V7.29h3.078c1.692,0,2.358.7,2.358,2.3v.666c0,1.566-.684,2.574-2.286,2.574Zm11.412-4.518a10.875,10.875,0,0,0-2.646.324V9.864l.072.09A11.441,11.441,0,0,1,269.9,9.63c2,0,2.952.54,2.952,2.142v.99H272.8a14.169,14.169,0,0,0-2.772-.27c-2.412,0-3.312,1.17-3.312,2.79a2.712,2.712,0,0,0,3.042,2.9c1.692,0,2.664-.594,3.06-1.566h.054L273.247,18h.972V12.312C274.219,9.684,273.067,8.316,269.827,8.316Zm.288,8.55H269.9c-1.278,0-1.8-.432-1.8-1.476v-.468c0-.774.36-1.35,1.62-1.35,1.1,0,2.178.054,3.132.09v2.3A3.95,3.95,0,0,1,270.115,16.866Zm11.646-.108a11.652,11.652,0,0,1-1.512.108c-1.422,0-1.548-.486-1.548-1.728V9.684h2.97V8.5H278.7V6.048h-.54l-.846.45v2h-1.422V9.684h1.422v5.094c0,2.052.7,3.4,2.79,3.4a8.179,8.179,0,0,0,1.728-.216V16.83Zm1.782-11.034c0,.81.108.99.774.99.684,0,.774-.18.774-.99,0-.828-.09-1.008-.774-1.008C283.651,4.716,283.543,4.9,283.543,5.724Zm.09,2.772V18h1.386V8.5ZM294.7,13.32V11.682a3.141,3.141,0,0,0-3.438-3.366c-2.538,0-4.014,1.566-4.014,4.986,0,3.024.936,4.878,4.374,4.878a6.672,6.672,0,0,0,2.754-.5V16.488l-.072-.072a7.318,7.318,0,0,1-2.646.45c-2.412,0-3.024-.882-3.024-2.61V13.32Zm-3.636-3.69h.18c1.584,0,2.088.54,2.088,1.782v.846h-4.7C288.727,10.35,289.447,9.63,291.067,9.63Zm10.152-1.314a3.058,3.058,0,0,0-2.862,1.548h-.072l-.4-1.368h-.972V18H298.3V10.422a4.148,4.148,0,0,1,2.5-.792c1.548,0,1.962.486,1.962,1.422V18h1.386V11.448C304.153,9.18,302.911,8.316,301.219,8.316ZM311.7,16.758a11.652,11.652,0,0,1-1.512.108c-1.422,0-1.548-.486-1.548-1.728V9.684h2.97V8.5h-2.97V6.048h-.54l-.846.45v2h-1.422V9.684h1.422v5.094c0,2.052.7,3.4,2.79,3.4a8.179,8.179,0,0,0,1.728-.216V16.83Zm8.838-3.438V11.682A3.141,3.141,0,0,0,317.1,8.316c-2.538,0-4.014,1.566-4.014,4.986,0,3.024.936,4.878,4.374,4.878a6.672,6.672,0,0,0,2.754-.5V16.488l-.072-.072a7.318,7.318,0,0,1-2.646.45c-2.412,0-3.024-.882-3.024-2.61V13.32ZM316.9,9.63h.18c1.584,0,2.088.54,2.088,1.782v.846h-4.7C314.557,10.35,315.277,9.63,316.9,9.63Zm10.152-1.314a3.058,3.058,0,0,0-2.862,1.548h-.072l-.4-1.368h-.972V18h1.386V10.422a4.148,4.148,0,0,1,2.5-.792c1.548,0,1.962.486,1.962,1.422V18h1.386V11.448C329.983,9.18,328.741,8.316,327.049,8.316Zm9.522-2.592c0,.81.108.99.774.99.684,0,.774-.18.774-.99,0-.828-.09-1.008-.774-1.008C336.679,4.716,336.571,4.9,336.571,5.724Zm.09,2.772V18h1.386V8.5Zm8.388-.18a3.058,3.058,0,0,0-2.862,1.548h-.072l-.4-1.368h-.972V18h1.386V10.422a4.148,4.148,0,0,1,2.5-.792c1.548,0,1.962.486,1.962,1.422V18h1.386V11.448C347.983,9.18,346.741,8.316,345.049,8.316ZM356.8,3.2c0,.81.09.99.756.99.684,0,.774-.18.774-.99,0-.828-.09-1.008-.774-1.008C356.893,2.2,356.8,2.376,356.8,3.2Zm3.546,0c0,.81.108.99.774.99s.774-.18.774-.99c0-.828-.108-1.008-.774-1.008S360.349,2.376,360.349,3.2Zm-6.1,8.82c0,3.942,1.872,6.138,5.112,6.138,3.222,0,5.094-2.142,5.094-6.138,0-4.356-2.2-6.21-5.094-6.21S354.247,7.668,354.247,12.024Zm1.476.522V11.43c0-2.736,1.188-4.3,3.636-4.3s3.636,1.566,3.636,4.3v1.116c0,2.682-1.17,4.3-3.636,4.3S355.723,15.246,355.723,12.546Zm10.71-1.476c0,1.206.594,2.106,2.232,2.412l1.494.27c1.368.252,1.674.648,1.674,1.386v.144c0,1.08-.54,1.584-2.448,1.584a18.492,18.492,0,0,1-2.61-.234l-.072.054v1.242a14.348,14.348,0,0,0,2.718.234c2.664,0,3.78-1.26,3.78-2.988,0-1.242-.612-2.2-2.358-2.52l-1.476-.27c-1.3-.252-1.566-.558-1.566-1.278V10.98c0-.918.63-1.35,2.52-1.35a14.739,14.739,0,0,1,2.268.2l.072-.054V8.55a11,11,0,0,0-2.3-.216C367.423,8.334,366.433,9.63,366.433,11.07Zm13.842,5.688a11.652,11.652,0,0,1-1.512.108c-1.422,0-1.548-.486-1.548-1.728V9.684h2.97V8.5h-2.97V6.048h-.54l-.846.45v2h-1.422V9.684h1.422v5.094c0,2.052.7,3.4,2.79,3.4a8.179,8.179,0,0,0,1.728-.216V16.83Zm8.838-3.438V11.682a3.141,3.141,0,0,0-3.438-3.366c-2.538,0-4.014,1.566-4.014,4.986,0,3.024.936,4.878,4.374,4.878a6.672,6.672,0,0,0,2.754-.5V16.488l-.072-.072a7.318,7.318,0,0,1-2.646.45c-2.412,0-3.024-.882-3.024-2.61V13.32Zm-3.636-3.69h.18c1.584,0,2.088.54,2.088,1.782v.846h-4.7C383.137,10.35,383.857,9.63,385.477,9.63Zm9.9-1.278a2.8,2.8,0,0,0-2.61,1.512h-.072l-.5-1.368h-.864V18h1.386V10.674a3.571,3.571,0,0,1,2.79-.918c.2,0,.414,0,.612.018l.072-.072V8.478A2.169,2.169,0,0,0,395.377,8.352Zm6.66,0a2.8,2.8,0,0,0-2.61,1.512h-.072l-.5-1.368h-.864V18h1.386V10.674a3.571,3.571,0,0,1,2.79-.918c.2,0,.414,0,.612.018l.072-.072V8.478A2.169,2.169,0,0,0,402.037,8.352Zm9.126,4.968V11.682a3.141,3.141,0,0,0-3.438-3.366c-2.538,0-4.014,1.566-4.014,4.986,0,3.024.936,4.878,4.374,4.878a6.672,6.672,0,0,0,2.754-.5V16.488l-.072-.072a7.318,7.318,0,0,1-2.646.45c-2.412,0-3.024-.882-3.024-2.61V13.32Zm-3.636-3.69h.18c1.584,0,2.088.54,2.088,1.782v.846h-4.7C405.187,10.35,405.907,9.63,407.527,9.63Zm5.76-3.906c0,.81.108.99.774.99.684,0,.774-.18.774-.99,0-.828-.09-1.008-.774-1.008C413.4,4.716,413.287,4.9,413.287,5.724Zm.09,2.772V18h1.386V8.5Zm3.618,4.752c0,3.15,1.224,4.932,4.23,4.932a7.36,7.36,0,0,0,2.628-.432V16.524l-.09-.072a9.153,9.153,0,0,1-2.5.414c-2.178,0-2.88-.846-2.88-3.24v-.774c0-2.412.882-3.222,2.952-3.222a9.009,9.009,0,0,1,2.142.27l.09-.072V8.622a6.617,6.617,0,0,0-2.052-.306C418.633,8.316,416.995,9.846,416.995,13.248Zm13.158-4.932a3.037,3.037,0,0,0-2.88,1.548h-.036V4.572h-1.386V18h1.386V10.422a4.148,4.148,0,0,1,2.5-.792c1.548,0,1.962.486,1.962,1.422V18h1.386V11.448C433.087,9.18,431.845,8.316,430.153,8.316Zm6.534,7.452c-.864,0-1.008.18-1.008,1.152,0,.954.144,1.134.846,1.134h.144l.018.036c-.36.522-.612.972-1.008,1.584l-1.062,1.638.072.108h1.08l.558-.936a6.479,6.479,0,0,0,1.386-3.33C437.713,16.128,437.5,15.768,436.687,15.768Zm-307.854,14.8v4.212h-.054a5.343,5.343,0,0,0-2.34-.468c-2.376,0-4.086,1.512-4.086,4.986,0,3.258,1.422,4.878,3.6,4.878a2.775,2.775,0,0,0,2.862-1.566h.054L129.247,44h.972V30.572Zm-2.646,12.294c-1.746,0-2.448-.774-2.448-3.024V38.87c0-2.5.81-3.24,2.754-3.24a9.464,9.464,0,0,1,2.34.234V41.93A3.676,3.676,0,0,1,126.187,42.866Zm13.7-3.546V37.682a3.141,3.141,0,0,0-3.438-3.366c-2.538,0-4.014,1.566-4.014,4.986,0,3.024.936,4.878,4.374,4.878a6.672,6.672,0,0,0,2.754-.5V42.488l-.072-.072a7.318,7.318,0,0,1-2.646.45c-2.412,0-3.024-.882-3.024-2.61V39.32Zm-3.636-3.69h.18c1.584,0,2.088.54,2.088,1.782v.846h-4.7C133.909,36.35,134.629,35.63,136.249,35.63Zm9.9-1.278a2.8,2.8,0,0,0-2.61,1.512h-.072l-.5-1.368H142.1V44h1.386V36.674a3.571,3.571,0,0,1,2.79-.918c.2,0,.414,0,.612.018l.072-.072V34.478A2.169,2.169,0,0,0,146.149,34.352Zm10.44,2.34a14.8,14.8,0,0,0-2.268.2l-.054-.018.288-3.582h5.508V31.976h-6.732l-.5,6.084.126.108a17.969,17.969,0,0,1,3.222-.306c2.52,0,3.114.81,3.114,2.142v.342c0,1.71-1.044,2.52-3.1,2.52a10.63,10.63,0,0,1-3.348-.576l-.09.072V43.6a11.543,11.543,0,0,0,3.474.558c2.592,0,4.446-1.134,4.446-4.086C160.675,37.9,159.343,36.692,156.589,36.692Zm9.378,6.048v1.224a8.794,8.794,0,0,0,1.98.234c2.376,0,3.726-1.152,3.726-4.194V31.976h-1.4V40.4c0,1.908-.792,2.484-2.43,2.484a8.622,8.622,0,0,1-1.782-.216Zm11.088-8.424a10.875,10.875,0,0,0-2.646.324v1.224l.072.09a11.442,11.442,0,0,1,2.646-.324c2,0,2.952.54,2.952,2.142v.99h-.054a14.169,14.169,0,0,0-2.772-.27c-2.412,0-3.312,1.17-3.312,2.79a2.712,2.712,0,0,0,3.042,2.9c1.692,0,2.664-.594,3.06-1.566h.054L180.475,44h.972V38.312C181.447,35.684,180.295,34.316,177.055,34.316Zm.288,8.55h-.216c-1.278,0-1.8-.432-1.8-1.476v-.468c0-.774.36-1.35,1.62-1.35,1.1,0,2.178.054,3.132.09v2.3A3.95,3.95,0,0,1,177.343,42.866Zm10.962-8.55a3.037,3.037,0,0,0-2.88,1.548h-.036V30.572H184V44h1.386V36.422a4.148,4.148,0,0,1,2.5-.792c1.548,0,1.962.486,1.962,1.422V44h1.386V37.448C191.239,35.18,190,34.316,188.3,34.316Zm9.522.036a2.8,2.8,0,0,0-2.61,1.512h-.072l-.5-1.368h-.864V44h1.386V36.674a3.571,3.571,0,0,1,2.79-.918c.2,0,.414,0,.612.018l.072-.072V34.478A2.169,2.169,0,0,0,197.827,34.352Zm9.126,4.968V37.682a3.141,3.141,0,0,0-3.438-3.366c-2.538,0-4.014,1.566-4.014,4.986,0,3.024.936,4.878,4.374,4.878a6.672,6.672,0,0,0,2.754-.5V42.488l-.072-.072a7.318,7.318,0,0,1-2.646.45c-2.412,0-3.024-.882-3.024-2.61V39.32Zm-3.636-3.69h.18c1.584,0,2.088.54,2.088,1.782v.846h-4.7C200.977,36.35,201.7,35.63,203.317,35.63Zm14.292-1.314a3.059,3.059,0,0,0-2.862,1.548h-.072l-.4-1.368h-.972V44h1.386V36.422a4.148,4.148,0,0,1,2.5-.792c1.548,0,1.962.486,1.962,1.422V44h1.386V37.448C220.543,35.18,219.3,34.316,217.609,34.316Zm8.262,0a10.875,10.875,0,0,0-2.646.324v1.224l.072.09a11.442,11.442,0,0,1,2.646-.324c2,0,2.952.54,2.952,2.142v.99h-.054a14.169,14.169,0,0,0-2.772-.27c-2.412,0-3.312,1.17-3.312,2.79a2.712,2.712,0,0,0,3.042,2.9c1.692,0,2.664-.594,3.06-1.566h.054L229.291,44h.972V38.312C230.263,35.684,229.111,34.316,225.871,34.316Zm.288,8.55h-.216c-1.278,0-1.8-.432-1.8-1.476v-.468c0-.774.36-1.35,1.62-1.35,1.1,0,2.178.054,3.132.09v2.3A3.95,3.95,0,0,1,226.159,42.866Zm6.192-3.618c0,3.15,1.224,4.932,4.23,4.932a7.361,7.361,0,0,0,2.628-.432V42.524l-.09-.072a9.153,9.153,0,0,1-2.5.414c-2.178,0-2.88-.846-2.88-3.24v-.774c0-2.412.882-3.222,2.952-3.222a9.009,9.009,0,0,1,2.142.27l.09-.072V34.622a6.617,6.617,0,0,0-2.052-.306C233.989,34.316,232.351,35.846,232.351,39.248Zm13.158-4.932a3.037,3.037,0,0,0-2.88,1.548h-.036V30.572h-1.386V44h1.386V36.422a4.148,4.148,0,0,1,2.5-.792c1.548,0,1.962.486,1.962,1.422V44h1.386V37.448C248.443,35.18,247.2,34.316,245.509,34.316Zm15.624-3.744v4.212h-.054a5.343,5.343,0,0,0-2.34-.468c-2.376,0-4.086,1.512-4.086,4.986,0,3.258,1.422,4.878,3.6,4.878a2.775,2.775,0,0,0,2.862-1.566h.054L261.547,44h.972V30.572Zm-2.646,12.294c-1.746,0-2.448-.774-2.448-3.024V38.87c0-2.5.81-3.24,2.754-3.24a9.464,9.464,0,0,1,2.34.234V41.93A3.676,3.676,0,0,1,258.487,42.866Zm13.7-3.546V37.682a3.141,3.141,0,0,0-3.438-3.366c-2.538,0-4.014,1.566-4.014,4.986,0,3.024.936,4.878,4.374,4.878a6.672,6.672,0,0,0,2.754-.5V42.488l-.072-.072a7.318,7.318,0,0,1-2.646.45c-2.412,0-3.024-.882-3.024-2.61V39.32Zm-3.636-3.69h.18c1.584,0,2.088.54,2.088,1.782v.846h-4.7C266.209,36.35,266.929,35.63,268.549,35.63Zm9.9-1.278a2.8,2.8,0,0,0-2.61,1.512h-.072l-.5-1.368H274.4V44h1.386V36.674a3.571,3.571,0,0,1,2.79-.918c.2,0,.414,0,.612.018l.072-.072V34.478A2.169,2.169,0,0,0,278.449,34.352Zm6.8,9.648h4.86c2.106,0,3.51-1.008,3.51-3.456a2.569,2.569,0,0,0-2.394-2.808v-.09A2.445,2.445,0,0,0,293.137,35c0-1.98-1.26-3.024-3.384-3.024h-4.5Zm1.386-6.8V33.29h3.15c1.476,0,1.98.5,1.98,1.728v.288c0,1.134-.45,1.89-1.872,1.89Zm0,5.49v-4.3H289.9c1.89,0,2.34.828,2.34,1.926v.342c0,1.4-.558,2.034-2.016,2.034Zm16.11-3.366V37.682a3.141,3.141,0,0,0-3.438-3.366c-2.538,0-4.014,1.566-4.014,4.986,0,3.024.936,4.878,4.374,4.878a6.672,6.672,0,0,0,2.754-.5V42.488l-.072-.072a7.318,7.318,0,0,1-2.646.45c-2.412,0-3.024-.882-3.024-2.61V39.32Zm-3.636-3.69h.18c1.584,0,2.088.54,2.088,1.782v.846h-4.7C296.773,36.35,297.493,35.63,299.113,35.63Zm10.152-1.314a3.037,3.037,0,0,0-2.88,1.548h-.036V30.572h-1.386V44h1.386V36.422a4.148,4.148,0,0,1,2.5-.792c1.548,0,1.962.486,1.962,1.422V44H312.2V37.448C312.2,35.18,310.957,34.316,309.265,34.316Zm8.262,0a10.876,10.876,0,0,0-2.646.324v1.224l.072.09a11.441,11.441,0,0,1,2.646-.324c2,0,2.952.54,2.952,2.142v.99H320.5a14.169,14.169,0,0,0-2.772-.27c-2.412,0-3.312,1.17-3.312,2.79a2.712,2.712,0,0,0,3.042,2.9c1.692,0,2.664-.594,3.06-1.566h.054L320.947,44h.972V38.312C321.919,35.684,320.767,34.316,317.527,34.316Zm.288,8.55H317.6c-1.278,0-1.8-.432-1.8-1.476v-.468c0-.774.36-1.35,1.62-1.35,1.1,0,2.178.054,3.132.09v2.3A3.95,3.95,0,0,1,317.815,42.866Zm10.962-8.55a3.058,3.058,0,0,0-2.862,1.548h-.072l-.4-1.368h-.972V44h1.386V36.422a4.148,4.148,0,0,1,2.5-.792c1.548,0,1.962.486,1.962,1.422V44h1.386V37.448C331.711,35.18,330.469,34.316,328.777,34.316Zm11.484-3.744v4.212h-.054a5.343,5.343,0,0,0-2.34-.468c-2.376,0-4.086,1.512-4.086,4.986,0,3.258,1.422,4.878,3.6,4.878a2.775,2.775,0,0,0,2.862-1.566h.054L340.675,44h.972V30.572Zm-2.646,12.294c-1.746,0-2.448-.774-2.448-3.024V38.87c0-2.5.81-3.24,2.754-3.24a9.464,9.464,0,0,1,2.34.234V41.93A3.676,3.676,0,0,1,337.615,42.866Zm6.714-12.294V44h1.386V30.572ZM354.1,34.5v7.416a3.7,3.7,0,0,1-2.52.954c-1.35,0-1.944-.414-1.944-1.6V34.5h-1.386v6.372c0,2.358,1.224,3.312,3.006,3.312a2.833,2.833,0,0,0,2.826-1.566h.036l.4,1.386h.972V34.5Zm8.388-.18a3.058,3.058,0,0,0-2.862,1.548h-.072l-.4-1.368h-.972V44h1.386V36.422a4.148,4.148,0,0,1,2.5-.792c1.548,0,1.962.486,1.962,1.422V44h1.386V37.448C365.425,35.18,364.183,34.316,362.491,34.316Zm13.266.18h-3.294a3.686,3.686,0,0,0-1.206-.18,3.167,3.167,0,0,0-3.366,3.438,3.343,3.343,0,0,0,.918,2.484l-.018.054a1.488,1.488,0,0,0-.936,1.53,1.78,1.78,0,0,0,.954,1.764v.036c-.72.126-1.242.7-1.242,1.872,0,1.656.972,2.718,4.1,2.718,2.736,0,4.086-.99,4.086-3.114,0-1.53-.99-2.358-2.7-2.358h-2.808c-.9,0-1.188-.4-1.188-1.062v-.162a1.2,1.2,0,0,1,.324-.864,3.942,3.942,0,0,0,1.872.414,3.033,3.033,0,0,0,3.348-3.312,3.8,3.8,0,0,0-.558-2.088l1.71-.126Zm-2.52,3.672c0,1.1-.45,1.692-1.98,1.692-1.548,0-1.98-.594-1.98-1.692V37.3c0-1.134.414-1.782,1.98-1.782,1.53,0,1.98.63,1.98,1.782ZM370.5,43.91h2.682c.972,0,1.188.378,1.188,1.134v.324c0,1.134-.54,1.548-2.5,1.548h-.5c-1.944,0-2.412-.4-2.412-1.584V45.17a1.685,1.685,0,0,1,.54-1.35A5.515,5.515,0,0,0,370.5,43.91Zm20.3-9.594a2.76,2.76,0,0,0-2.646,1.62h-.072a2.235,2.235,0,0,0-2.376-1.62,2.715,2.715,0,0,0-2.592,1.548h-.072l-.4-1.368h-.972V44h1.386V36.422a3.048,3.048,0,0,1,2.124-.792c1.134,0,1.638.324,1.638,1.26V44h1.386V36.44a3.139,3.139,0,0,1,2.142-.81c1.1,0,1.638.324,1.638,1.26V44h1.386V37.214C393.379,35.234,392.407,34.316,390.8,34.316Zm5.022-2.592c0,.81.108.99.774.99.684,0,.774-.18.774-.99,0-.828-.09-1.008-.774-1.008C395.935,30.716,395.827,30.9,395.827,31.724Zm.09,2.772V44H397.3V34.5Zm9.09,8.262a11.652,11.652,0,0,1-1.512.108c-1.422,0-1.548-.486-1.548-1.728V35.684h2.97V34.5h-2.97V32.048h-.54l-.846.45v2h-1.422v1.188h1.422v5.094c0,2.052.7,3.4,2.79,3.4a8.179,8.179,0,0,0,1.728-.216V42.83ZM105.825,58.084,110,65.3V70h1.386V65.3l4.176-7.218-.072-.108h-1.44l-1.872,3.294c-.36.63-1.08,2.088-1.44,2.826h-.09c-.342-.738-1.062-2.2-1.44-2.826l-1.854-3.294H105.9Zm17.316,7.236V63.682a3.141,3.141,0,0,0-3.438-3.366c-2.538,0-4.014,1.566-4.014,4.986,0,3.024.936,4.878,4.374,4.878a6.672,6.672,0,0,0,2.754-.5V68.488l-.072-.072a7.318,7.318,0,0,1-2.646.45c-2.412,0-3.024-.882-3.024-2.61V65.32Zm-3.636-3.69h.18c1.584,0,2.088.54,2.088,1.782v.846h-4.7C117.165,62.35,117.885,61.63,119.505,61.63Zm5.526,1.44c0,1.206.594,2.106,2.232,2.412l1.494.27c1.368.252,1.674.648,1.674,1.386v.144c0,1.08-.54,1.584-2.448,1.584a18.493,18.493,0,0,1-2.61-.234l-.072.054v1.242a14.349,14.349,0,0,0,2.718.234c2.664,0,3.78-1.26,3.78-2.988,0-1.242-.612-2.2-2.358-2.52l-1.476-.27c-1.3-.252-1.566-.558-1.566-1.278V62.98c0-.918.63-1.35,2.52-1.35a14.739,14.739,0,0,1,2.268.2l.072-.054V60.55a11,11,0,0,0-2.3-.216C126.021,60.334,125.031,61.63,125.031,63.07Zm8.532,2.178c0,3.15,1.224,4.932,4.23,4.932a7.361,7.361,0,0,0,2.628-.432V68.524l-.09-.072a9.153,9.153,0,0,1-2.5.414c-2.178,0-2.88-.846-2.88-3.24v-.774c0-2.412.882-3.222,2.952-3.222a9.009,9.009,0,0,1,2.142.27l.09-.072V60.622a6.617,6.617,0,0,0-2.052-.306C135.2,60.316,133.563,61.846,133.563,65.248Zm11.5-4.932a10.875,10.875,0,0,0-2.646.324v1.224l.072.09a11.442,11.442,0,0,1,2.646-.324c2,0,2.952.54,2.952,2.142v.99h-.054a14.169,14.169,0,0,0-2.772-.27c-2.412,0-3.312,1.17-3.312,2.79a2.712,2.712,0,0,0,3.042,2.9c1.692,0,2.664-.594,3.06-1.566h.054L148.485,70h.972V64.312C149.457,61.684,148.305,60.316,145.065,60.316Zm.288,8.55h-.216c-1.278,0-1.8-.432-1.8-1.476v-.468c0-.774.36-1.35,1.62-1.35,1.1,0,2.178.054,3.132.09v2.3A3.95,3.95,0,0,1,145.353,68.866Zm10.71-8.514a2.8,2.8,0,0,0-2.61,1.512h-.072l-.5-1.368h-.864V70H153.4V62.674a3.571,3.571,0,0,1,2.79-.918c.2,0,.414,0,.612.018l.072-.072V60.478A2.169,2.169,0,0,0,156.063,60.352Zm7.614,8.406a11.653,11.653,0,0,1-1.512.108c-1.422,0-1.548-.486-1.548-1.728V61.684h2.97V60.5h-2.97V58.048h-.54l-.846.45v2h-1.422v1.188h1.422v5.094c0,2.052.7,3.4,2.79,3.4a8.179,8.179,0,0,0,1.728-.216V68.83Zm4.662-8.442a10.875,10.875,0,0,0-2.646.324v1.224l.072.09a11.442,11.442,0,0,1,2.646-.324c2,0,2.952.54,2.952,2.142v.99h-.054a14.169,14.169,0,0,0-2.772-.27c-2.412,0-3.312,1.17-3.312,2.79a2.712,2.712,0,0,0,3.042,2.9c1.692,0,2.664-.594,3.06-1.566h.054L171.759,70h.972V64.312C172.731,61.684,171.579,60.316,168.339,60.316Zm.288,8.55h-.216c-1.278,0-1.8-.432-1.8-1.476v-.468c0-.774.36-1.35,1.62-1.35,1.1,0,2.178.054,3.132.09v2.3A3.95,3.95,0,0,1,168.627,68.866ZM177.591,56.9a3.223,3.223,0,0,0-3.328,3.57c0,2.278,1.333,3.612,3.328,3.612,1.974,0,3.318-1.291,3.318-3.612A3.221,3.221,0,0,0,177.591,56.9Zm0,6.478a2.46,2.46,0,0,1-2.6-2.782v-.252a2.6,2.6,0,1,1,5.2,0V60.6A2.457,2.457,0,0,1,177.591,63.381Zm1.533-3.475a1.125,1.125,0,0,0-1.27-1.176h-1.617v3.528h.819V61.144h.682l.5,1.113h.861l.031-.042-.567-1.228A1.147,1.147,0,0,0,179.124,59.905Zm-2.068-.378h.85c.262,0,.388.073.388.346v.136c0,.262-.074.43-.378.43h-.861Zm13.719-1.8c0,.81.108.99.774.99.684,0,.774-.18.774-.99,0-.828-.09-1.008-.774-1.008C190.883,56.716,190.775,56.9,190.775,57.724Zm.09,2.772V70h1.386V60.5Zm13.212-.18a2.76,2.76,0,0,0-2.646,1.62h-.072a2.235,2.235,0,0,0-2.376-1.62,2.715,2.715,0,0,0-2.592,1.548h-.072l-.4-1.368h-.972V70h1.386V62.422a3.048,3.048,0,0,1,2.124-.792c1.134,0,1.638.324,1.638,1.26V70h1.386V62.44a3.139,3.139,0,0,1,2.142-.81c1.1,0,1.638.324,1.638,1.26V70h1.386V63.214C206.651,61.234,205.679,60.316,204.077,60.316Zm15.57,4.878c1.386-.468,2.07-1.71,2.07-3.564,0-2.376-1.17-3.654-3.8-3.654h-4.536V70h1.386V65.428h3.474L220.421,70H221.9l.018-.108Zm-4.878-5.9h3.33c1.53,0,2.232.558,2.232,2.142v.5c0,1.458-.666,2.322-2.142,2.322h-3.42Zm12.06,1.026a10.875,10.875,0,0,0-2.646.324v1.224l.072.09a11.442,11.442,0,0,1,2.646-.324c2,0,2.952.54,2.952,2.142v.99H229.8a14.169,14.169,0,0,0-2.772-.27c-2.412,0-3.312,1.17-3.312,2.79a2.712,2.712,0,0,0,3.042,2.9c1.692,0,2.664-.594,3.06-1.566h.054L230.249,70h.972V64.312C231.221,61.684,230.069,60.316,226.829,60.316Zm.288,8.55H226.9c-1.278,0-1.8-.432-1.8-1.476v-.468c0-.774.36-1.35,1.62-1.35,1.1,0,2.178.054,3.132.09v2.3A3.95,3.95,0,0,1,227.117,68.866Zm10.962-8.55a3.037,3.037,0,0,0-2.88,1.548h-.036V56.572h-1.386V70h1.386V62.422a4.148,4.148,0,0,1,2.5-.792c1.548,0,1.962.486,1.962,1.422V70h1.386V63.448C241.013,61.18,239.771,60.316,238.079,60.316Zm14.6,0a2.76,2.76,0,0,0-2.646,1.62h-.072a2.235,2.235,0,0,0-2.376-1.62,2.715,2.715,0,0,0-2.592,1.548h-.072l-.4-1.368h-.972V70h1.386V62.422a3.048,3.048,0,0,1,2.124-.792c1.134,0,1.638.324,1.638,1.26V70h1.386V62.44a3.139,3.139,0,0,1,2.142-.81c1.1,0,1.638.324,1.638,1.26V70h1.386V63.214C255.251,61.234,254.279,60.316,252.677,60.316Zm12.1,5V63.682a3.141,3.141,0,0,0-3.438-3.366c-2.538,0-4.014,1.566-4.014,4.986,0,3.024.936,4.878,4.374,4.878a6.672,6.672,0,0,0,2.754-.5V68.488l-.072-.072a7.318,7.318,0,0,1-2.646.45c-2.412,0-3.024-.882-3.024-2.61V65.32Zm-3.636-3.69h.18c1.584,0,2.088.54,2.088,1.782v.846h-4.7C258.8,62.35,259.517,61.63,261.137,61.63Zm10.152-1.314a3.058,3.058,0,0,0-2.862,1.548h-.072l-.4-1.368h-.972V70h1.386V62.422a4.148,4.148,0,0,1,2.5-.792c1.548,0,1.962.486,1.962,1.422V70h1.386V63.448C274.223,61.18,272.981,60.316,271.289,60.316Zm15.624-3.744v4.212h-.054a5.343,5.343,0,0,0-2.34-.468c-2.376,0-4.086,1.512-4.086,4.986,0,3.258,1.422,4.878,3.6,4.878a2.775,2.775,0,0,0,2.862-1.566h.054L287.327,70h.972V56.572Zm-2.646,12.294c-1.746,0-2.448-.774-2.448-3.024V64.87c0-2.5.81-3.24,2.754-3.24a9.464,9.464,0,0,1,2.34.234V67.93A3.676,3.676,0,0,1,284.267,68.866Zm13.7-3.546V63.682a3.141,3.141,0,0,0-3.438-3.366c-2.538,0-4.014,1.566-4.014,4.986,0,3.024.936,4.878,4.374,4.878a6.672,6.672,0,0,0,2.754-.5V68.488l-.072-.072a7.318,7.318,0,0,1-2.646.45c-2.412,0-3.024-.882-3.024-2.61V65.32Zm-3.636-3.69h.18c1.584,0,2.088.54,2.088,1.782v.846h-4.7C291.989,62.35,292.709,61.63,294.329,61.63Zm9.9-1.278a2.8,2.8,0,0,0-2.61,1.512h-.072l-.5-1.368h-.864V70h1.386V62.674a3.571,3.571,0,0,1,2.79-.918c.2,0,.414,0,.612.018l.072-.072V60.478A2.169,2.169,0,0,0,304.229,60.352Zm9.918,4.734L318.3,60.6l-.072-.108h-1.6l-3.708,4.032h-.558V56.572h-1.386V70h1.386V65.716h.558L316.865,70H318.5l.09-.108Zm5.166.216c0,3.042,1.584,4.878,4.086,4.878,2.484,0,4.068-1.836,4.068-4.878,0-3.438-1.818-4.986-4.068-4.986C321.131,60.316,319.313,61.864,319.313,65.3Zm1.386.468v-.99c0-2.124.81-3.15,2.7-3.15,1.872,0,2.682,1.026,2.682,3.15v.99c0,2.034-.774,3.1-2.682,3.1S320.7,67.822,320.7,65.77Zm18.126-5.454a2.76,2.76,0,0,0-2.646,1.62h-.072a2.235,2.235,0,0,0-2.376-1.62,2.715,2.715,0,0,0-2.592,1.548h-.072l-.4-1.368H329.7V70h1.386V62.422a3.048,3.048,0,0,1,2.124-.792c1.134,0,1.638.324,1.638,1.26V70h1.386V62.44a3.139,3.139,0,0,1,2.142-.81c1.1,0,1.638.324,1.638,1.26V70H341.4V63.214C341.4,61.234,340.427,60.316,338.825,60.316Zm14.238,0a2.76,2.76,0,0,0-2.646,1.62h-.072a2.235,2.235,0,0,0-2.376-1.62,2.715,2.715,0,0,0-2.592,1.548H345.3l-.4-1.368h-.972V70h1.386V62.422a3.048,3.048,0,0,1,2.124-.792c1.134,0,1.638.324,1.638,1.26V70h1.386V62.44a3.139,3.139,0,0,1,2.142-.81c1.1,0,1.638.324,1.638,1.26V70h1.386V63.214C355.637,61.234,354.665,60.316,353.063,60.316Zm12.1,5V63.682a3.141,3.141,0,0,0-3.438-3.366c-2.538,0-4.014,1.566-4.014,4.986,0,3.024.936,4.878,4.374,4.878a6.672,6.672,0,0,0,2.754-.5V68.488l-.072-.072a7.318,7.318,0,0,1-2.646.45c-2.412,0-3.024-.882-3.024-2.61V65.32Zm-3.636-3.69h.18c1.584,0,2.088.54,2.088,1.782v.846h-4.7C359.183,62.35,359.9,61.63,361.523,61.63Zm9.9-1.278a2.8,2.8,0,0,0-2.61,1.512h-.072l-.5-1.368h-.864V70h1.386V62.674a3.571,3.571,0,0,1,2.79-.918c.2,0,.414,0,.612.018l.072-.072V60.478A2.169,2.169,0,0,0,371.423,60.352Zm2.16.144v1.188H379v.072c-.432.414-1.332,1.3-1.818,1.89l-3.816,4.914V70h6.894V68.812h-5.706v-.054c.324-.324,1.368-1.386,1.872-2.034l3.834-4.914V60.5Zm8.64-2.772c0,.81.108.99.774.99.684,0,.774-.18.774-.99,0-.828-.09-1.008-.774-1.008C382.331,56.716,382.223,56.9,382.223,57.724Zm.09,2.772V70H383.7V60.5Zm11.07,4.824V63.682a3.141,3.141,0,0,0-3.438-3.366c-2.538,0-4.014,1.566-4.014,4.986,0,3.024.936,4.878,4.374,4.878a6.672,6.672,0,0,0,2.754-.5V68.488l-.072-.072a7.318,7.318,0,0,1-2.646.45c-2.412,0-3.024-.882-3.024-2.61V65.32Zm-3.636-3.69h.18c1.584,0,2.088.54,2.088,1.782v.846h-4.7C387.407,62.35,388.127,61.63,389.747,61.63Zm5.85-5.058V70h1.386V56.572Zm4.086,0V70h1.386V56.572Zm11.07,8.748V63.682a3.141,3.141,0,0,0-3.438-3.366c-2.538,0-4.014,1.566-4.014,4.986,0,3.024.936,4.878,4.374,4.878a6.672,6.672,0,0,0,2.754-.5V68.488l-.072-.072a7.318,7.318,0,0,1-2.646.45c-2.412,0-3.024-.882-3.024-2.61V65.32Zm-3.636-3.69h.18c1.584,0,2.088.54,2.088,1.782v.846h-4.7C404.777,62.35,405.5,61.63,407.117,61.63Zm10.152-1.314a3.058,3.058,0,0,0-2.862,1.548h-.072l-.4-1.368h-.972V70h1.386V62.422a4.148,4.148,0,0,1,2.5-.792c1.548,0,1.962.486,1.962,1.422V70H420.2V63.448C420.2,61.18,418.961,60.316,417.269,60.316ZM170.422,96h8.532V94.686h-7.272v-.054c.4-.4,1.35-1.386,1.656-1.8l5.616-7.434V83.976h-8.37V85.29h7.02v.072c-.378.378-1.476,1.548-1.656,1.782l-5.526,7.326Zm16.146-9.5v7.416a3.7,3.7,0,0,1-2.52.954c-1.35,0-1.944-.414-1.944-1.6V86.5h-1.386v6.372c0,2.358,1.224,3.312,3.006,3.312a2.833,2.833,0,0,0,2.826-1.566h.036l.4,1.386h.972V86.5Zm4.086-3.924V96h1.386V82.572Zm6.876,3.744a10.875,10.875,0,0,0-2.646.324v1.224l.072.09a11.442,11.442,0,0,1,2.646-.324c2,0,2.952.54,2.952,2.142v.99H200.5a14.169,14.169,0,0,0-2.772-.27c-2.412,0-3.312,1.17-3.312,2.79a2.712,2.712,0,0,0,3.042,2.9c1.692,0,2.664-.594,3.06-1.566h.054L200.95,96h.972V90.312C201.922,87.684,200.77,86.316,197.53,86.316Zm.288,8.55H197.6c-1.278,0-1.8-.432-1.8-1.476v-.468c0-.774.36-1.35,1.62-1.35,1.1,0,2.178.054,3.132.09v2.3A3.95,3.95,0,0,1,197.818,94.866Zm6.336-5.8c0,1.206.594,2.106,2.232,2.412l1.494.27c1.368.252,1.674.648,1.674,1.386v.144c0,1.08-.54,1.584-2.448,1.584a18.493,18.493,0,0,1-2.61-.234l-.072.054v1.242a14.348,14.348,0,0,0,2.718.234c2.664,0,3.78-1.26,3.78-2.988,0-1.242-.612-2.2-2.358-2.52l-1.476-.27c-1.3-.252-1.566-.558-1.566-1.278V88.98c0-.918.63-1.35,2.52-1.35a14.739,14.739,0,0,1,2.268.2l.072-.054V86.55a11,11,0,0,0-2.3-.216C205.144,86.334,204.154,87.63,204.154,89.07Zm8.64,0c0,1.206.594,2.106,2.232,2.412l1.494.27c1.368.252,1.674.648,1.674,1.386v.144c0,1.08-.54,1.584-2.448,1.584a18.493,18.493,0,0,1-2.61-.234l-.072.054v1.242a14.348,14.348,0,0,0,2.718.234c2.664,0,3.78-1.26,3.78-2.988,0-1.242-.612-2.2-2.358-2.52l-1.476-.27c-1.3-.252-1.566-.558-1.566-1.278V88.98c0-.918.63-1.35,2.52-1.35a14.739,14.739,0,0,1,2.268.2l.072-.054V86.55a11,11,0,0,0-2.3-.216C213.784,86.334,212.794,87.63,212.794,89.07ZM227.482,86.5v7.416a3.7,3.7,0,0,1-2.52.954c-1.35,0-1.944-.414-1.944-1.6V86.5h-1.386v6.372c0,2.358,1.224,3.312,3.006,3.312a2.833,2.833,0,0,0,2.826-1.566h.036L227.9,96h.972V86.5Zm8.388-.18a3.059,3.059,0,0,0-2.862,1.548h-.072l-.4-1.368h-.972V96h1.386V88.422a4.148,4.148,0,0,1,2.5-.792c1.548,0,1.962.486,1.962,1.422V96H238.8V89.448C238.8,87.18,237.562,86.316,235.87,86.316Zm13.266.18h-3.294a3.686,3.686,0,0,0-1.206-.18,3.167,3.167,0,0,0-3.366,3.438,3.343,3.343,0,0,0,.918,2.484l-.018.054a1.488,1.488,0,0,0-.936,1.53,1.78,1.78,0,0,0,.954,1.764v.036c-.72.126-1.242.7-1.242,1.872,0,1.656.972,2.718,4.1,2.718,2.736,0,4.086-.99,4.086-3.114,0-1.53-.99-2.358-2.7-2.358h-2.808c-.9,0-1.188-.4-1.188-1.062v-.162a1.2,1.2,0,0,1,.324-.864,3.942,3.942,0,0,0,1.872.414,3.033,3.033,0,0,0,3.348-3.312,3.8,3.8,0,0,0-.558-2.088l1.71-.126Zm-2.52,3.672c0,1.1-.45,1.692-1.98,1.692-1.548,0-1.98-.594-1.98-1.692V89.3c0-1.134.414-1.782,1.98-1.782,1.53,0,1.98.63,1.98,1.782ZM243.88,95.91h2.682c.972,0,1.188.378,1.188,1.134v.324c0,1.134-.54,1.548-2.5,1.548h-.5c-1.944,0-2.412-.4-2.412-1.584V97.17a1.685,1.685,0,0,1,.54-1.35A5.515,5.515,0,0,0,243.88,95.91Zm13.968-9.594a10.875,10.875,0,0,0-2.646.324v1.224l.072.09a11.442,11.442,0,0,1,2.646-.324c2,0,2.952.54,2.952,2.142v.99h-.054a14.168,14.168,0,0,0-2.772-.27c-2.412,0-3.312,1.17-3.312,2.79a2.712,2.712,0,0,0,3.042,2.9c1.692,0,2.664-.594,3.06-1.566h.054L261.268,96h.972V90.312C262.24,87.684,261.088,86.316,257.848,86.316Zm.288,8.55h-.216c-1.278,0-1.8-.432-1.8-1.476v-.468c0-.774.36-1.35,1.62-1.35,1.1,0,2.178.054,3.132.09v2.3A3.95,3.95,0,0,1,258.136,94.866Zm15.786-8.55a2.76,2.76,0,0,0-2.646,1.62H271.2a2.235,2.235,0,0,0-2.376-1.62,2.715,2.715,0,0,0-2.592,1.548h-.072l-.4-1.368H264.8V96h1.386V88.422a3.048,3.048,0,0,1,2.124-.792c1.134,0,1.638.324,1.638,1.26V96h1.386V88.44a3.139,3.139,0,0,1,2.142-.81c1.1,0,1.638.324,1.638,1.26V96H276.5V89.214C276.5,87.234,275.524,86.316,273.922,86.316Zm10.692,8.37V83.976h-1.386V96h7.362V94.686ZM298.96,91.32V89.682a3.141,3.141,0,0,0-3.438-3.366c-2.538,0-4.014,1.566-4.014,4.986,0,3.024.936,4.878,4.374,4.878a6.672,6.672,0,0,0,2.754-.5V94.488l-.072-.072a7.318,7.318,0,0,1-2.646.45c-2.412,0-3.024-.882-3.024-2.61V91.32Zm-3.636-3.69h.18c1.584,0,2.088.54,2.088,1.782v.846h-4.7C292.984,88.35,293.7,87.63,295.324,87.63Zm10.134-1.314a3.007,3.007,0,0,0-2.862,1.566h-.09c.036-.828.054-1.692.054-2.088V82.572h-1.386V96h.972l.4-1.332h.036c.36.936,1.134,1.512,2.7,1.512,2.3,0,3.744-1.692,3.744-5.094C309.022,87.63,307.312,86.316,305.458,86.316Zm2.178,5.256c0,2.286-.72,3.294-2.61,3.294a3.28,3.28,0,0,1-2.466-.846V88.458a4.087,4.087,0,0,1,2.538-.828c1.8,0,2.538.648,2.538,2.988Zm10.62-.252V89.682a3.141,3.141,0,0,0-3.438-3.366c-2.538,0-4.014,1.566-4.014,4.986,0,3.024.936,4.878,4.374,4.878a6.672,6.672,0,0,0,2.754-.5V94.488l-.072-.072a7.318,7.318,0,0,1-2.646.45c-2.412,0-3.024-.882-3.024-2.61V91.32Zm-3.636-3.69h.18c1.584,0,2.088.54,2.088,1.782v.846h-4.7C312.28,88.35,313,87.63,314.62,87.63Zm10.152-1.314a3.058,3.058,0,0,0-2.862,1.548h-.072l-.4-1.368h-.972V96h1.386V88.422a4.148,4.148,0,0,1,2.5-.792c1.548,0,1.962.486,1.962,1.422V96h1.386V89.448C327.706,87.18,326.464,86.316,324.772,86.316Zm9.522-2.592c0,.81.108.99.774.99.684,0,.774-.18.774-.99,0-.828-.09-1.008-.774-1.008C334.4,82.716,334.294,82.9,334.294,83.724Zm.09,2.772V96h1.386V86.5Zm3.762,2.574c0,1.206.594,2.106,2.232,2.412l1.494.27c1.368.252,1.674.648,1.674,1.386v.144c0,1.08-.54,1.584-2.448,1.584a18.493,18.493,0,0,1-2.61-.234l-.072.054v1.242a14.349,14.349,0,0,0,2.718.234c2.664,0,3.78-1.26,3.78-2.988,0-1.242-.612-2.2-2.358-2.52l-1.476-.27c-1.3-.252-1.566-.558-1.566-1.278V88.98c0-.918.63-1.35,2.52-1.35a14.738,14.738,0,0,1,2.268.2l.072-.054V86.55a11,11,0,0,0-2.3-.216C339.136,86.334,338.146,87.63,338.146,89.07Zm13.842,5.688a11.653,11.653,0,0,1-1.512.108c-1.422,0-1.548-.486-1.548-1.728V87.684h2.97V86.5h-2.97V84.048h-.54l-.846.45v2H346.12v1.188h1.422v5.094c0,2.052.7,3.4,2.79,3.4a8.179,8.179,0,0,0,1.728-.216V94.83Zm1.926.162c0,.954.144,1.134.918,1.134s.9-.18.9-1.134c0-.972-.126-1.152-.9-1.152S353.914,93.948,353.914,94.92Z" transform="translate(-7247 -9423)" fill="#3c1053"/>
    <g id="Group_39" data-name="Group 39" transform="translate(-7138.547 -9245.198)">
      <path id="Path_71" data-name="Path 71" d="M360.861,3.839l7,12.111,7.01-12.111Z" transform="translate(-79.339 -0.844)" fill="#3c1053"/>
      <path id="Path_72" data-name="Path 72" d="M79.787,23.128,72.456,5.788H81.1l3.707,9.267h.083l7-9.267h9.556l-13.51,17.34L85.924,34.618H77.768Z" transform="translate(-15.93 -1.272)" fill="#3c1053"/>
      <path id="Path_73" data-name="Path 73" d="M111.088,5.788h21.376l-1.235,6.837H117.966l-.823,4.408h11.739l-1.071,5.931h-11.7l-.865,4.819h13.468l-1.236,6.837h-21.5Z" transform="translate(-23.301 -1.272)" fill="#3c1053"/>
      <g id="Group_21" data-name="Group 21" transform="translate(0 0)">
        <g id="Group_20" data-name="Group 20" clip-path="url(#clip-path)">
          <path id="Path_74" data-name="Path 74" d="M142.405,25.449a14.3,14.3,0,0,0,7.661,2.636c2.141,0,3.46-.947,3.46-2.224,0-1.606-2.1-2.018-4.778-2.925-3.543-1.153-7.5-2.8-7.5-8.237,0-5.354,4.324-9.6,11.779-9.6a21.6,21.6,0,0,1,10.709,3.007l-3.625,5.849a14.6,14.6,0,0,0-7.126-1.977c-2.018,0-3.212.947-3.212,2.183,0,1.524,1.977,1.977,4.53,2.8,3.5,1.153,7.7,2.553,7.7,8.279,0,5.478-4,9.761-12.315,9.761a20.1,20.1,0,0,1-11.615-3.954Z" transform="translate(-30.359 -1.122)" fill="#3c1053"/>
          <path id="Path_75" data-name="Path 75" d="M188.921,5.1a14.835,14.835,0,0,1,10.956,4.366L195.222,14.2a9.018,9.018,0,0,0-6.26-2.429c-4.613,0-8.526,4.2-8.526,9.515,0,4.572,2.595,7.042,6.137,7.042a9.694,9.694,0,0,0,6.631-2.883l4.2,5.189A16.187,16.187,0,0,1,185.955,35c-7.66,0-13.715-4.695-13.715-13.386A16.32,16.32,0,0,1,188.921,5.1" transform="translate(-37.869 -1.122)" fill="#3c1053"/>
          <path id="Path_76" data-name="Path 76" d="M219.536,5.787h9.021l4.613,28.832h-8.156l-.494-4.283h-8.856l-1.936,4.283h-9.021Zm-1.194,18.659h5.477l-1.07-9.432h-.082Z" transform="translate(-45.007 -1.272)" fill="#3c1053"/>
          <path id="Path_77" data-name="Path 77" d="M249.518,5.787h12.274c6.755,0,10.709,3.5,10.709,8.732,0,3.254-1.318,7.043-6.425,8.855l2.677,11.244h-7.661L259.115,24.4h-4.778l-1.812,10.214h-8.114ZM259.856,18.8c2.553,0,4.366-1.565,4.366-4,0-1.895-1.2-2.842-3.172-2.842h-4.53l-1.2,6.837Z" transform="translate(-53.737 -1.272)" fill="#3c1053"/>
          <path id="Path_78" data-name="Path 78" d="M291.649,12.79h-8.856l1.2-7h25.33l-1.194,7H299.68l-3.83,21.829h-8.073Z" transform="translate(-62.175 -1.273)" fill="#3c1053"/>
          <path id="Path_79" data-name="Path 79" d="M323.281,5.787H332.3l4.613,28.832h-8.156l-.495-4.283h-8.855l-1.936,4.283h-9.021Zm-1.194,18.659h5.477l-1.07-9.432h-.082Z" transform="translate(-67.817 -1.272)" fill="#3c1053"/>
          <path id="Path_80" data-name="Path 80" d="M82.137,51.5a24.121,24.121,0,0,0-2.914,12.189,24.209,24.209,0,0,0,2.914,12.189h-1.1c-1.414-2.282-3-6.275-3-12.189,0-5.945,1.584-9.937,3-12.189Z" transform="translate(-17.157 -11.322)" fill="#3c1053"/>
          <path id="Path_81" data-name="Path 81" d="M92.229,70.755A29.437,29.437,0,0,0,92.343,74H91.211L91.1,72.406h-.085a2.8,2.8,0,0,1-2.546,1.831c-1.669,0-3-1.5-3-3.963,0-3.482,2.461-5.1,5.544-5.133V64.6c0-2.462-.367-4.113-2.348-4.113a3.221,3.221,0,0,0-1.923.69l-.339-.99a4.119,4.119,0,0,1,2.518-.841c1.839,0,3.309,1.141,3.309,4.593Zm-1.216-4.5c-1.046,0-4.271.09-4.271,3.933,0,2.162.99,2.912,1.895,2.912,1.16,0,2.065-.991,2.32-2.732a5.525,5.525,0,0,0,.056-.931Z" transform="translate(-18.791 -13.048)" fill="#3c1053"/>
          <path id="Path_82" data-name="Path 82" d="M99.056,59.654l1.528,3.422c.368.811.679,1.621,1.047,2.582h.057c.367-1.02.764-1.832,1.075-2.582l1.471-3.422h1.329l-3.337,7.116,3.253,7.3h-1.33l-1.528-3.6c-.339-.781-.623-1.531-1.047-2.642h-.056c-.339.96-.708,1.771-1.075,2.642l-1.528,3.6h-1.3l3.366-7.3-3.225-7.116Z" transform="translate(-21.462 -13.116)" fill="#3c1053"/>
          <path id="Path_83" data-name="Path 83" d="M111.616,55.718c-.509,0-.877-.42-.877-1.11,0-.661.368-1.112.906-1.112.622,0,.933.451.933,1.112,0,.69-.311,1.11-.933,1.11ZM111.05,58.3h1.216V72.711H111.05Z" transform="translate(-24.347 -11.762)" fill="#3c1053"/>
          <path id="Path_84" data-name="Path 84" d="M123.672,73.577a3.979,3.979,0,0,1-2.207.6c-2.659,0-4.526-2.553-4.526-7.356,0-3.933,1.669-7.475,4.838-7.475a3.627,3.627,0,0,1,1.867.51l-.4,1.141a3.152,3.152,0,0,0-1.67-.48c-2.432,0-3.366,3.362-3.366,6.394,0,3.843,1.33,6.124,3.48,6.124a3.352,3.352,0,0,0,1.7-.45Z" transform="translate(-25.71 -13.048)" fill="#3c1053"/>
          <path id="Path_85" data-name="Path 85" d="M134.65,70.755A29.433,29.433,0,0,0,134.764,74h-1.132l-.113-1.591h-.085a2.8,2.8,0,0,1-2.546,1.831c-1.669,0-3-1.5-3-3.963,0-3.482,2.461-5.1,5.544-5.133V64.6c0-2.462-.367-4.113-2.348-4.113a3.221,3.221,0,0,0-1.923.69l-.339-.99a4.119,4.119,0,0,1,2.518-.841c1.839,0,3.309,1.141,3.309,4.593Zm-1.216-4.5c-1.046,0-4.271.09-4.271,3.933,0,2.162.99,2.912,1.895,2.912,1.16,0,2.065-.991,2.32-2.732a5.524,5.524,0,0,0,.056-.931Z" transform="translate(-28.118 -13.048)" fill="#3c1053"/>
          <path id="Path_86" data-name="Path 86" d="M141.6,51.5h1.216v8.2h.056a2.956,2.956,0,0,1,2.886-2.07c1.811,0,3.65,2.191,3.65,7.445,0,5.314-2.122,7.445-3.933,7.445a2.819,2.819,0,0,1-2.716-2.251h-.113l-.113,2.011h-1.047c.029-.541.114-2.221.114-2.942Zm1.216,15.732a4.374,4.374,0,0,0,.056.87c.623,2.823,1.811,3.273,2.518,3.273,2.065,0,2.744-3.063,2.744-6.3,0-3.153-.708-6.3-2.8-6.3-1.272,0-2.319,1.771-2.489,3.362-.028.36-.028.691-.028,1.051Z" transform="translate(-31.107 -11.322)" fill="#3c1053"/>
          <path id="Path_87" data-name="Path 87" d="M157.125,55.614v3.152H159.7v1.111h-2.574v9.817c0,2.011.623,2.552,1.442,2.552a3.024,3.024,0,0,0,.821-.09l.141.991a2.646,2.646,0,0,1-1.216.21,2.092,2.092,0,0,1-1.811-.841c-.424-.6-.594-1.471-.594-3.3V59.877h-1.7V58.766h1.7v-2.4Z" transform="translate(-33.905 -12.228)" fill="#3c1053"/>
          <path id="Path_88" data-name="Path 88" d="M170.4,70.755A29.433,29.433,0,0,0,170.513,74h-1.132l-.113-1.591h-.085a2.8,2.8,0,0,1-2.546,1.831c-1.669,0-3-1.5-3-3.963,0-3.482,2.461-5.1,5.544-5.133V64.6c0-2.462-.367-4.113-2.348-4.113a3.221,3.221,0,0,0-1.923.69l-.339-.99a4.119,4.119,0,0,1,2.518-.841c1.839,0,3.309,1.141,3.309,4.593Zm-1.216-4.5c-1.046,0-4.271.09-4.271,3.933,0,2.162.99,2.912,1.895,2.912,1.16,0,2.065-.991,2.32-2.732a5.525,5.525,0,0,0,.056-.931Z" transform="translate(-35.978 -13.048)" fill="#3c1053"/>
          <path id="Path_89" data-name="Path 89" d="M184.353,71.985c0,4.233-.4,5.524-1.16,6.515a3.866,3.866,0,0,1-3.112,1.5,5.255,5.255,0,0,1-2.744-.72l.4-1.081a5.113,5.113,0,0,0,2.489.661c1.641,0,2.914-1.051,2.914-4.984v-1.83h-.056A2.776,2.776,0,0,1,180.393,74c-2.009,0-3.848-2.462-3.848-7.2,0-5.644,2.405-7.446,4.1-7.446a2.737,2.737,0,0,1,2.546,1.951h.057l.056-1.712h1.16c-.029.781-.113,1.921-.113,4.444Zm-1.217-7.625a4.273,4.273,0,0,0-.085-1.052c-.282-1.2-.848-2.822-2.461-2.822-1.725,0-2.772,2.462-2.772,6.185,0,4.323,1.329,6.184,2.8,6.184.793,0,1.868-.36,2.4-2.7a6.46,6.46,0,0,0,.113-1.411Z" transform="translate(-38.815 -13.048)" fill="#3c1053"/>
          <path id="Path_90" data-name="Path 90" d="M192,66.252c0,5.794,1.895,6.784,3.423,6.784a3.485,3.485,0,0,0,2.036-.569l.283.99a4.484,4.484,0,0,1-2.546.721c-2.97,0-4.441-2.972-4.441-7.326,0-4.563,1.556-7.5,4.045-7.5,2.688,0,3.422,3.512,3.422,6.064v.841Zm4.923-1.051c.056-3.543-1.33-4.714-2.32-4.714-1.584,0-2.432,2.4-2.574,4.714Z" transform="translate(-41.94 -13.048)" fill="#3c1053"/>
          <path id="Path_91" data-name="Path 91" d="M204.323,62.919c0-1.771-.086-2.312-.114-3.333h1.1l.058,1.772h.056a3.19,3.19,0,0,1,3-2.011c1.442,0,3.083,1.02,3.083,4.683V74h-1.216V64.54c0-2.042-.339-4.083-2.235-4.083-1.1,0-2.178,1.021-2.461,3a9.027,9.027,0,0,0-.056,1.261V74h-1.216Z" transform="translate(-44.898 -13.048)" fill="#3c1053"/>
          <path id="Path_92" data-name="Path 92" d="M219.05,66.252c0,5.794,1.895,6.784,3.423,6.784a3.49,3.49,0,0,0,2.037-.569l.282.99a4.482,4.482,0,0,1-2.546.721c-2.97,0-4.441-2.972-4.441-7.326,0-4.563,1.556-7.5,4.045-7.5,2.688,0,3.422,3.512,3.422,6.064v.841Zm4.923-1.051c.056-3.543-1.33-4.714-2.32-4.714-1.584,0-2.432,2.4-2.574,4.714Z" transform="translate(-47.887 -13.048)" fill="#3c1053"/>
          <path id="Path_93" data-name="Path 93" d="M243.718,73.577a3.975,3.975,0,0,1-2.206.6c-2.66,0-4.526-2.553-4.526-7.356,0-3.933,1.669-7.475,4.838-7.475a3.629,3.629,0,0,1,1.867.51l-.4,1.141a3.148,3.148,0,0,0-1.669-.48c-2.432,0-3.366,3.362-3.366,6.394,0,3.843,1.329,6.124,3.479,6.124a3.353,3.353,0,0,0,1.7-.45Z" transform="translate(-52.104 -13.048)" fill="#3c1053"/>
          <path id="Path_94" data-name="Path 94" d="M249.646,55.718c-.509,0-.877-.42-.877-1.11,0-.661.368-1.112.9-1.112.623,0,.934.451.934,1.112,0,.69-.311,1.11-.934,1.11ZM249.08,58.3H250.3V72.711H249.08Z" transform="translate(-54.695 -11.762)" fill="#3c1053"/>
          <rect id="Rectangle_79" data-name="Rectangle 79" width="1.216" height="20.775" transform="translate(199.591 40.174)" fill="#3c1053"/>
          <path id="Path_95" data-name="Path 95" d="M265.935,74.238c-1.924,0-3.932-2.131-3.932-7.445s2.008-7.446,4.13-7.446c1.923,0,3.9,2.131,3.9,7.446s-2.009,7.445-4.074,7.445Zm.113-1.141c2.291,0,2.716-3.963,2.716-6.3s-.424-6.305-2.772-6.305c-2.292,0-2.716,3.963-2.716,6.305s.424,6.3,2.745,6.3Z" transform="translate(-57.604 -13.048)" fill="#3c1053"/>
          <rect id="Rectangle_80" data-name="Rectangle 80" width="1.216" height="20.775" transform="translate(215.741 40.174)" fill="#3c1053"/>
          <path id="Path_96" data-name="Path 96" d="M283.949,66.252c0,5.794,1.895,6.784,3.423,6.784a3.49,3.49,0,0,0,2.037-.569l.282.99a4.482,4.482,0,0,1-2.546.721c-2.97,0-4.441-2.972-4.441-7.326,0-4.563,1.556-7.5,4.045-7.5,2.688,0,3.422,3.512,3.422,6.064v.841Zm4.923-1.051c.056-3.543-1.33-4.714-2.32-4.714-1.584,0-2.432,2.4-2.574,4.714Z" transform="translate(-62.156 -13.048)" fill="#3c1053"/>
          <path id="Path_97" data-name="Path 97" d="M303.309,70.432c0,1.621.085,2.733.113,3.632h-1.1l-.113-1.5h-.057a3.359,3.359,0,0,1-2.772,1.742c-2.235,0-3.112-1.921-3.112-5.314V59.654h1.216V68.72c0,2.493.339,4.473,2.122,4.473,1.7,0,2.347-1.74,2.432-2.521a10.256,10.256,0,0,0,.057-1.322v-9.7h1.216Z" transform="translate(-65.137 -13.116)" fill="#3c1053"/>
          <path id="Path_98" data-name="Path 98" d="M316.195,73.577a3.973,3.973,0,0,1-2.206.6c-2.659,0-4.526-2.553-4.526-7.356,0-3.933,1.669-7.475,4.838-7.475a3.626,3.626,0,0,1,1.866.51L315.77,61a3.146,3.146,0,0,0-1.669-.48c-2.432,0-3.366,3.362-3.366,6.394,0,3.843,1.329,6.124,3.479,6.124a3.348,3.348,0,0,0,1.7-.45Z" transform="translate(-68.039 -13.048)" fill="#3c1053"/>
          <path id="Path_99" data-name="Path 99" d="M321.693,66.252c0,5.794,1.895,6.784,3.423,6.784a3.49,3.49,0,0,0,2.037-.569l.282.99a4.482,4.482,0,0,1-2.546.721c-2.97,0-4.441-2.972-4.441-7.326,0-4.563,1.556-7.5,4.045-7.5,2.688,0,3.422,3.512,3.422,6.064v.841Zm4.923-1.051c.056-3.543-1.33-4.714-2.32-4.714-1.584,0-2.432,2.4-2.574,4.714Z" transform="translate(-70.454 -13.048)" fill="#3c1053"/>
          <rect id="Rectangle_81" data-name="Rectangle 81" width="1.216" height="20.775" transform="translate(260.602 40.174)" fill="#3c1053"/>
          <path id="Path_100" data-name="Path 100" d="M340.027,75.874a24.2,24.2,0,0,0,2.914-12.189A24.114,24.114,0,0,0,340.027,51.5h1.1c1.414,2.251,3,6.243,3,12.189,0,5.913-1.585,9.907-3,12.189Z" transform="translate(-74.759 -11.322)" fill="#3c1053"/>
          <path id="Path_101" data-name="Path 101" d="M1.715,30.658A178.152,178.152,0,0,1,47.51,22.575a177.514,177.514,0,0,1-45.842-7.8,19.484,19.484,0,0,0,.047,15.881" transform="translate(0 -3.249)" fill="#ff8674"/>
          <path id="Path_102" data-name="Path 102" d="M18.637,3.123A19.4,19.4,0,0,1,48.253,15.767a63.672,63.672,0,0,0,7.18,2.588,63.193,63.193,0,0,1-36.8-15.231M21.9,37.412a19.765,19.765,0,0,1-3.167-1.64A63.187,63.187,0,0,1,55.438,20.324a63.579,63.579,0,0,0-7.165,2.631A19.423,19.423,0,0,1,29.238,38.833,19.179,19.179,0,0,1,21.9,37.412" transform="translate(-4.098 0)" fill="#3c1053"/>
          <path id="Path_103" data-name="Path 103" d="M349.523,4.995a4.34,4.34,0,1,1-4.334,4.346,4.353,4.353,0,0,1,4.334-4.346m.012,7.962a3.628,3.628,0,1,0-3.616-3.616,3.631,3.631,0,0,0,3.616,3.616m-1.808-5.879h2.167c1.245,0,1.712.731,1.712,1.473a1.367,1.367,0,0,1-.862,1.281c.229.384.731,1.4.958,1.748h-1.112l-.827-1.628h-1.006V11.58h-1.03Zm2.06,2.1c.6,0,.8-.335.8-.623,0-.323-.2-.658-.8-.658h-1.03V9.173Z" transform="translate(-75.894 -1.098)" fill="#3c1053"/>
          <rect id="Rectangle_82" data-name="Rectangle 82" width="0.962" height="7.886" transform="translate(273.489 40.575)" fill="#3c1053"/>
          <path id="Path_104" data-name="Path 104" d="M353.322,56.3c0-.667-.037-1.006-.049-1.463h.837l.049.679h.025a1.553,1.553,0,0,1,1.388-.772c.838,0,1.463.573,1.463,1.954v3.8h-.963V56.846c0-.679-.137-1.346-.838-1.346-.4,0-.787.316-.9.924a1.915,1.915,0,0,0-.051.5V60.5h-.962Z" transform="translate(-77.671 -12.035)" fill="#3c1053"/>
          <path id="Path_105" data-name="Path 105" d="M359.546,59.81V54.825h-.763v-.679h.763V53.8a2.371,2.371,0,0,1,.537-1.7,1.7,1.7,0,0,1,1.213-.48,1.788,1.788,0,0,1,.75.14l-.15.7a1.44,1.44,0,0,0-.538-.094c-.688,0-.85.69-.85,1.416v.363h1.1v.679h-1.1V59.81Z" transform="translate(-78.882 -11.349)" fill="#3c1053"/>
          <path id="Path_106" data-name="Path 106" d="M366.453,58.978c0,.62.037,1.123.049,1.545h-.837l-.075-.6h-.025a1.566,1.566,0,0,1-1.287.69c-1.05,0-1.475-.772-1.475-2.177V54.859h.963v3.452c0,.878.15,1.545.813,1.545a.905.905,0,0,0,.862-.761,2.1,2.1,0,0,0,.05-.5V54.859h.963Z" transform="translate(-79.766 -12.062)" fill="#3c1053"/>
          <path id="Path_107" data-name="Path 107" d="M368.615,59.561a2.006,2.006,0,0,0,.975.293.8.8,0,0,0,.888-.819c0-.433-.162-.737-.775-1.112-.787-.48-1.213-.971-1.213-1.615a1.57,1.57,0,0,1,1.663-1.568,2.019,2.019,0,0,1,1.074.293l-.25.679a1.445,1.445,0,0,0-.813-.257.716.716,0,0,0-.775.726c0,.374.15.6.75.971a2.094,2.094,0,0,1,1.251,1.732,1.644,1.644,0,0,1-1.826,1.685,2.155,2.155,0,0,1-1.187-.328Z" transform="translate(-80.992 -12.035)" fill="#3c1053"/>
          <path id="Path_108" data-name="Path 108" d="M373.622,53.4a.546.546,0,0,1-.55-.585.556.556,0,0,1,.562-.585.585.585,0,0,1,0,1.17Zm-.45.878h.962v5.664h-.962Z" transform="translate(-82.024 -11.484)" fill="#3c1053"/>
          <path id="Path_109" data-name="Path 109" d="M377.454,60.59c-1.087,0-1.963-.924-1.963-2.914,0-2.071.988-2.937,2.025-2.937,1.087,0,1.95.936,1.95,2.914,0,2.2-1.075,2.937-2,2.937Zm.05-.714c.825,0,1-1.322,1-2.212s-.175-2.212-1.024-2.212-1.026,1.334-1.026,2.212c0,.936.176,2.212,1.038,2.212Z" transform="translate(-82.556 -12.035)" fill="#3c1053"/>
          <path id="Path_110" data-name="Path 110" d="M381.629,56.3c0-.667-.038-1.006-.05-1.463h.837l.05.679h.025a1.552,1.552,0,0,1,1.388-.772c.837,0,1.462.573,1.462,1.954v3.8h-.963V56.846c0-.679-.137-1.346-.837-1.346-.4,0-.788.316-.9.924a1.883,1.883,0,0,0-.051.5V60.5h-.962Z" transform="translate(-83.894 -12.035)" fill="#3c1053"/>
          <path id="Path_111" data-name="Path 111" d="M387.535,59.561a2.006,2.006,0,0,0,.975.293.8.8,0,0,0,.888-.819c0-.433-.162-.737-.775-1.112-.788-.48-1.213-.971-1.213-1.615a1.57,1.57,0,0,1,1.662-1.568,2.022,2.022,0,0,1,1.075.293l-.25.679a1.442,1.442,0,0,0-.812-.257.716.716,0,0,0-.775.726c0,.374.15.6.75.971a2.093,2.093,0,0,1,1.251,1.732,1.644,1.644,0,0,1-1.826,1.685,2.155,2.155,0,0,1-1.187-.328Z" transform="translate(-85.152 -12.035)" fill="#3c1053"/>
          <rect id="Rectangle_83" data-name="Rectangle 83" width="2.738" height="0.69" transform="translate(305.608 45.056)" fill="#3c1053"/>
          <path id="Path_112" data-name="Path 112" d="M354.044,67.74v6.74c0,.386.038,1.03.051,1.357h-.825l-.062-.7h-.05a1.388,1.388,0,0,1-1.262.8c-1.025,0-1.762-1.03-1.762-2.9,0-2.013.887-2.949,1.825-2.949a1.167,1.167,0,0,1,1.1.667h.025V67.74Zm-.962,4.586c0-.117,0-.246-.012-.374-.05-.585-.438-1.1-.9-1.1-.8,0-1.075,1.041-1.075,2.177,0,1.194.325,2.153,1.026,2.153.3,0,.712-.152.924-.971a1.162,1.162,0,0,0,.037-.374Z" transform="translate(-76.98 -14.894)" fill="#3c1053"/>
          <path id="Path_113" data-name="Path 113" d="M356.961,69.4a.546.546,0,0,1-.55-.585.557.557,0,0,1,.563-.585.585.585,0,0,1,0,1.17Zm-.449.878h.962v5.664h-.962Z" transform="translate(-78.361 -15.002)" fill="#3c1053"/>
          <path id="Path_114" data-name="Path 114" d="M358.892,75.561a2,2,0,0,0,.975.293.8.8,0,0,0,.887-.819c0-.433-.162-.737-.775-1.112-.787-.48-1.212-.971-1.212-1.615a1.569,1.569,0,0,1,1.662-1.568,2.024,2.024,0,0,1,1.075.293l-.25.679a1.443,1.443,0,0,0-.813-.257.717.717,0,0,0-.775.726c0,.374.151.6.75.971a2.093,2.093,0,0,1,1.251,1.732,1.644,1.644,0,0,1-1.825,1.685,2.16,2.16,0,0,1-1.188-.328Z" transform="translate(-78.854 -15.553)" fill="#3c1053"/>
          <path id="Path_115" data-name="Path 115" d="M363.446,72.6c0-.866-.037-1.369-.051-1.767h.863l.05.714h.025a1.41,1.41,0,0,1,1.275-.807c1.063,0,1.75,1.041,1.75,2.914,0,2.106-.924,2.937-1.862,2.937a1.142,1.142,0,0,1-1.063-.644h-.025v2.8h-.962Zm.962,1.826a1.866,1.866,0,0,0,.05.468c.188.807.613.948.875.948.8,0,1.063-1.03,1.063-2.165,0-1.182-.3-2.165-1.063-2.165-.438,0-.838.515-.888,1.03a1.65,1.65,0,0,0-.037.433Z" transform="translate(-79.896 -15.553)" fill="#3c1053"/>
          <path id="Path_116" data-name="Path 116" d="M370.147,73.746c.013,1.744.739,2.106,1.425,2.106a2.274,2.274,0,0,0,1-.211l.162.655a3.106,3.106,0,0,1-1.338.269c-1.437,0-2.187-1.1-2.187-2.844,0-1.837.825-2.984,2.038-2.984s1.725,1.217,1.725,2.493a5.048,5.048,0,0,1-.026.515Zm1.9-.667c.012-1.135-.438-1.638-.9-1.638-.625,0-.949.866-.988,1.638Z" transform="translate(-81.175 -15.553)" fill="#3c1053"/>
          <path id="Path_117" data-name="Path 117" d="M375.011,72.3c0-.48-.037-1.041-.049-1.463h.862l.049.889h.026a1.455,1.455,0,0,1,1.275-.983,1.075,1.075,0,0,1,.2.012v.924a1.076,1.076,0,0,0-.2-.012,1.263,1.263,0,0,0-1.162,1.182,3.128,3.128,0,0,0-.037.515V76.5h-.963Z" transform="translate(-82.44 -15.553)" fill="#3c1053"/>
          <path id="Path_118" data-name="Path 118" d="M378.418,75.561a2.006,2.006,0,0,0,.975.293.8.8,0,0,0,.888-.819c0-.433-.162-.737-.775-1.112-.788-.48-1.213-.971-1.213-1.615a1.57,1.57,0,0,1,1.662-1.568,2.022,2.022,0,0,1,1.075.293l-.25.679a1.442,1.442,0,0,0-.812-.257.716.716,0,0,0-.775.726c0,.374.15.6.75.971a2.093,2.093,0,0,1,1.251,1.732,1.644,1.644,0,0,1-1.826,1.685,2.155,2.155,0,0,1-1.187-.328Z" transform="translate(-83.147 -15.553)" fill="#3c1053"/>
          <path id="Path_119" data-name="Path 119" d="M383.425,69.4a.546.546,0,0,1-.55-.585.556.556,0,0,1,.563-.585.585.585,0,0,1,0,1.17Zm-.45.878h.962v5.664h-.962Z" transform="translate(-84.179 -15.002)" fill="#3c1053"/>
          <path id="Path_120" data-name="Path 120" d="M387.257,76.59c-1.088,0-1.963-.924-1.963-2.914,0-2.071.988-2.937,2.025-2.937,1.087,0,1.95.936,1.95,2.914,0,2.2-1.075,2.937-2,2.937Zm.05-.714c.825,0,1-1.322,1-2.212s-.175-2.212-1.024-2.212-1.026,1.334-1.026,2.212c0,.936.176,2.212,1.038,2.212Z" transform="translate(-84.711 -15.553)" fill="#3c1053"/>
          <path id="Path_121" data-name="Path 121" d="M391.431,72.3c0-.667-.037-1.006-.049-1.463h.837l.049.679h.025a1.553,1.553,0,0,1,1.388-.772c.838,0,1.463.573,1.463,1.954v3.8h-.963V72.846c0-.679-.137-1.346-.838-1.346-.4,0-.787.316-.9.924a1.915,1.915,0,0,0-.051.5V76.5h-.962Z" transform="translate(-86.05 -15.553)" fill="#3c1053"/>
        </g>
      </g>
    </g>
    <g id="Group_38" data-name="Group 38" transform="translate(-7148.547 -9595.985)">
      <path id="Path_124" data-name="Path 124" d="M67.886,51.6,59.732,62.391h-.1L55.318,51.6H45.245l8.538,20.2L51.43,85.179h9.5l2.354-13.385L79.016,51.6Z" transform="translate(61.563 70.207)" fill="#270352"/>
      <path id="Path_125" data-name="Path 125" d="M64.1,51.6l-5.949,33.58H83.191l1.44-7.962H68.942L69.95,71.6H83.573L84.822,64.7H71.149l.958-5.134h15.45L89,51.6Z" transform="translate(79.12 70.207)" fill="#270352"/>
      <g id="Group_26" data-name="Group 26" transform="translate(232.753 118.113)">
        <g id="Group_25" data-name="Group 25" clip-path="url(#clip-path-2)">
          <path id="Path_126" data-name="Path 126" d="M104.47,75.034a16.657,16.657,0,0,0,8.923,3.071c2.493,0,4.03-1.1,4.03-2.592,0-1.87-2.446-2.351-5.564-3.406-4.126-1.343-8.732-3.262-8.732-9.594,0-6.237,5.038-11.178,13.72-11.178a25.181,25.181,0,0,1,12.474,3.5L125.1,61.649a17.011,17.011,0,0,0-8.3-2.3c-2.351,0-3.742,1.1-3.742,2.542,0,1.775,2.3,2.3,5.276,3.262,4.079,1.343,8.97,2.972,8.97,9.641,0,6.381-4.653,11.369-14.343,11.369a23.43,23.43,0,0,1-13.529-4.6Z" transform="translate(-97.461 -48.264)" fill="#270352"/>
        </g>
      </g>
      <path id="Path_128" data-name="Path 128" d="M91.359,62.344h.1L92.7,73.33H86.322ZM87.714,51.6l-17.27,33.58h10.5L83.2,80.19H93.522l.574,4.988h9.5L98.222,51.6Z" transform="translate(95.849 70.207)" fill="#270352"/>
      <g id="Group_28" data-name="Group 28" transform="translate(164.549 110.596)">
        <g id="Group_27" data-name="Group 27" clip-path="url(#clip-path-3)">
          <path id="Path_129" data-name="Path 129" d="M91.675,51.6h14.3c7.868,0,12.474,4.079,12.474,10.17,0,3.791-1.534,8.2-7.483,10.316l3.118,13.094h-8.923l-2.3-11.9H97.288l-2.11,11.9H85.726Zm12.042,15.16c2.974,0,5.085-1.822,5.085-4.653,0-2.207-1.39-3.31-3.694-3.31H99.831l-1.393,7.962Z" transform="translate(-47.906 -40.39)" fill="#270352"/>
        </g>
      </g>
      <g id="Group_30" data-name="Group 30" transform="translate(0 0)">
        <g id="Group_29" data-name="Group 29" clip-path="url(#clip-path-4)">
          <path id="Path_131" data-name="Path 131" d="M18.647,54.352v5.507a26.65,26.65,0,0,1-5.609.656c-6.924,0-9.351-4.044-9.351-10.106V38.989H0V33.276H3.687v-5.1l4.3-1.768h2.424v6.872h7.936v5.713H10.408V51.016c0,2.424.406,3.336,3.64,3.336a35.784,35.784,0,0,0,4.4-.253Z" transform="translate(0 35.926)" fill="#270252"/>
          <path id="Path_132" data-name="Path 132" d="M21.622,29.08c6.973,0,12.483,4.346,12.483,14.048,0,8.541-4.752,13.746-12.483,13.746S9.139,51.669,9.139,43.128c0-9.7,5.507-14.048,12.483-14.048m0,21.933c4.294,0,5.71-2.073,5.71-6.265V41.209c0-4.195-1.516-6.268-5.71-6.268s-5.71,2.073-5.71,6.268v3.539c0,4.244,1.414,6.265,5.71,6.265" transform="translate(12.435 39.568)" fill="#270252"/>
          <path id="Path_133" data-name="Path 133" d="M39.713,29.08a21.523,21.523,0,0,1,6.116.81V35.4l-.255.253a29.173,29.173,0,0,0-5.76-.607c-5.054,0-6.773,1.617-6.773,6.674V44.19c0,5.205,1.416,6.721,6.622,6.721A30.447,30.447,0,0,0,46.335,50l.253.2v5.51a23.048,23.048,0,0,1-7.835,1.161c-8.994,0-12.533-4.95-12.533-13.895,0-9.655,4.8-13.9,13.493-13.9" transform="translate(35.676 39.568)" fill="#270252"/>
          <path id="Path_134" data-name="Path 134" d="M42.276,44.391v2.125c0,3.487,1.567,4.8,7.429,4.8a26.089,26.089,0,0,0,8.036-1.161l.253.25v5.1A23.512,23.512,0,0,1,49.5,56.874c-10.207,0-13.543-4.648-13.543-13.746,0-9.6,4.346-14.048,12.33-14.048,6.419,0,10.562,3.487,10.562,10.158v5.153Zm0-4.445H52.788V37.975c0-2.526-.911-3.487-4.65-3.487h-.505c-4.195,0-5.257,1.516-5.356,5.458" transform="translate(48.927 39.568)" fill="#270252"/>
          <rect id="Rectangle_92" data-name="Rectangle 92" width="6.773" height="37.7" transform="translate(112.676 58.188)" fill="#270252"/>
          <path id="Path_135" data-name="Path 135" d="M58.993,44.391v2.125c0,3.487,1.567,4.8,7.429,4.8a26.089,26.089,0,0,0,8.036-1.161l.253.25v5.1a23.512,23.512,0,0,1-8.491,1.364c-10.207,0-13.543-4.648-13.543-13.746,0-9.6,4.346-14.048,12.33-14.048,6.419,0,10.562,3.487,10.562,10.158v5.153Zm0-4.445H69.505V37.975c0-2.526-.911-3.487-4.65-3.487h-.505c-4.195,0-5.257,1.516-5.356,5.458" transform="translate(71.673 39.568)" fill="#270252"/>
          <path id="Path_136" data-name="Path 136" d="M88.808,48.553c0,9.752-4.249,14.353-10.562,14.353-4.5,0-6.27-1.567-7.179-4.195h-.1L69.3,62.349H64.449v-37.7h6.768v8.944c0,.909-.047,3.385-.149,5.963h.3c1.213-2.627,3.284-4.447,7.53-4.447,5.052,0,9.905,3.64,9.905,13.444m-6.877-1.82c0-4.9-1.464-5.861-5.354-5.861a13.32,13.32,0,0,0-5.361,1.161V55.982a10.6,10.6,0,0,0,5.208,1.161c4.1,0,5.507-1.716,5.507-6.622Z" transform="translate(87.692 33.539)" fill="#270252"/>
          <path id="Path_137" data-name="Path 137" d="M92.667,29.5v6.166l-.3.253H90.748c-3.739,0-5.76.656-7.179,1.414v18.9H76.8V29.548h4.5l1.971,3.942h.253c1.213-2.932,3.64-4.346,6.924-4.346a6.458,6.458,0,0,1,2.224.354" transform="translate(104.496 39.655)" fill="#270252"/>
          <path id="Path_138" data-name="Path 138" d="M107.671,41.259V56.319h-4.75L101.2,52.58h-.151c-.909,2.93-3.439,4.294-7.885,4.294-5.661,0-8.64-3.234-8.64-8.288,0-4.95,2.677-8.338,9.346-8.338a33.155,33.155,0,0,1,7.077.758h.151v-1.87c0-3.385-2.122-4.346-7.379-4.346a39.277,39.277,0,0,0-7.58.807l-.25-.25V29.939a35.809,35.809,0,0,1,7.981-.859c10.311,0,13.8,4.195,13.8,12.179M101.1,50.1V44.847H93.774c-1.87,0-2.679.859-2.679,2.427v1.516c0,1.922.81,2.679,3.64,2.679h.656A11.223,11.223,0,0,0,101.1,50.1" transform="translate(115.011 39.568)" fill="#270252"/>
          <path id="Path_139" data-name="Path 139" d="M114.539,54.352v5.507a26.6,26.6,0,0,1-5.609.656c-6.924,0-9.348-4.044-9.348-10.106V38.989h-3.69V33.276h3.69v-5.1l4.294-1.768H106.3v6.872h7.934v5.713H106.3V51.016c0,2.424.406,3.336,3.64,3.336a35.742,35.742,0,0,0,4.4-.253Z" transform="translate(130.475 35.926)" fill="#270252"/>
          <path id="Path_140" data-name="Path 140" d="M109.055,24.734c3.234,0,3.64.555,3.64,3.286,0,2.627-.406,3.234-3.64,3.234s-3.638-.607-3.638-3.234c0-2.731.4-3.286,3.638-3.286m3.388,37.5H105.67V35.548h6.773Z" transform="translate(143.435 33.654)" fill="#270252"/>
          <path id="Path_141" data-name="Path 141" d="M133.811,38.582V56.319h-6.773V38.178c0-1.82-.607-2.882-4.244-2.882a10.707,10.707,0,0,0-5.1,1.213V56.319h-6.773V29.635h4.851l1.768,3.942h.255c1.213-2.778,3.385-4.5,7.528-4.5,5.1,0,8.491,2.729,8.491,9.5" transform="translate(150.919 39.568)" fill="#270252"/>
          <path id="Path_142" data-name="Path 142" d="M147.366,33.832l-4.193.555a10.007,10.007,0,0,1,.909,4.346c0,5.864-3.791,9.3-10.359,9.3a13.892,13.892,0,0,1-4.8-.76,3.207,3.207,0,0,0-.4,1.617v.456c0,1.416.6,2.172,2.474,2.172h7.934c5.356,0,8.439,2.679,8.439,7.228,0,6.367-3.94,9.5-12.481,9.5-9.653,0-12.28-3.286-12.28-7.731,0-2.833,1.263-4.6,3.638-4.955v-.05c-2.023-1.062-2.781-2.83-2.781-5.106a4.252,4.252,0,0,1,2.984-4.445v-.052a8.776,8.776,0,0,1-3.083-7.176c0-6.114,4.4-9.653,10.361-9.653a13.324,13.324,0,0,1,3.841.557h9.8ZM129.073,56.319a9.4,9.4,0,0,0-.354,2.731v.6c0,2.528.6,3.286,5.205,3.286h1.617c4.65,0,5.507-.708,5.507-3.133V58.694c0-1.513-.352-2.221-2.221-2.221H131.6a19.307,19.307,0,0,1-2.526-.153m8.944-19c0-2.224-.911-3.286-4.294-3.286-3.489,0-4.3,1.062-4.3,3.286V40c0,2.023.862,3.033,4.3,3.033,3.383,0,4.294-1.01,4.294-3.033Z" transform="translate(166.822 39.568)" fill="#270252"/>
          <path id="Path_143" data-name="Path 143" d="M93.251,3.688,85.1,14.483H85l-4.315-10.8H70.61l8.538,20.2L76.795,37.268h9.5l2.354-13.382,15.734-20.2Z" transform="translate(96.075 5.018)" fill="#270352"/>
          <path id="Path_144" data-name="Path 144" d="M89.463,3.688l-5.949,33.58h25.039L110,29.306H94.307l1.008-5.614h13.623l1.249-6.907H96.514l.958-5.132H112.92l1.438-7.965Z" transform="translate(113.633 5.018)" fill="#270352"/>
        </g>
      </g>
      <g id="Group_32" data-name="Group 32" transform="translate(164.152 0)">
        <g id="Group_31" data-name="Group 31" clip-path="url(#clip-path-5)">
          <path id="Path_145" data-name="Path 145" d="M100.907,27.124a16.657,16.657,0,0,0,8.923,3.071c2.493,0,4.03-1.1,4.03-2.592,0-1.87-2.446-2.351-5.564-3.406-4.126-1.343-8.732-3.262-8.732-9.594,0-6.237,5.038-11.178,13.72-11.178a25.181,25.181,0,0,1,12.474,3.5l-4.223,6.813a17.011,17.011,0,0,0-8.3-2.3c-2.351,0-3.742,1.1-3.742,2.542,0,1.775,2.3,2.3,5.276,3.262,4.079,1.343,8.97,2.972,8.97,9.641,0,6.381-4.653,11.369-14.343,11.369a23.43,23.43,0,0,1-13.529-4.6Z" transform="translate(-33.708 4.66)" fill="#270352"/>
        </g>
      </g>
      <g id="Group_34" data-name="Group 34" transform="translate(0 0)">
        <g id="Group_33" data-name="Group 33" clip-path="url(#clip-path-4)">
          <path id="Path_147" data-name="Path 147" d="M40.869,59.766l-1.315,5,.153.1a18.487,18.487,0,0,1,5.1-.656c6.619,0,9.348,3.081,9.348,7.783a21.753,21.753,0,0,1-.354,3.539c-1.313,6.57-6.013,10.106-15.462,10.106A54.533,54.533,0,0,1,27.224,84.48l1.516-7.835.253-.2a36.517,36.517,0,0,0,8.59,1.013c5,0,6.419-.961,6.825-2.932a13.227,13.227,0,0,0,.151-1.414c0-1.313-.859-2.224-5.559-2.224-2.729,0-7.682.151-9.147.3l-.253-.3,5-19.558H56.687l-1.669,8.439Z" transform="translate(37.042 69.838)" fill="#270252"/>
          <path id="Path_148" data-name="Path 148" d="M118.7,61.688c3.588,0,4.6.607,4.6,2.479a16.284,16.284,0,0,1-.4,3.031c-.6,3.185-1.768,3.992-5.913,3.992-3.536,0-4.547-.6-4.547-2.526a15.352,15.352,0,0,1,.354-2.984c.607-3.133,1.82-3.992,5.913-3.992" transform="translate(152.987 83.935)" fill="#270252"/>
          <path id="Path_149" data-name="Path 149" d="M45.04,3.4a50.734,50.734,0,0,1,8.439.758V9.77l-.253.3a56.635,56.635,0,0,0-8.137-.659c-6.064,0-7.682,1.062-7.682,3.64v.607c0,1.768.555,2.575,4.6,3.385l4.65.961c5.963,1.263,8.793,4.195,8.793,9.4,0,6.367-3.336,10.663-14.556,10.663a53.839,53.839,0,0,1-10.207-.859V31.348l.253-.2a59.147,59.147,0,0,0,9.7.909c6.015,0,7.783-.859,7.783-4.195v-.555c0-2.073-.555-2.981-5.559-4.044l-4.75-1.01c-5-1.01-7.682-3.69-7.682-8.741C30.435,7.647,33.922,3.4,45.04,3.4" transform="translate(41.411 4.63)" fill="#270252"/>
          <path id="Path_150" data-name="Path 150" d="M65.8,18.538V33.6h-4.75l-1.719-3.739h-.151c-.911,2.932-3.437,4.3-7.885,4.3-5.661,0-8.642-3.234-8.642-8.288,0-4.953,2.679-8.338,9.348-8.338a33.232,33.232,0,0,1,7.077.755h.151v-1.87c0-3.385-2.122-4.344-7.377-4.344a39.091,39.091,0,0,0-7.582.807l-.253-.253V7.216a35.974,35.974,0,0,1,7.984-.859c10.311,0,13.8,4.195,13.8,12.181m-6.57,8.843V22.124H51.906c-1.87,0-2.679.862-2.679,2.427v1.516c0,1.922.81,2.679,3.64,2.679h.656a11.223,11.223,0,0,0,5.71-1.364" transform="translate(58.041 8.65)" fill="#270252"/>
          <path id="Path_151" data-name="Path 151" d="M80.126,6.945,67.339,44.595H60.618l-.253-.253L64.36,33.275h-.607L53.6,6.945l.253-.352h6.671l4.346,10.713c.758,2.021,1.516,6.114,2.224,8.895h.352c.607-2.528,1.416-6.874,2.174-9.2L73.2,6.593h6.671Z" transform="translate(72.924 8.971)" fill="#270252"/>
        </g>
      </g>
    </g>
  </g>
</svg>
