<svg xmlns="http://www.w3.org/2000/svg" width="456.295" height="217.635" viewBox="0 0 456.295 217.635">
  <path id="Path_127" data-name="Path 127" d="M-228.253-8.47c0,6.23,3.85,8.855,8.96,8.855,5.075,0,8.925-2.625,8.925-8.855V-23.38h-3.465V-8.015c0,3.675-1.715,5.18-4.935,5.18h-1.085c-3.22,0-4.935-1.47-4.935-5.18V-23.38h-3.465Zm40.6-10.395a4.794,4.794,0,0,0-4.9,3.22h-.175c-.63-2.065-2.1-3.22-4.655-3.22a4.691,4.691,0,0,0-4.795,3.045h-.21l-1.015-2.66h-2.345V0h3.4V-14.63a6.651,6.651,0,0,1,3.57-1.015c2.065,0,2.94.455,2.94,1.925V0h3.395V-14.63a6.651,6.651,0,0,1,3.57-1.015c2.065,0,2.9.455,2.9,1.925V0h3.43V-12.845C-182.543-16.94-184.4-18.865-187.653-18.865Zm25.55-7.63c-4.2,0-6.23,2.485-6.23,6.475v1.54h-3.185v2.9h3.185V0h3.43V-15.575h4.76v-2.9h-4.76v-2.8c0-1.47.77-2,2.975-2a15.686,15.686,0,0,1,2.24.175l.175-.175v-2.9A8.392,8.392,0,0,0-162.1-26.5Zm3.29,17.36c0,5.95,3.29,9.52,8.12,9.52,4.865,0,8.12-3.57,8.12-9.52,0-6.72-3.745-9.73-8.12-9.73C-155.033-18.865-158.812-15.855-158.812-9.135Zm3.43,1.12V-10.43c0-3.535,1.26-5.215,4.69-5.215,3.465,0,4.69,1.68,4.69,5.215v2.415c0,3.465-1.19,5.18-4.69,5.18S-155.383-4.48-155.383-8.015Zm25.13-10.78a5.008,5.008,0,0,0-4.83,2.975h-.245l-1.26-2.66h-2.065V0h3.4V-13.965c.945-.7,2.24-1.365,5.285-1.365h1.085l.21-.175v-3.01A4.335,4.335,0,0,0-130.253-18.8Zm15.12,15.785a24.062,24.062,0,0,1-3.01.175c-2.59,0-2.765-.7-2.765-2.66v-10.08h5.7v-2.9h-5.7v-4.76h-1.33l-2.1,1.085v3.675H-127v2.9h2.66V-6.4c0,3.885,1.645,6.79,5.845,6.79a16.149,16.149,0,0,0,3.57-.455V-2.8Zm2.485-15.47v2.9h10.185v.175a45.164,45.164,0,0,0-3.78,3.6l-6.72,8.225V0h13.58V-2.9h-10.71v-.14c.665-.6,3.045-2.87,3.955-3.955l6.755-8.26v-3.22Zm27.65,0V-4.165a7.287,7.287,0,0,1-4.27,1.33c-2.45,0-3.43-.56-3.43-2.52V-18.48h-3.43V-6.44c0,4.8,2.38,6.825,6.02,6.825,2.59,0,4.445-.945,5.075-3.01h.14L-83.948,0H-81.6V-18.48ZM-68.9-26.5c-4.2,0-6.23,2.485-6.23,6.475v1.54h-3.185v2.9h3.185V0h3.43V-15.575h4.76v-2.9H-71.7v-2.8c0-1.47.77-2,2.975-2a15.686,15.686,0,0,1,2.24.175l.175-.175v-2.9A8.392,8.392,0,0,0-68.9-26.5Zm9.45,7.63a21.876,21.876,0,0,0-5.25.63v3.01l.175.21a23.279,23.279,0,0,1,5.215-.63c3.6,0,5.285.8,5.285,3.535v1.715h-.1a26.421,26.421,0,0,0-5.075-.49c-4.515,0-6.4,2.24-6.4,5.565,0,3.5,2.135,5.7,5.985,5.7,3.08,0,4.935-.98,5.53-3.01h.1L-52.973,0h2.345V-10.71C-50.628-16.1-52.9-18.865-59.448-18.865Zm.735,16.03h-.49c-2.31,0-2.975-.595-2.975-2.24V-6.23c0-1.3.63-2.03,2.17-2.03h5.985v4.305A9.36,9.36,0,0,1-58.713-2.835ZM-37.4-18.865c-2.73,0-4.375,1.12-5.18,3.045h-.1V-26.11h-3.4V0h3.4V-14.63a8.752,8.752,0,0,1,4.2-1.015c3.045,0,3.5.875,3.5,2.31V0h3.43V-12.32C-31.553-17.045-34-18.865-37.4-18.865Zm18.76.07a5.008,5.008,0,0,0-4.83,2.975h-.245l-1.26-2.66h-2.065V0h3.395V-13.965c.945-.7,2.24-1.365,5.285-1.365h1.085l.21-.175v-3.01A4.335,4.335,0,0,0-18.638-18.8ZM-.788-8.785V-12.11c0-4.305-2.835-6.755-6.895-6.755-5.075,0-7.98,3.01-7.98,9.73,0,6.23,2.1,9.52,8.75,9.52A13.988,13.988,0,0,0-1.383-.6V-3.5l-.21-.21a14.428,14.428,0,0,1-5.25.875c-4.2,0-5.39-1.015-5.39-3.85v-2.1Zm-7.35-6.86h.385c2.9,0,3.605.77,3.605,2.8v1.505h-8.085C-12.128-14.49-11.323-15.645-8.138-15.645Zm19.915-3.22c-2.765,0-4.235,1.155-5.11,3.045h-.21L5.442-18.48H3.1V0H6.492V-14.63a8.752,8.752,0,0,1,4.2-1.015c3.045,0,3.5.875,3.5,2.31V0h3.43V-12.32C17.622-17.045,15.172-18.865,11.777-18.865Zm12.74,14.07c-2.17,0-2.485.42-2.485,2.45C22.032-.28,22.347.14,24.1.14a1.079,1.079,0,0,0,.35-.035l.035.105c-.84,1.015-1.435,1.785-2.24,2.905L19.862,6.4l.175.245h2.625l1.155-1.715C25.707,2.38,27,.245,27-1.89,27-3.99,26.477-4.795,24.517-4.795Zm24.01-14.07c-2.94,0-4.34,1.26-5.25,3.045h-.21c.1-1.75.1-3.465.1-4.1V-26.11h-3.4V0h2.345l.945-2.52h.14c.63,1.925,1.89,2.9,4.935,2.9,4.34,0,7.28-3.15,7.28-9.94C55.423-16.31,51.923-18.865,48.528-18.865ZM51.993-8.33c0,4.095-1.19,5.495-4.55,5.495a8.835,8.835,0,0,1-4.27-.945V-14.665a10.546,10.546,0,0,1,4.445-.98c3.185,0,4.375.77,4.375,4.9Zm21.35-.455V-12.11c0-4.305-2.835-6.755-6.895-6.755-5.075,0-7.98,3.01-7.98,9.73,0,6.23,2.1,9.52,8.75,9.52a13.988,13.988,0,0,0,5.53-.98V-3.5l-.21-.21a14.428,14.428,0,0,1-5.25.875c-4.2,0-5.39-1.015-5.39-3.85v-2.1Zm-7.35-6.86h.385c2.9,0,3.605.77,3.605,2.8v1.505H61.9C62-14.49,62.808-15.645,65.993-15.645Zm19.915-3.22c-2.765,0-4.235,1.155-5.11,3.045h-.21l-1.015-2.66H77.227V0h3.395V-14.63a8.752,8.752,0,0,1,4.2-1.015c3.045,0,3.5.875,3.5,2.31V0h3.43V-12.32C91.752-17.045,89.3-18.865,85.907-18.865Zm12.04-5.04c0,1.645.245,2.03,1.89,2.03,1.61,0,1.855-.385,1.855-2.03,0-1.68-.245-2.065-1.855-2.065C98.192-25.97,97.947-25.585,97.947-23.905Zm7.315,0c0,1.645.245,2.03,1.855,2.03,1.645,0,1.89-.385,1.89-2.03,0-1.68-.245-2.065-1.89-2.065C105.507-25.97,105.262-25.585,105.262-23.905ZM95.357-9.135c0,5.95,3.29,9.52,8.12,9.52,4.865,0,8.12-3.57,8.12-9.52,0-6.72-3.745-9.73-8.12-9.73C99.137-18.865,95.357-15.855,95.357-9.135Zm3.43,1.12V-10.43c0-3.535,1.26-5.215,4.69-5.215,3.465,0,4.69,1.68,4.69,5.215v2.415c0,3.465-1.19,5.18-4.69,5.18S98.787-4.48,98.787-8.015Zm26.74,5.005a24.062,24.062,0,0,1-3.01.175c-2.59,0-2.765-.7-2.765-2.66v-10.08h5.705v-2.9h-5.705v-4.76h-1.33l-2.1,1.085v3.675h-2.66v2.9h2.66V-6.4c0,3.885,1.645,6.79,5.845,6.79a16.149,16.149,0,0,0,3.57-.455V-2.8Zm3.255-20.9c0,1.645.21,2.03,1.89,2.03,1.645,0,1.89-.385,1.89-2.03,0-1.68-.245-2.065-1.89-2.065C128.992-25.97,128.783-25.585,128.783-23.905Zm.175,5.425V0h3.4V-18.48Zm23.73,0h-6.475a8.209,8.209,0,0,0-2.485-.385,6.307,6.307,0,0,0-6.685,6.72,6.268,6.268,0,0,0,1.855,4.8l-.035.14a2.827,2.827,0,0,0-1.89,2.94,3.59,3.59,0,0,0,1.855,3.535v.07c-1.505.245-2.345,1.4-2.345,3.5,0,3.185,1.89,5.425,8.155,5.425,5.425,0,8.05-2.135,8.05-6.405,0-2.975-2.03-4.76-5.495-4.76H141.8c-1.435,0-1.89-.63-1.89-1.785v-.35A2.535,2.535,0,0,1,140.3-6.4a7.883,7.883,0,0,0,3.43.7c4.165,0,6.72-2.38,6.72-6.44a7.663,7.663,0,0,0-.77-3.465l3.01-.35Zm-5.635,7.35c0,1.68-.665,2.485-3.325,2.485-2.625,0-3.29-.805-3.29-2.485v-2.135c0-1.855.63-2.66,3.29-2.66s3.325.8,3.325,2.66ZM142.467-.035h5.075c1.435,0,1.75.56,1.75,1.785v.805c0,1.89-.665,2.485-4.2,2.485h-1.225c-3.5,0-3.99-.595-3.99-2.66V2.03a6.175,6.175,0,0,1,.385-2.275A10.252,10.252,0,0,0,142.467-.035Zm12.81-13.23c0,2.31,1.26,4.235,4.34,4.8l2.8.525c2.555.455,3.01,1.05,3.01,2.24v.35c0,1.855-.77,2.52-4.305,2.52a34.688,34.688,0,0,1-5.18-.49l-.14.14v3.08a31.066,31.066,0,0,0,5.425.455c5.425,0,7.6-2.625,7.6-5.95,0-2.45-1.26-4.41-4.55-5.005l-2.8-.525c-2.45-.455-2.835-.91-2.835-2.1v-.28c0-1.54.98-2.135,4.48-2.135a35.1,35.1,0,0,1,4.48.385l.175-.14v-3.01a21.505,21.505,0,0,0-4.585-.42C157.273-18.83,155.278-16.17,155.278-13.265ZM182.788-3.01a24.063,24.063,0,0,1-3.01.175c-2.59,0-2.765-.7-2.765-2.66v-10.08h5.705v-2.9h-5.705v-4.76h-1.33l-2.1,1.085v3.675h-2.66v2.9h2.66V-6.4c0,3.885,1.645,6.79,5.845,6.79A16.149,16.149,0,0,0,183-.07V-2.8Zm22.82-23.1v8.085H205.5a10.422,10.422,0,0,0-4.34-.84c-4.375,0-7.8,2.9-7.8,9.73,0,6.44,2.9,9.52,7,9.52,2.625,0,4.62-.91,5.215-3.01h.14L206.658,0h2.38V-26.11ZM200.952-2.835c-3.185,0-4.165-1.085-4.165-4.9V-10.22c0-4.27.98-5.425,4.515-5.425a32.127,32.127,0,0,1,4.305.245V-4.025A8.635,8.635,0,0,1,200.952-2.835ZM224.647-18.48V-4.165a7.287,7.287,0,0,1-4.27,1.33c-2.45,0-3.43-.56-3.43-2.52V-18.48h-3.43V-6.44c0,4.8,2.38,6.825,6.02,6.825,2.59,0,4.445-.945,5.075-3.01h.14L225.7,0h2.345V-18.48ZM-171.675,43.215V39.89c0-4.305-2.835-6.755-6.9-6.755-5.075,0-7.98,3.01-7.98,9.73,0,6.23,2.1,9.52,8.75,9.52a13.988,13.988,0,0,0,5.53-.98V48.5l-.21-.21a14.428,14.428,0,0,1-5.25.875c-4.2,0-5.39-1.015-5.39-3.85v-2.1Zm-7.35-6.86h.385c2.9,0,3.605.77,3.605,2.8V40.66h-8.085C-183.015,37.51-182.21,36.355-179.025,36.355Zm11.06-8.26c0,1.645.21,2.03,1.89,2.03,1.645,0,1.89-.385,1.89-2.03,0-1.68-.245-2.065-1.89-2.065C-167.755,26.03-167.965,26.415-167.965,28.095Zm.175,5.425V52h3.4V33.52Zm16.9-.385c-2.765,0-4.235,1.155-5.11,3.045h-.21l-1.015-2.66h-2.345V52h3.4V37.37a8.752,8.752,0,0,1,4.2-1.015c3.045,0,3.5.875,3.5,2.31V52h3.43V39.68C-145.04,34.955-147.49,33.135-150.885,33.135Zm24.325,10.08V39.89c0-4.305-2.835-6.755-6.895-6.755-5.075,0-7.98,3.01-7.98,9.73,0,6.23,2.1,9.52,8.75,9.52a13.988,13.988,0,0,0,5.53-.98V48.5l-.21-.21a14.428,14.428,0,0,1-5.25.875c-4.2,0-5.39-1.015-5.39-3.85v-2.1Zm-7.35-6.86h.385c2.905,0,3.605.77,3.605,2.8V40.66h-8.085C-137.9,37.51-137.1,36.355-133.91,36.355Zm19.67-7.735V52h3.43V28.62Zm17.325,4.515c-2.765,0-4.235,1.155-5.11,3.045h-.21l-1.015-2.66H-105.6V52h3.395V37.37A8.752,8.752,0,0,1-98,36.355c3.045,0,3.5.875,3.5,2.31V52h3.43V39.68C-91.07,34.955-93.52,33.135-96.915,33.135ZM-76.23,48.99a24.063,24.063,0,0,1-3.01.175c-2.59,0-2.765-.7-2.765-2.66V36.425h5.7v-2.9h-5.7V28.76h-1.33l-2.1,1.085V33.52H-88.1v2.9h2.66V45.6c0,3.885,1.645,6.79,5.845,6.79a16.149,16.149,0,0,0,3.57-.455V49.2Zm17.36-5.775V39.89c0-4.305-2.835-6.755-6.895-6.755-5.075,0-7.98,3.01-7.98,9.73,0,6.23,2.1,9.52,8.75,9.52a13.988,13.988,0,0,0,5.53-.98V48.5l-.21-.21a14.428,14.428,0,0,1-5.25.875c-4.2,0-5.39-1.015-5.39-3.85v-2.1Zm-7.35-6.86h.385c2.9,0,3.6.77,3.6,2.8V40.66h-8.085C-70.21,37.51-69.405,36.355-66.22,36.355Zm19.635-3.15a5.008,5.008,0,0,0-4.83,2.975h-.245l-1.26-2.66h-2.065V52h3.4V38.035c.945-.7,2.24-1.365,5.285-1.365h1.085l.21-.175v-3.01A4.335,4.335,0,0,0-46.585,33.205Zm13.475-.07c-2.765,0-4.235,1.155-5.11,3.045h-.21l-1.015-2.66H-41.79V52h3.4V37.37a8.752,8.752,0,0,1,4.2-1.015c3.045,0,3.5.875,3.5,2.31V52h3.43V39.68C-27.265,34.955-29.715,33.135-33.11,33.135Zm24.325,10.08V39.89c0-4.305-2.835-6.755-6.895-6.755-5.075,0-7.98,3.01-7.98,9.73,0,6.23,2.1,9.52,8.75,9.52a13.988,13.988,0,0,0,5.53-.98V48.5l-.21-.21a14.428,14.428,0,0,1-5.25.875c-4.2,0-5.39-1.015-5.39-3.85v-2.1Zm-7.35-6.86h.385c2.9,0,3.605.77,3.605,2.8V40.66H-20.23C-20.125,37.51-19.32,36.355-16.135,36.355ZM5.425,48.99a24.063,24.063,0,0,1-3.01.175c-2.59,0-2.765-.7-2.765-2.66V36.425h5.7v-2.9H-.35V28.76H-1.68l-2.1,1.085V33.52H-6.44v2.9h2.66V45.6c0,3.885,1.645,6.79,5.845,6.79a16.149,16.149,0,0,0,3.57-.455V49.2Zm1.75-15.47L7,33.765,12.915,52H17.6l5.95-18.235-.175-.245H20.02l-3.29,10.4c-.42,1.33-1.085,4.48-1.365,5.775h-.21c-.245-1.295-.91-4.445-1.33-5.775l-3.29-10.4Zm33,9.695V39.89c0-4.305-2.835-6.755-6.895-6.755-5.075,0-7.98,3.01-7.98,9.73,0,6.23,2.1,9.52,8.75,9.52a13.988,13.988,0,0,0,5.53-.98V48.5l-.21-.21a14.428,14.428,0,0,1-5.25.875c-4.2,0-5.39-1.015-5.39-3.85v-2.1Zm-7.35-6.86h.385c2.9,0,3.6.77,3.6,2.8V40.66H28.735C28.84,37.51,29.645,36.355,32.83,36.355Zm19.635-3.15a5.008,5.008,0,0,0-4.83,2.975H47.39l-1.26-2.66H44.065V52h3.4V38.035c.945-.7,2.24-1.365,5.285-1.365H53.83l.21-.175v-3.01A4.335,4.335,0,0,0,52.465,33.205Zm13.545-.07c-2.94,0-4.34,1.26-5.25,3.045h-.21c.1-1.75.1-3.465.1-4.1V25.89h-3.4V52H59.6l.945-2.52h.14c.63,1.925,1.89,2.9,4.935,2.9,4.34,0,7.28-3.15,7.28-9.94C72.9,35.69,69.4,33.135,66.01,33.135ZM69.475,43.67c0,4.1-1.19,5.5-4.55,5.5a8.835,8.835,0,0,1-4.27-.945V37.335a10.547,10.547,0,0,1,4.445-.98c3.185,0,4.375.77,4.375,4.9Zm7.21-15.575c0,1.645.21,2.03,1.89,2.03,1.645,0,1.89-.385,1.89-2.03,0-1.68-.245-2.065-1.89-2.065C76.895,26.03,76.685,26.415,76.685,28.095Zm.175,5.425V52h3.395V33.52Zm16.905-.385c-2.765,0-4.235,1.155-5.11,3.045h-.21L87.43,33.52H85.085V52H88.48V37.37a8.752,8.752,0,0,1,4.2-1.015c3.045,0,3.5.875,3.5,2.31V52h3.43V39.68C99.61,34.955,97.16,33.135,93.765,33.135Zm21.7-7.245v8.085h-.1a10.422,10.422,0,0,0-4.34-.84c-4.375,0-7.805,2.9-7.805,9.73,0,6.44,2.905,9.52,7,9.52,2.625,0,4.62-.91,5.215-3.01h.14L116.515,52h2.38V25.89ZM110.81,49.165c-3.185,0-4.165-1.085-4.165-4.9V41.78c0-4.27.98-5.425,4.515-5.425a32.127,32.127,0,0,1,4.305.245V47.975A8.635,8.635,0,0,1,110.81,49.165ZM134.5,33.52V47.835a7.287,7.287,0,0,1-4.27,1.33c-2.45,0-3.43-.56-3.43-2.52V33.52h-3.43V45.56c0,4.795,2.38,6.825,6.02,6.825,2.59,0,4.445-.945,5.075-3.01h.14L135.555,52H137.9V33.52Zm16.905-.385c-2.765,0-4.235,1.155-5.11,3.045h-.21l-1.015-2.66H142.73V52h3.4V37.37a8.752,8.752,0,0,1,4.2-1.015c3.045,0,3.5.875,3.5,2.31V52h3.43V39.68C157.255,34.955,154.8,33.135,151.41,33.135Zm25.865.385H170.8a8.209,8.209,0,0,0-2.485-.385,6.307,6.307,0,0,0-6.685,6.72,6.268,6.268,0,0,0,1.855,4.8l-.035.14a2.827,2.827,0,0,0-1.89,2.94,3.59,3.59,0,0,0,1.855,3.535v.07c-1.505.245-2.345,1.4-2.345,3.5,0,3.185,1.89,5.425,8.155,5.425,5.425,0,8.05-2.135,8.05-6.405,0-2.975-2.03-4.76-5.495-4.76h-5.39c-1.435,0-1.89-.63-1.89-1.785v-.35a2.535,2.535,0,0,1,.385-1.365,7.883,7.883,0,0,0,3.43.7c4.165,0,6.72-2.38,6.72-6.44a7.663,7.663,0,0,0-.77-3.465l3.01-.35Zm-5.635,7.35c0,1.68-.665,2.485-3.325,2.485-2.625,0-3.29-.805-3.29-2.485V38.735c0-1.855.63-2.66,3.29-2.66s3.325.8,3.325,2.66Zm-4.585,11.095h5.075c1.435,0,1.75.56,1.75,1.785v.805c0,1.89-.665,2.485-4.2,2.485h-1.225c-3.5,0-3.99-.6-3.99-2.66v-.35a6.175,6.175,0,0,1,.385-2.275A10.252,10.252,0,0,0,167.055,51.965Zm14.21-2.31c0,2.065.315,2.485,2.24,2.485,1.89,0,2.24-.42,2.24-2.485,0-2.03-.35-2.45-2.24-2.45C181.58,47.205,181.265,47.625,181.265,49.655Z" transform="translate(228.252 157.375)" fill="#3c1053"/>
  <path id="wifi_off_24dp_1F1F1F_FILL0_wght400_GRAD0_opsz24" d="M78.177-769.625,40.969-807.031a34.528,34.528,0,0,0-8.659,3.266,29.648,29.648,0,0,0-7.174,5.443l-8.312-8.51a41.849,41.849,0,0,1,6.828-5.542,51.9,51.9,0,0,1,7.818-4.156l-8.906-8.906a59.248,59.248,0,0,0-7.57,4.6,53.983,53.983,0,0,0-6.68,5.69L0-823.656a58.432,58.432,0,0,1,6.581-5.69,84.078,84.078,0,0,1,7.273-4.8l-8.313-8.312L11.083-848l72.833,72.833ZM47.5-775.958a9.473,9.473,0,0,1-7.026-2.919,9.6,9.6,0,0,1-2.87-6.977,9.555,9.555,0,0,1,2.87-7.026,9.556,9.556,0,0,1,7.026-2.87,9.556,9.556,0,0,1,7.026,2.87,9.555,9.555,0,0,1,2.87,7.026,9.6,9.6,0,0,1-2.87,6.977A9.473,9.473,0,0,1,47.5-775.958ZM70.854-799.51l-2.87-2.87-2.87-2.87L50.865-819.5a45.681,45.681,0,0,1,14.992,4.057,43.136,43.136,0,0,1,12.32,8.609Zm15.833-15.635A55.849,55.849,0,0,0,69.023-827.07a54.057,54.057,0,0,0-21.523-4.3q-2.078,0-4.008.148t-3.909.445L29.49-840.875a66.828,66.828,0,0,1,8.857-1.781,69.938,69.938,0,0,1,9.154-.594,65.555,65.555,0,0,1,26.224,5.245A67.608,67.608,0,0,1,95-823.656Z" transform="translate(180.752 848)" fill="#ff8674"/>
</svg>
