<svg xmlns="http://www.w3.org/2000/svg" width="678.25" height="275.764" viewBox="0 0 678.25 275.764">
  <g id="Group_29" data-name="Group 29" transform="translate(3358.05 9523.863)">
    <path id="Path_127" data-name="Path 127" d="M-157.248,0H-146.3c4.48,0,6.816-2.08,6.816-6.208,0-2.656-1.344-4.544-4.192-4.928v-.16c2.336-.64,3.328-2.272,3.328-4.736,0-3.3-2.112-5.344-6.624-5.344h-10.272Zm5.664-12.8v-4.192h3.648c1.7,0,2.208.448,2.208,1.664v.608c0,1.248-.48,1.92-2.208,1.92Zm0,8.416v-4.64h3.744c2.144,0,2.656.64,2.656,1.824v.9c0,1.376-.512,1.92-2.176,1.92Zm14.432-17.12c0,1.888.288,2.24,2.912,2.24,2.592,0,2.88-.352,2.88-2.24s-.288-2.272-2.88-2.272C-136.864-23.776-137.152-23.392-137.152-21.5Zm.16,4.608V0h5.472V-16.9Zm20.128,12.224c-.64.064-1.76.128-2.752.128-1.792,0-2.08-.48-2.08-1.792v-6.016h4.832V-16.9H-121.7v-4.352h-1.888L-127.136-20v3.1h-2.208v4.544h2.208v6.08c0,4.128,1.6,6.624,6.5,6.624a20.35,20.35,0,0,0,3.9-.416V-4.512Zm13.888,0c-.64.064-1.76.128-2.752.128-1.792,0-2.08-.48-2.08-1.792v-6.016h4.832V-16.9h-4.832v-4.352H-109.7L-113.248-20v3.1h-2.208v4.544h2.208v6.08c0,4.128,1.6,6.624,6.5,6.624a20.35,20.35,0,0,0,3.9-.416V-4.512ZM-85.952-7.1v-3.488c0-4.416-2.56-6.656-7.04-6.656-5.408,0-8.256,2.752-8.256,8.9,0,5.76,2.08,8.7,9.024,8.7a20.885,20.885,0,0,0,5.7-.736v-3.84l-.128-.128a23.265,23.265,0,0,1-5.152.512c-3.424,0-4.224-.64-4.224-2.336V-7.1Zm-7.488-6.3h.288c1.824,0,2.24.512,2.24,1.824v1.152h-5.12C-96.032-12.512-95.52-13.408-93.44-13.408Zm27.808-10.464v7.3h-.1a8.4,8.4,0,0,0-3.616-.672c-4.128,0-7.328,2.528-7.328,8.832,0,6.048,2.528,8.768,6.432,8.768,2.56,0,4.224-.928,4.832-2.752h.064L-64.128,0h3.968V-23.872ZM-68.48-4.032C-70.5-4.032-71.1-4.7-71.1-6.976V-9.7c0-2.464.576-3.168,2.784-3.168a16.633,16.633,0,0,1,2.688.16v7.968A5.34,5.34,0,0,1-68.48-4.032ZM-47.456-17.12a4.146,4.146,0,0,0-4.288,2.784h-.16l-1.312-2.56h-3.808V0h5.472V-11.1a13.058,13.058,0,0,1,4.256-.608h1.056l.192-.16V-16.9A4.08,4.08,0,0,0-47.456-17.12ZM-29.728-7.1v-3.488c0-4.416-2.56-6.656-7.04-6.656-5.408,0-8.256,2.752-8.256,8.9,0,5.76,2.08,8.7,9.024,8.7a20.885,20.885,0,0,0,5.7-.736v-3.84l-.128-.128a23.265,23.265,0,0,1-5.152.512c-3.424,0-4.224-.64-4.224-2.336V-7.1Zm-7.488-6.3h.288c1.824,0,2.24.512,2.24,1.824v1.152h-5.12C-39.808-12.512-39.3-13.408-37.216-13.408Zm20.384-3.84c-2.688,0-4.128,1.056-4.8,2.912h-.1v-9.536H-27.2V0h5.472V-11.712a5.643,5.643,0,0,1,2.592-.576c1.856,0,2.176.512,2.176,1.5V0h5.44V-11.232C-11.52-15.424-13.536-17.248-16.832-17.248ZM9.184-23.872v7.3h-.1a8.4,8.4,0,0,0-3.616-.672c-4.128,0-7.328,2.528-7.328,8.832C-1.856-2.368.672.352,4.576.352,7.136.352,8.8-.576,9.408-2.4h.064L10.688,0h3.968V-23.872ZM6.336-4.032c-2.016,0-2.624-.672-2.624-2.944V-9.7c0-2.464.576-3.168,2.784-3.168a16.633,16.633,0,0,1,2.688.16v7.968A5.34,5.34,0,0,1,6.336-4.032ZM32.48-7.1v-3.488c0-4.416-2.56-6.656-7.04-6.656-5.408,0-8.256,2.752-8.256,8.9,0,5.76,2.08,8.7,9.024,8.7a20.885,20.885,0,0,0,5.7-.736v-3.84l-.128-.128a23.265,23.265,0,0,1-5.152.512C23.2-3.84,22.4-4.48,22.4-6.176V-7.1Zm-7.488-6.3h.288c1.824,0,2.24.512,2.24,1.824v1.152H22.4C22.4-12.512,22.912-13.408,24.992-13.408Zm9.856-8.1c0,1.888.288,2.24,2.912,2.24,2.592,0,2.88-.352,2.88-2.24s-.288-2.272-2.88-2.272C35.136-23.776,34.848-23.392,34.848-21.5Zm.16,4.608V0H40.48V-16.9Zm18.912-.352c-2.752,0-4.128,1.088-4.864,2.912h-.128L47.584-16.9H43.616V0h5.472V-11.712a5.643,5.643,0,0,1,2.592-.576c1.856,0,2.176.512,2.176,1.5V0H59.3V-11.232C59.3-15.424,57.28-17.248,53.92-17.248Zm28.288,6.08v6.24a8.525,8.525,0,0,1-2.3.32,6.411,6.411,0,0,1-3.52-.736c-.9-.64-1.408-2.528-1.408-4.672V-11.04c0-1.888.48-3.68,1.5-4.48a9.416,9.416,0,0,1,5.088-1.056,37.335,37.335,0,0,1,5.184.416l.16-.16-.032-4.864a33.805,33.805,0,0,0-6.048-.48c-8.224,0-11.744,3.328-11.744,11.168C69.088-3.264,72,.288,77.888.288c2.112,0,3.584-.672,4.32-2.208h.128L83.36,0h3.808V-11.168ZM104.8-7.1v-3.488c0-4.416-2.56-6.656-7.04-6.656-5.408,0-8.256,2.752-8.256,8.9,0,5.76,2.08,8.7,9.024,8.7a20.885,20.885,0,0,0,5.7-.736v-3.84l-.128-.128a23.265,23.265,0,0,1-5.152.512c-3.424,0-4.224-.64-4.224-2.336V-7.1Zm-7.488-6.3H97.6c1.824,0,2.24.512,2.24,1.824v1.152H94.72C94.72-12.512,95.232-13.408,97.312-13.408ZM116.9-17.12a4.146,4.146,0,0,0-4.288,2.784h-.16l-1.312-2.56h-3.808V0H112.8V-11.1a13.058,13.058,0,0,1,4.256-.608h1.056l.192-.16V-16.9A4.08,4.08,0,0,0,116.9-17.12Zm6.624-2.144c2.176,0,2.4-.352,2.4-2.24s-.224-2.272-2.4-2.272-2.4.384-2.4,2.272S121.344-19.264,123.52-19.264Zm7.424,0c2.208,0,2.432-.352,2.432-2.24s-.224-2.272-2.432-2.272c-2.176,0-2.4.384-2.4,2.272S128.768-19.264,130.944-19.264Zm-5.312,2.016a26.194,26.194,0,0,0-5.344.544v4.032l.192.16a25.421,25.421,0,0,1,4.8-.48c3.36,0,4.512.48,4.512,2.272v.768h-.1a17.249,17.249,0,0,0-4.256-.48c-4.352,0-5.984,2.24-5.984,5.5,0,3.232,1.792,5.28,5.376,5.28,2.848,0,4.32-.864,4.96-2.688h.1L131.1,0h3.936V-9.28C135.04-14.464,132.736-17.248,125.632-17.248Zm1.28,13.7h-.384c-1.408,0-1.824-.416-1.824-1.344V-5.76c0-.768.416-1.248,1.376-1.248,1.248,0,2.5,0,3.712.032v2.688A5.65,5.65,0,0,1,126.912-3.552Zm22.56-1.12c-.64.064-1.76.128-2.752.128-1.792,0-2.08-.48-2.08-1.792v-6.016h4.832V-16.9H144.64v-4.352h-1.888L139.2-20v3.1h-2.208v4.544H139.2v6.08c0,4.128,1.6,6.624,6.5,6.624a20.35,20.35,0,0,0,3.9-.416V-4.512Zm2.24,2.048c0,2.272.416,2.752,2.88,2.752,2.5,0,2.88-.48,2.88-2.752s-.384-2.752-2.88-2.752C152.128-5.376,151.712-4.9,151.712-2.624ZM-339.05,40h5.55c6.125,0,7.5-2.975,7.5-8.45,0-5.55-1.9-8.25-7.775-8.25h-5.275Zm2.45-2.3V25.6h3c2.075,0,3.3.325,4.125,1.175.8.85,1,2.325,1,4.15V32.3c0,2.175-.475,3.65-1.275,4.4a5.183,5.183,0,0,1-3.75,1Zm13.375-14.775c0,1.175.15,1.45,1.35,1.45,1.175,0,1.35-.275,1.35-1.45,0-1.2-.175-1.475-1.35-1.475C-323.075,21.45-323.225,21.725-323.225,22.925Zm.125,3.875V40h2.425V26.8Zm15.85,6.925V31.35c0-3.075-2.025-4.825-4.925-4.825-3.625,0-5.7,2.15-5.7,6.95,0,4.45,1.5,6.8,6.25,6.8a9.991,9.991,0,0,0,3.95-.7V37.5l-.15-.15a10.306,10.306,0,0,1-3.75.625c-3,0-3.85-.725-3.85-2.75v-1.5Zm-5.25-4.9h.275c2.075,0,2.575.55,2.575,2V31.9h-5.775C-315.35,29.65-314.775,28.825-312.5,28.825Zm7.6,1.7a3.327,3.327,0,0,0,3.1,3.425l2,.375c1.825.325,2.15.75,2.15,1.6v.25c0,1.325-.55,1.8-3.075,1.8a24.778,24.778,0,0,1-3.7-.35l-.1.1v2.2a22.19,22.19,0,0,0,3.875.325c3.875,0,5.425-1.875,5.425-4.25,0-1.75-.9-3.15-3.25-3.575l-2-.375c-1.75-.325-2.025-.65-2.025-1.5v-.2c0-1.1.7-1.525,3.2-1.525a25.068,25.068,0,0,1,3.2.275l.125-.1V26.85a15.361,15.361,0,0,0-3.275-.3C-303.475,26.55-304.9,28.45-304.9,30.525Zm22.475,3.2V31.35c0-3.075-2.025-4.825-4.925-4.825-3.625,0-5.7,2.15-5.7,6.95,0,4.45,1.5,6.8,6.25,6.8a9.991,9.991,0,0,0,3.95-.7V37.5l-.15-.15a10.306,10.306,0,0,1-3.75.625c-3,0-3.85-.725-3.85-2.75v-1.5Zm-5.25-4.9h.275c2.075,0,2.575.55,2.575,2V31.9H-290.6C-290.525,29.65-289.95,28.825-287.675,28.825ZM-266.35,23.3h-2.725l-6.3,16.525.125.175h2.45l1.575-4.3h7l1.575,4.3h2.45l.125-.175Zm-4.125,10.325.35-.95c.8-2.075,1.575-4.375,2.35-6.875h.125c.775,2.5,1.525,4.8,2.325,6.875l.35.95Zm18.6-7.1a3.581,3.581,0,0,0-3.65,2.175h-.15l-.725-1.9h-1.675V40h2.425V29.55a6.252,6.252,0,0,1,3-.725c2.175,0,2.5.625,2.5,1.65V40h2.45V31.2C-247.7,27.825-249.45,26.525-251.875,26.525Zm6.325.275-.125.2,3.125,13h3.375l1.9-7.925c.175-.725.45-2.575.55-3.35h.15c.1.775.375,2.625.55,3.35l1.9,7.925h3.375l3.125-13-.125-.2h-2.35l-1.75,8.1c-.15.675-.4,2.15-.575,3.175h-.2c-.125-.975-.35-2.5-.5-3.1l-1.95-8.175h-3.15l-1.95,8.2c-.15.575-.375,2.125-.5,3.075h-.2c-.175-1-.425-2.55-.575-3.2L-243.2,26.8Zm30.025,6.925V31.35c0-3.075-2.025-4.825-4.925-4.825-3.625,0-5.7,2.15-5.7,6.95,0,4.45,1.5,6.8,6.25,6.8a9.991,9.991,0,0,0,3.95-.7V37.5l-.15-.15a10.306,10.306,0,0,1-3.75.625c-3,0-3.85-.725-3.85-2.75v-1.5Zm-5.25-4.9h.275c2.075,0,2.575.55,2.575,2V31.9H-223.7C-223.625,29.65-223.05,28.825-220.775,28.825Zm14.225-2.3A3.581,3.581,0,0,0-210.2,28.7h-.15l-.725-1.9h-1.675V40h2.425V29.55a6.252,6.252,0,0,1,3-.725c2.175,0,2.5.625,2.5,1.65V40h2.45V31.2C-202.375,27.825-204.125,26.525-206.55,26.525Zm15.5-5.175v5.775h-.075a7.444,7.444,0,0,0-3.1-.6c-3.125,0-5.575,2.075-5.575,6.95,0,4.6,2.075,6.8,5,6.8,1.875,0,3.3-.65,3.725-2.15h.1L-190.3,40h1.7V21.35Zm-3.325,16.625c-2.275,0-2.975-.775-2.975-3.5V32.7c0-3.05.7-3.875,3.225-3.875A22.947,22.947,0,0,1-191.05,29v8.125A6.168,6.168,0,0,1-194.375,37.975ZM-177.45,26.8V37.025a5.2,5.2,0,0,1-3.05.95c-1.75,0-2.45-.4-2.45-1.8V26.8h-2.45v8.6c0,3.425,1.7,4.875,4.3,4.875,1.85,0,3.175-.675,3.625-2.15h.1L-176.7,40h1.675V26.8Zm12.075-.275a3.581,3.581,0,0,0-3.65,2.175h-.15l-.725-1.9h-1.675V40h2.425V29.55a6.252,6.252,0,0,1,3-.725c2.175,0,2.5.625,2.5,1.65V40h2.45V31.2C-161.2,27.825-162.95,26.525-165.375,26.525Zm18.475.275h-4.625a5.864,5.864,0,0,0-1.775-.275,4.505,4.505,0,0,0-4.775,4.8,4.477,4.477,0,0,0,1.325,3.425l-.025.1a2.02,2.02,0,0,0-1.35,2.1,2.564,2.564,0,0,0,1.325,2.525v.05c-1.075.175-1.675,1-1.675,2.5,0,2.275,1.35,3.875,5.825,3.875,3.875,0,5.75-1.525,5.75-4.575,0-2.125-1.45-3.4-3.925-3.4h-3.85c-1.025,0-1.35-.45-1.35-1.275V36.4a1.811,1.811,0,0,1,.275-.975,5.631,5.631,0,0,0,2.45.5c2.975,0,4.8-1.7,4.8-4.6a5.473,5.473,0,0,0-.55-2.475l2.15-.25Zm-4.025,5.25c0,1.2-.475,1.775-2.375,1.775-1.875,0-2.35-.575-2.35-1.775V30.525c0-1.325.45-1.9,2.35-1.9s2.375.575,2.375,1.9Zm-3.275,7.925h3.625c1.025,0,1.25.4,1.25,1.275v.575c0,1.35-.475,1.775-3,1.775h-.875c-2.5,0-2.85-.425-2.85-1.9v-.25a4.41,4.41,0,0,1,.275-1.625A7.323,7.323,0,0,0-154.2,39.975Zm15.2-17.05c0,1.175.15,1.45,1.35,1.45,1.175,0,1.35-.275,1.35-1.45,0-1.2-.175-1.475-1.35-1.475C-138.85,21.45-139,21.725-139,22.925Zm.125,3.875V40h2.425V26.8Zm5.45,3.725a3.327,3.327,0,0,0,3.1,3.425l2,.375c1.825.325,2.15.75,2.15,1.6v.25c0,1.325-.55,1.8-3.075,1.8a24.778,24.778,0,0,1-3.7-.35l-.1.1v2.2a22.19,22.19,0,0,0,3.875.325c3.875,0,5.425-1.875,5.425-4.25,0-1.75-.9-3.15-3.25-3.575l-2-.375c-1.75-.325-2.025-.65-2.025-1.5v-.2c0-1.1.7-1.525,3.2-1.525a25.068,25.068,0,0,1,3.2.275l.125-.1V26.85a15.361,15.361,0,0,0-3.275-.3C-132,26.55-133.425,28.45-133.425,30.525Zm19.65,7.325a17.187,17.187,0,0,1-2.15.125c-1.85,0-1.975-.5-1.975-1.9v-7.2h4.075V26.8H-117.9V23.4h-.95l-1.5.775V26.8h-1.9v2.075h1.9v6.55c0,2.775,1.175,4.85,4.175,4.85a11.535,11.535,0,0,0,2.55-.325V38ZM-99.95,21.075c-3,0-4.45,1.775-4.45,4.625v1.1h-2.275v2.075h2.275V40h2.45V28.875h3.4V26.8h-3.4v-2c0-1.05.55-1.425,2.125-1.425a11.2,11.2,0,0,1,1.6.125l.125-.125V21.3A5.994,5.994,0,0,0-99.95,21.075Zm5.6,3.3c1.15,0,1.325-.275,1.325-1.45,0-1.2-.175-1.475-1.325-1.475-1.175,0-1.35.275-1.35,1.475C-95.7,24.1-95.525,24.375-94.35,24.375Zm5.2,0c1.175,0,1.35-.275,1.35-1.45,0-1.2-.175-1.475-1.35-1.475-1.15,0-1.325.275-1.325,1.475C-90.475,24.1-90.3,24.375-89.15,24.375Zm.175,2.425V37.025a5.2,5.2,0,0,1-3.05.95c-1.75,0-2.45-.4-2.45-1.8V26.8h-2.45v8.6c0,3.425,1.7,4.875,4.3,4.875,1.85,0,3.175-.675,3.625-2.15h.1L-88.225,40h1.675V26.8Zm11.875-.225A3.577,3.577,0,0,0-80.55,28.7h-.175l-.9-1.9H-83.1V40h2.425V30.025A5.7,5.7,0,0,1-76.9,29.05h.775l.15-.125v-2.15A3.1,3.1,0,0,0-77.1,26.575Zm17.275-5.225v5.775H-59.9a7.444,7.444,0,0,0-3.1-.6c-3.125,0-5.575,2.075-5.575,6.95,0,4.6,2.075,6.8,5,6.8,1.875,0,3.3-.65,3.725-2.15h.1L-59.075,40h1.7V21.35ZM-63.15,37.975c-2.275,0-2.975-.775-2.975-3.5V32.7c0-3.05.7-3.875,3.225-3.875A22.947,22.947,0,0,1-59.825,29v8.125A6.168,6.168,0,0,1-63.15,37.975Zm9.075-15.05c0,1.175.15,1.45,1.35,1.45,1.175,0,1.35-.275,1.35-1.45,0-1.2-.175-1.475-1.35-1.475C-53.925,21.45-54.075,21.725-54.075,22.925Zm.125,3.875V40h2.425V26.8Zm15.85,6.925V31.35c0-3.075-2.025-4.825-4.925-4.825-3.625,0-5.7,2.15-5.7,6.95,0,4.45,1.5,6.8,6.25,6.8a9.991,9.991,0,0,0,3.95-.7V37.5l-.15-.15a10.306,10.306,0,0,1-3.75.625c-3,0-3.85-.725-3.85-2.75v-1.5Zm-5.25-4.9h.275c2.075,0,2.575.55,2.575,2V31.9h-5.775C-46.2,29.65-45.625,28.825-43.35,28.825ZM-29.5,40h2.475V31.425c0-1.475-.15-4.1-.2-5.075h.125c.675,1.35,1.85,3.725,2.375,4.6l5.65,9.05h2.45V23.3h-2.45v7.6c0,.95.2,3.825.35,5.525l-.175.05c-.75-1.575-1.85-3.875-2.4-4.75L-26.575,23.3H-29.5ZM-5.375,26.8V37.025a5.2,5.2,0,0,1-3.05.95c-1.75,0-2.45-.4-2.45-1.8V26.8h-2.45v8.6c0,3.425,1.7,4.875,4.3,4.875,1.85,0,3.175-.675,3.625-2.15h.1L-4.625,40H-2.95V26.8ZM7.875,37.85a17.187,17.187,0,0,1-2.15.125c-1.85,0-1.975-.5-1.975-1.9v-7.2H7.825V26.8H3.75V23.4H2.8l-1.5.775V26.8H-.6v2.075H1.3v6.55c0,2.775,1.175,4.85,4.175,4.85a11.535,11.535,0,0,0,2.55-.325V38ZM9.65,26.8v2.075h7.275V29a32.26,32.26,0,0,0-2.7,2.575l-4.8,5.875V40h9.7V37.925h-7.65v-.1C11.95,37.4,13.65,35.775,14.3,35l4.825-5.9V26.8Zm19.75,0V37.025a5.2,5.2,0,0,1-3.05.95c-1.75,0-2.45-.4-2.45-1.8V26.8H21.45v8.6c0,3.425,1.7,4.875,4.3,4.875,1.85,0,3.175-.675,3.625-2.15h.1L30.15,40h1.675V26.8Zm12.075-.275a3.581,3.581,0,0,0-3.65,2.175h-.15l-.725-1.9H35.275V40H37.7V29.55a6.252,6.252,0,0,1,3-.725c2.175,0,2.5.625,2.5,1.65V40h2.45V31.2C45.65,27.825,43.9,26.525,41.475,26.525ZM59.95,26.8H55.325a5.864,5.864,0,0,0-1.775-.275,4.505,4.505,0,0,0-4.775,4.8A4.477,4.477,0,0,0,50.1,34.75l-.025.1a2.02,2.02,0,0,0-1.35,2.1,2.564,2.564,0,0,0,1.325,2.525v.05c-1.075.175-1.675,1-1.675,2.5,0,2.275,1.35,3.875,5.825,3.875,3.875,0,5.75-1.525,5.75-4.575,0-2.125-1.45-3.4-3.925-3.4h-3.85c-1.025,0-1.35-.45-1.35-1.275V36.4a1.81,1.81,0,0,1,.275-.975,5.631,5.631,0,0,0,2.45.5c2.975,0,4.8-1.7,4.8-4.6a5.474,5.474,0,0,0-.55-2.475l2.15-.25Zm-4.025,5.25c0,1.2-.475,1.775-2.375,1.775-1.875,0-2.35-.575-2.35-1.775V30.525c0-1.325.45-1.9,2.35-1.9s2.375.575,2.375,1.9ZM52.65,39.975h3.625c1.025,0,1.25.4,1.25,1.275v.575c0,1.35-.475,1.775-3,1.775H53.65c-2.5,0-2.85-.425-2.85-1.9v-.25a4.41,4.41,0,0,1,.275-1.625A7.323,7.323,0,0,0,52.65,39.975Zm15.2-17.05c0,1.175.15,1.45,1.35,1.45,1.175,0,1.35-.275,1.35-1.45,0-1.2-.175-1.475-1.35-1.475C68,21.45,67.85,21.725,67.85,22.925Zm.125,3.875V40H70.4V26.8Zm18.8-.275a3.424,3.424,0,0,0-3.5,2.3H83.15a3.1,3.1,0,0,0-3.325-2.3A3.351,3.351,0,0,0,76.4,28.7h-.15l-.725-1.9H73.85V40h2.425V29.55a4.751,4.751,0,0,1,2.55-.725c1.475,0,2.1.325,2.1,1.375V40H83.35V29.55a4.751,4.751,0,0,1,2.55-.725c1.475,0,2.075.325,2.075,1.375V40h2.45V30.825C90.425,27.9,89.1,26.525,86.775,26.525Zm22.85-3.225v7.05h-7.7V23.3h-2.45V40h2.45V32.65h7.7V40h2.45V23.3Zm5.325,10.175c0,4.25,2.35,6.8,5.8,6.8,3.475,0,5.8-2.55,5.8-6.8,0-4.8-2.675-6.95-5.8-6.95C117.65,26.525,114.95,28.675,114.95,33.475Zm2.45.8V32.55c0-2.525.9-3.725,3.35-3.725,2.475,0,3.35,1.2,3.35,3.725v1.725c0,2.475-.85,3.7-3.35,3.7S117.4,36.8,117.4,34.275Zm11.3-.875c0,4.425,1.75,6.875,6,6.875a10.62,10.62,0,0,0,3.725-.575V37.55l-.15-.125a13.547,13.547,0,0,1-3.525.55c-2.875,0-3.6-.875-3.6-3.9V32.7c0-2.925.875-3.875,3.675-3.875a14.54,14.54,0,0,1,3.025.35l.125-.125V26.925a9.178,9.178,0,0,0-2.825-.4C131.05,26.525,128.7,28.625,128.7,33.4Zm18.425-6.875a3.6,3.6,0,0,0-3.7,2.175h-.075V21.35h-2.425V40h2.425V29.55a6.252,6.252,0,0,1,3-.725c2.175,0,2.5.625,2.5,1.65V40h2.45V31.2C151.3,27.825,149.55,26.525,147.125,26.525Zm13.025-5.45c-3,0-4.45,1.775-4.45,4.625v1.1h-2.275v2.075H155.7V40h2.45V28.875h3.4V26.8h-3.4v-2c0-1.05.55-1.425,2.125-1.425a11.2,11.2,0,0,1,1.6.125l.125-.125V21.3A5.994,5.994,0,0,0,160.15,21.075Zm2.35,12.4c0,4.25,2.35,6.8,5.8,6.8,3.475,0,5.8-2.55,5.8-6.8,0-4.8-2.675-6.95-5.8-6.95C165.2,26.525,162.5,28.675,162.5,33.475Zm2.45.8V32.55c0-2.525.9-3.725,3.35-3.725,2.475,0,3.35,1.2,3.35,3.725v1.725c0,2.475-.85,3.7-3.35,3.7S164.95,36.8,164.95,34.275Zm17.95-7.7a3.577,3.577,0,0,0-3.45,2.125h-.175l-.9-1.9H176.9V40h2.425V30.025a5.7,5.7,0,0,1,3.775-.975h.775l.15-.125v-2.15A3.1,3.1,0,0,0,182.9,26.575Zm16.35-.05a3.424,3.424,0,0,0-3.5,2.3h-.125a3.1,3.1,0,0,0-3.325-2.3,3.351,3.351,0,0,0-3.425,2.175h-.15L188,26.8h-1.675V40h2.425V29.55a4.751,4.751,0,0,1,2.55-.725c1.475,0,2.1.325,2.1,1.375V40h2.425V29.55a4.751,4.751,0,0,1,2.55-.725c1.475,0,2.075.325,2.075,1.375V40h2.45V30.825C202.9,27.9,201.575,26.525,199.25,26.525Zm10.825,0a15.625,15.625,0,0,0-3.75.45v2.15l.125.15a16.628,16.628,0,0,1,3.725-.45c2.575,0,3.775.575,3.775,2.525v1.225h-.075a18.872,18.872,0,0,0-3.625-.35c-3.225,0-4.575,1.6-4.575,3.975,0,2.5,1.525,4.075,4.275,4.075,2.2,0,3.525-.7,3.95-2.15h.075L214.7,40h1.675V32.35C216.375,28.5,214.75,26.525,210.075,26.525Zm.525,11.45h-.35c-1.65,0-2.125-.425-2.125-1.6V35.55c0-.925.45-1.45,1.55-1.45h4.275v3.075A6.686,6.686,0,0,1,210.6,37.975Zm16.375-.125a17.188,17.188,0,0,1-2.15.125c-1.85,0-1.975-.5-1.975-1.9v-7.2h4.075V26.8H222.85V23.4h-.95l-1.5.775V26.8h-1.9v2.075h1.9v6.55c0,2.775,1.175,4.85,4.175,4.85a11.535,11.535,0,0,0,2.55-.325V38Zm7.55-4.375c0,4.25,2.35,6.8,5.8,6.8,3.475,0,5.8-2.55,5.8-6.8,0-4.8-2.675-6.95-5.8-6.95C237.225,26.525,234.525,28.675,234.525,33.475Zm2.45.8V32.55c0-2.525.9-3.725,3.35-3.725,2.475,0,3.35,1.2,3.35,3.725v1.725c0,2.475-.85,3.7-3.35,3.7S236.975,36.8,236.975,34.275Zm18.2-7.75a3.734,3.734,0,0,0-3.75,2.175H251.3l-.675-1.9h-1.7V45.6h2.425V41.025a16.192,16.192,0,0,0-.25-2.65l.1-.025c.65,1.175,1.45,1.925,3.7,1.925,3.1,0,5.2-2.25,5.2-7.1C260.1,28.35,257.6,26.525,255.175,26.525Zm2.475,7.525c0,2.925-.85,3.925-3.25,3.925a6.311,6.311,0,0,1-3.05-.675V29.525a7.533,7.533,0,0,1,3.175-.7c2.275,0,3.125.55,3.125,3.5Zm12.425,3.8a17.187,17.187,0,0,1-2.15.125c-1.85,0-1.975-.5-1.975-1.9v-7.2h4.075V26.8H265.95V23.4H265l-1.5.775V26.8h-1.9v2.075h1.9v6.55c0,2.775,1.175,4.85,4.175,4.85a11.535,11.535,0,0,0,2.55-.325V38ZM272.4,22.925c0,1.175.15,1.45,1.35,1.45,1.175,0,1.35-.275,1.35-1.45,0-1.2-.175-1.475-1.35-1.475C272.55,21.45,272.4,21.725,272.4,22.925Zm.125,3.875V40h2.425V26.8Zm18.8-.275a3.424,3.424,0,0,0-3.5,2.3H287.7a3.1,3.1,0,0,0-3.325-2.3A3.351,3.351,0,0,0,280.95,28.7h-.15l-.725-1.9H278.4V40h2.425V29.55a4.751,4.751,0,0,1,2.55-.725c1.475,0,2.1.325,2.1,1.375V40H287.9V29.55a4.751,4.751,0,0,1,2.55-.725c1.475,0,2.075.325,2.075,1.375V40h2.45V30.825C294.975,27.9,293.65,26.525,291.325,26.525Zm6.75-3.6c0,1.175.15,1.45,1.35,1.45,1.175,0,1.35-.275,1.35-1.45,0-1.2-.175-1.475-1.35-1.475C298.225,21.45,298.075,21.725,298.075,22.925ZM298.2,26.8V40h2.425V26.8Zm15.85,6.925V31.35c0-3.075-2.025-4.825-4.925-4.825-3.625,0-5.7,2.15-5.7,6.95,0,4.45,1.5,6.8,6.25,6.8a9.991,9.991,0,0,0,3.95-.7V37.5l-.15-.15a10.306,10.306,0,0,1-3.75.625c-3,0-3.85-.725-3.85-2.75v-1.5Zm-5.25-4.9h.275c2.075,0,2.575.55,2.575,2V31.9h-5.775C305.95,29.65,306.525,28.825,308.8,28.825Zm14.025-2.25a3.577,3.577,0,0,0-3.45,2.125H319.2l-.9-1.9h-1.475V40h2.425V30.025a5.7,5.7,0,0,1,3.775-.975h.775l.15-.125v-2.15A3.1,3.1,0,0,0,322.825,26.575Zm10.8,11.275a17.187,17.187,0,0,1-2.15.125c-1.85,0-1.975-.5-1.975-1.9v-7.2h4.075V26.8H329.5V23.4h-.95l-1.5.775V26.8h-1.9v2.075h1.9v6.55c0,2.775,1.175,4.85,4.175,4.85a11.535,11.535,0,0,0,2.55-.325V38Zm2.375.475c0,1.475.225,1.775,1.6,1.775,1.35,0,1.6-.3,1.6-1.775,0-1.45-.25-1.75-1.6-1.75C336.225,36.575,336,36.875,336,38.325Z" transform="translate(-3019 -9294)" fill="#fff"/>
    <g id="_352089_rotation_screen_icon" data-name="352089_rotation_screen_icon" transform="translate(-3100.576 -9523.863)">
      <path id="Path_122" data-name="Path 122" d="M0,0H163.152V163.152H0Z" fill="none"/>
      <path id="Path_123" data-name="Path 123" d="M111.825,17.1a71.406,71.406,0,0,1,40.55,57.681h10.2A81.536,81.536,0,0,0,81.336,0c-1.53,0-2.991.136-4.521.238L102.75,26.172ZM69.3,11.863a10.2,10.2,0,0,0-14.412,0L11.623,55.132a10.2,10.2,0,0,0,0,14.412l81.712,81.712a10.2,10.2,0,0,0,14.412,0l43.269-43.269a10.2,10.2,0,0,0,0-14.412L69.3,11.863ZM100.575,144.05,18.829,62.338,62.1,19.068,143.81,100.78Zm-49.727,2.005A71.406,71.406,0,0,1,10.3,88.374H.1a81.536,81.536,0,0,0,81.236,74.778c1.53,0,2.991-.136,4.521-.238L59.922,136.98l-9.075,9.075Z" transform="translate(0.24)" fill="#ff8674"/>
    </g>
  </g>
</svg>
