<svg xmlns="http://www.w3.org/2000/svg" width="299.53" height="86.37" viewBox="0 0 299.53 86.37">
  <path id="Path_128" data-name="Path 128" d="M-150.15-3.115V-.07a18.126,18.126,0,0,0,4.025.455c4.76,0,7.42-2.485,7.42-8.54V-23.38h-3.43V-7.105c0,3.185-1.33,4.27-4.3,4.27a15.407,15.407,0,0,1-3.5-.455Zm30.03-5.67V-12.11c0-4.305-2.835-6.755-6.895-6.755-5.075,0-7.98,3.01-7.98,9.73,0,6.23,2.1,9.52,8.75,9.52a13.988,13.988,0,0,0,5.53-.98V-3.5l-.21-.21a14.428,14.428,0,0,1-5.25.875c-4.2,0-5.39-1.015-5.39-3.85v-2.1Zm-7.35-6.86h.385c2.9,0,3.605.77,3.605,2.8v1.505h-8.085C-131.46-14.49-130.655-15.645-127.47-15.645ZM-105.91-3.01a24.062,24.062,0,0,1-3.01.175c-2.59,0-2.765-.7-2.765-2.66v-10.08h5.705v-2.9h-5.705v-4.76h-1.33l-2.1,1.085v3.675h-2.66v2.9h2.66V-6.4c0,3.885,1.645,6.79,5.845,6.79A16.149,16.149,0,0,0-105.7-.07V-2.8Zm2.485-15.47v2.9H-93.24v.175a45.164,45.164,0,0,0-3.78,3.6l-6.72,8.225V0h13.58V-2.9h-10.71v-.14c.665-.6,3.045-2.87,3.955-3.955l6.755-8.26v-3.22Zm27.09,15.47a24.062,24.062,0,0,1-3.01.175c-2.59,0-2.765-.7-2.765-2.66v-10.08h5.7v-2.9h-5.7v-4.76h-1.33l-2.1,1.085v3.675H-88.2v2.9h2.66V-6.4C-85.54-2.52-83.9.385-79.7.385a16.149,16.149,0,0,0,3.57-.455V-2.8Zm25.69-9.1v8.365a11.282,11.282,0,0,1-4.13.77c-2.415,0-4.06-.315-5.145-1.155-1.225-.945-2.1-3.85-2.1-6.965V-12.32c0-2.625.7-5.355,1.96-6.51,1.155-.98,3.325-1.575,6.16-1.575a32.815,32.815,0,0,1,6.16.665l.175-.175V-23.1a31.651,31.651,0,0,0-6.37-.595c-8.015,0-11.725,3.745-11.725,11.97,0,8.155,3.255,12.04,10.255,12.04,2.275,0,3.99-.735,4.76-2.205h.07L-49.63,0h2.38V-12.11Zm7.735-14V0h3.4V-26.11ZM-31.4-21.875c1.61,0,1.855-.385,1.855-2.03,0-1.68-.245-2.065-1.855-2.065-1.645,0-1.89.385-1.89,2.065C-33.285-22.26-33.04-21.875-31.4-21.875Zm7.28,0c1.645,0,1.89-.385,1.89-2.03,0-1.68-.245-2.065-1.89-2.065-1.61,0-1.855.385-1.855,2.065C-25.97-22.26-25.725-21.875-24.115-21.875Zm.245,3.4V-4.165a7.287,7.287,0,0,1-4.27,1.33c-2.45,0-3.43-.56-3.43-2.52V-18.48H-35V-6.44c0,4.8,2.38,6.825,6.02,6.825,2.59,0,4.445-.945,5.075-3.01h.14L-22.82,0h2.345V-18.48Zm7.315,9.24c0,6.195,2.45,9.625,8.4,9.625A14.868,14.868,0,0,0-2.94-.42V-3.43l-.21-.175a18.966,18.966,0,0,1-4.935.77c-4.025,0-5.04-1.225-5.04-5.46V-10.22c0-4.1,1.225-5.425,5.145-5.425a20.356,20.356,0,0,1,4.235.49l.175-.175v-2.975a12.849,12.849,0,0,0-3.955-.56C-13.265-18.865-16.555-15.925-16.555-9.24Zm24.57-.35L15.33-18.2l-.175-.28H11.2L4.865-10.92h-.91V-26.11H.56V0H3.955V-8.05h.91L11.585,0h4.06l.175-.28Zm8.925-8.89-.175.28L21.14,0h4.725l2.66-11.1c.245-1.015.63-3.6.77-4.69h.21c.14,1.085.525,3.675.77,4.69L32.935,0H37.66l4.375-18.2-.175-.28H38.57L36.12-7.14c-.21.945-.56,3.01-.805,4.445h-.28c-.175-1.365-.49-3.5-.7-4.34L31.6-18.48h-4.41L24.465-7c-.21.8-.525,2.975-.7,4.305h-.28c-.245-1.4-.595-3.57-.805-4.48l-2.45-11.3Zm31.535-3.4c1.61,0,1.855-.385,1.855-2.03,0-1.68-.245-2.065-1.855-2.065-1.645,0-1.89.385-1.89,2.065C46.585-22.26,46.83-21.875,48.475-21.875Zm7.28,0c1.645,0,1.89-.385,1.89-2.03,0-1.68-.245-2.065-1.89-2.065-1.61,0-1.855.385-1.855,2.065C53.9-22.26,54.145-21.875,55.755-21.875ZM56-18.48V-4.165a7.287,7.287,0,0,1-4.27,1.33c-2.45,0-3.43-.56-3.43-2.52V-18.48H44.87V-6.44c0,4.8,2.38,6.825,6.02,6.825,2.59,0,4.445-.945,5.075-3.01h.14L57.05,0h2.345V-18.48ZM72.9-18.865c-2.765,0-4.235,1.155-5.11,3.045h-.21L66.57-18.48H64.225V0H67.62V-14.63a8.752,8.752,0,0,1,4.2-1.015c3.045,0,3.5.875,3.5,2.31V0h3.43V-12.32C78.75-17.045,76.3-18.865,72.9-18.865Zm9.765,5.6c0,2.31,1.26,4.235,4.34,4.8l2.8.525c2.555.455,3.01,1.05,3.01,2.24v.35c0,1.855-.77,2.52-4.305,2.52a34.688,34.688,0,0,1-5.18-.49l-.14.14v3.08A31.066,31.066,0,0,0,88.62.35c5.425,0,7.6-2.625,7.6-5.95,0-2.45-1.26-4.41-4.55-5.005l-2.8-.525c-2.45-.455-2.835-.91-2.835-2.1v-.28c0-1.54.98-2.135,4.48-2.135a35.1,35.1,0,0,1,4.48.385l.175-.14v-3.01a21.505,21.505,0,0,0-4.585-.42C84.665-18.83,82.67-16.17,82.67-13.265ZM99.26-9.24c0,6.195,2.45,9.625,8.4,9.625a14.868,14.868,0,0,0,5.215-.805V-3.43l-.21-.175a18.966,18.966,0,0,1-4.935.77c-4.025,0-5.04-1.225-5.04-5.46V-10.22c0-4.1,1.225-5.425,5.145-5.425a20.356,20.356,0,0,1,4.235.49l.175-.175v-2.975a12.849,12.849,0,0,0-3.955-.56C102.55-18.865,99.26-15.925,99.26-9.24Zm25.8-9.625c-2.73,0-4.375,1.12-5.18,3.045h-.105V-26.11h-3.395V0h3.395V-14.63a8.752,8.752,0,0,1,4.2-1.015c3.045,0,3.5.875,3.5,2.31V0h3.43V-12.32C130.9-17.045,128.45-18.865,125.055-18.865ZM149.38-8.785V-12.11c0-4.305-2.835-6.755-6.9-6.755-5.075,0-7.98,3.01-7.98,9.73,0,6.23,2.1,9.52,8.75,9.52a13.988,13.988,0,0,0,5.53-.98V-3.5l-.21-.21a14.428,14.428,0,0,1-5.25.875c-4.2,0-5.39-1.015-5.39-3.85v-2.1Zm-7.35-6.86h.385c2.905,0,3.605.77,3.605,2.8v1.505h-8.085C138.04-14.49,138.845-15.645,142.03-15.645ZM-134.7,42.865c0,5.95,3.29,9.52,8.12,9.52,4.865,0,8.12-3.57,8.12-9.52,0-6.72-3.745-9.73-8.12-9.73C-130.917,33.135-134.7,36.145-134.7,42.865Zm3.43,1.12V41.57c0-3.535,1.26-5.215,4.69-5.215,3.465,0,4.69,1.68,4.69,5.215v2.415c0,3.465-1.19,5.18-4.69,5.18S-131.268,47.52-131.268,43.985Zm25.41-10.85c-2.765,0-4.235,1.155-5.11,3.045h-.21l-1.015-2.66h-2.345V52h3.395V37.37a8.752,8.752,0,0,1,4.2-1.015c3.045,0,3.5.875,3.5,2.31V52h3.43V39.68C-100.012,34.955-102.463,33.135-105.857,33.135ZM-95.5,25.89V52H-92.1V25.89Zm8.05,2.2c0,1.645.21,2.03,1.89,2.03,1.645,0,1.89-.385,1.89-2.03,0-1.68-.245-2.065-1.89-2.065C-87.238,26.03-87.448,26.415-87.448,28.095Zm.175,5.425V52h3.395V33.52Zm16.905-.385c-2.765,0-4.235,1.155-5.11,3.045h-.21L-76.7,33.52h-2.345V52h3.395V37.37a8.752,8.752,0,0,1,4.2-1.015c3.045,0,3.5.875,3.5,2.31V52h3.43V39.68C-64.522,34.955-66.972,33.135-70.367,33.135Zm24.325,10.08V39.89c0-4.305-2.835-6.755-6.895-6.755-5.075,0-7.98,3.01-7.98,9.73,0,6.23,2.1,9.52,8.75,9.52a13.988,13.988,0,0,0,5.53-.98V48.5l-.21-.21a14.428,14.428,0,0,1-5.25.875c-4.2,0-5.39-1.015-5.39-3.85v-2.1Zm-7.35-6.86h.385c2.9,0,3.6.77,3.6,2.8V40.66h-8.085C-57.382,37.51-56.577,36.355-53.393,36.355Zm24.815-3.22a21.876,21.876,0,0,0-5.25.63v3.01l.175.21a23.28,23.28,0,0,1,5.215-.63c3.6,0,5.285.805,5.285,3.535V41.6h-.1a26.421,26.421,0,0,0-5.075-.49c-4.515,0-6.4,2.24-6.4,5.565,0,3.5,2.135,5.7,5.985,5.7,3.08,0,4.935-.98,5.53-3.01h.1L-22.1,52h2.345V41.29C-19.757,35.9-22.032,33.135-28.577,33.135Zm.735,16.03h-.49c-2.31,0-2.975-.6-2.975-2.24V45.77c0-1.3.63-2.03,2.17-2.03h5.985v4.305A9.36,9.36,0,0,1-27.842,49.165Zm21.385-16.03c-2.94,0-4.34,1.26-5.25,3.045h-.21c.1-1.75.1-3.465.1-4.1V25.89h-3.395V52h2.345l.945-2.52h.14c.63,1.925,1.89,2.9,4.935,2.9,4.34,0,7.28-3.15,7.28-9.94C.438,35.69-3.062,33.135-6.457,33.135ZM-2.992,43.67c0,4.1-1.19,5.5-4.55,5.5a8.835,8.835,0,0,1-4.27-.945V37.335a10.547,10.547,0,0,1,4.445-.98c3.185,0,4.375.77,4.375,4.9ZM19.9,33.52H13.422a8.209,8.209,0,0,0-2.485-.385,6.307,6.307,0,0,0-6.685,6.72,6.268,6.268,0,0,0,1.855,4.8l-.035.14a2.827,2.827,0,0,0-1.89,2.94,3.59,3.59,0,0,0,1.855,3.535v.07c-1.5.245-2.345,1.4-2.345,3.5,0,3.185,1.89,5.425,8.155,5.425,5.425,0,8.05-2.135,8.05-6.405,0-2.975-2.03-4.76-5.5-4.76H9.012c-1.435,0-1.89-.63-1.89-1.785v-.35A2.535,2.535,0,0,1,7.507,45.6a7.883,7.883,0,0,0,3.43.7c4.165,0,6.72-2.38,6.72-6.44a7.663,7.663,0,0,0-.77-3.465l3.01-.35Zm-5.635,7.35c0,1.68-.665,2.485-3.325,2.485-2.625,0-3.29-.805-3.29-2.485V38.735c0-1.855.63-2.66,3.29-2.66s3.325.8,3.325,2.66ZM9.677,51.965h5.075c1.435,0,1.75.56,1.75,1.785v.805c0,1.89-.665,2.485-4.2,2.485H11.077c-3.5,0-3.99-.6-3.99-2.66v-.35a6.174,6.174,0,0,1,.385-2.275A10.252,10.252,0,0,0,9.677,51.965ZM23.082,25.89V52h3.395V25.89Zm22.19,17.325V39.89c0-4.305-2.835-6.755-6.895-6.755-5.075,0-7.98,3.01-7.98,9.73,0,6.23,2.1,9.52,8.75,9.52a13.988,13.988,0,0,0,5.53-.98V48.5l-.21-.21a14.428,14.428,0,0,1-5.25.875c-4.2,0-5.39-1.015-5.39-3.85v-2.1Zm-7.35-6.86h.385c2.9,0,3.6.77,3.6,2.8V40.66H33.828C33.933,37.51,34.738,36.355,37.923,36.355Zm11.06-8.26c0,1.645.21,2.03,1.89,2.03,1.645,0,1.89-.385,1.89-2.03,0-1.68-.245-2.065-1.89-2.065C49.193,26.03,48.983,26.415,48.983,28.095Zm.175,5.425V52h3.4V33.52Zm7.315,9.24c0,6.195,2.45,9.625,8.4,9.625a14.868,14.868,0,0,0,5.215-.8V48.57l-.21-.175a18.967,18.967,0,0,1-4.935.77c-4.025,0-5.04-1.225-5.04-5.46V41.78c0-4.1,1.225-5.425,5.145-5.425a20.356,20.356,0,0,1,4.235.49l.175-.175V33.695a12.849,12.849,0,0,0-3.955-.56C59.762,33.135,56.472,36.075,56.472,42.76Zm25.8-9.625c-2.73,0-4.375,1.12-5.18,3.045h-.105V25.89H73.588V52h3.395V37.37a8.752,8.752,0,0,1,4.2-1.015c3.045,0,3.5.875,3.5,2.31V52h3.43V39.68C88.113,34.955,85.662,33.135,82.268,33.135Zm24.325,10.08V39.89c0-4.305-2.835-6.755-6.895-6.755-5.075,0-7.98,3.01-7.98,9.73,0,6.23,2.1,9.52,8.75,9.52A13.988,13.988,0,0,0,106,51.4V48.5l-.21-.21a14.428,14.428,0,0,1-5.25.875c-4.2,0-5.39-1.015-5.39-3.85v-2.1Zm-7.35-6.86h.385c2.9,0,3.605.77,3.605,2.8V40.66H95.147C95.252,37.51,96.057,36.355,99.242,36.355Zm19.915-3.22c-2.765,0-4.235,1.155-5.11,3.045h-.21l-1.015-2.66h-2.345V52h3.395V37.37a8.752,8.752,0,0,1,4.2-1.015c3.045,0,3.5.875,3.5,2.31V52H125V39.68C125,34.955,122.552,33.135,119.158,33.135Zm10.255,16.52c0,2.065.315,2.485,2.24,2.485,1.89,0,2.24-.42,2.24-2.485,0-2.03-.35-2.45-2.24-2.45C129.727,47.205,129.412,47.625,129.412,49.655Z" transform="translate(150.15 26.11)" fill="#3c1053"/>
</svg>
