<svg xmlns="http://www.w3.org/2000/svg" xmlns:xlink="http://www.w3.org/1999/xlink" width="366.909" height="79.476" viewBox="0 0 366.909 79.476">
  <defs>
    <clipPath id="clip-path">
      <rect id="Rectangle_84" data-name="Rectangle 84" width="366.909" height="79.476" fill="#fff"/>
    </clipPath>
  </defs>
  <g id="Group_23" data-name="Group 23" transform="translate(0 0)">
    <path id="Path_71" data-name="Path 71" d="M360.861,3.839l8.31,14.376,8.321-14.376Z" transform="translate(-26.682 -0.284)" fill="#fff"/>
    <path id="Path_72" data-name="Path 72" d="M81.158,26.371l-8.7-20.584H82.722l4.4,11h.1l8.311-11h11.343L90.839,26.371l-2.4,13.64H78.762Z" transform="translate(-5.357 -0.428)" fill="#fff"/>
    <path id="Path_73" data-name="Path 73" d="M112.043,5.788h25.374L135.951,13.9H120.207l-.977,5.232h13.934l-1.271,7.04H118.008l-1.027,5.72h15.988L131.5,40.012H105.98Z" transform="translate(-7.836 -0.428)" fill="#fff"/>
    <g id="Group_21" data-name="Group 21" transform="translate(0 0)">
      <g id="Group_20" data-name="Group 20" clip-path="url(#clip-path)">
        <path id="Path_74" data-name="Path 74" d="M143.214,29.255a16.98,16.98,0,0,0,9.094,3.129c2.542,0,4.107-1.124,4.107-2.64,0-1.907-2.493-2.4-5.671-3.472-4.205-1.369-8.9-3.325-8.9-9.778,0-6.356,5.133-11.391,13.983-11.391A25.644,25.644,0,0,1,168.54,8.671l-4.3,6.943a17.333,17.333,0,0,0-8.459-2.347c-2.4,0-3.813,1.124-3.813,2.591,0,1.809,2.347,2.347,5.378,3.325,4.156,1.369,9.143,3.031,9.143,9.827,0,6.5-4.742,11.587-14.619,11.587A23.86,23.86,0,0,1,138.081,35.9Z" transform="translate(-10.21 -0.377)" fill="#fff"/>
        <path id="Path_75" data-name="Path 75" d="M192.041,5.1a17.61,17.61,0,0,1,13.006,5.182l-5.526,5.622a10.705,10.705,0,0,0-7.431-2.884c-5.476,0-10.121,4.987-10.121,11.294,0,5.427,3.08,8.36,7.284,8.36a11.507,11.507,0,0,0,7.872-3.422l4.988,6.16A19.214,19.214,0,0,1,188.52,40.6c-9.093,0-16.28-5.573-16.28-15.889A19.372,19.372,0,0,1,192.041,5.1" transform="translate(-12.735 -0.377)" fill="#fff"/>
        <path id="Path_76" data-name="Path 76" d="M222.31,5.787h10.708l5.476,34.224h-9.681l-.586-5.084H217.714l-2.3,5.084H204.708Zm-1.418,22.149h6.5l-1.271-11.2h-.1Z" transform="translate(-15.136 -0.428)" fill="#fff"/>
        <path id="Path_77" data-name="Path 77" d="M250.473,5.787h14.57c8.019,0,12.712,4.156,12.712,10.365,0,3.863-1.564,8.36-7.627,10.512l3.178,13.347h-9.094l-2.347-12.125h-5.671l-2.151,12.125h-9.632Zm12.272,15.45c3.031,0,5.183-1.858,5.183-4.742,0-2.249-1.419-3.374-3.765-3.374h-5.378l-1.419,8.116Z" transform="translate(-18.072 -0.428)" fill="#fff"/>
        <path id="Path_78" data-name="Path 78" d="M293.305,14.1H282.793l1.419-8.312H314.28L312.862,14.1H302.839l-4.547,25.912h-9.583Z" transform="translate(-20.91 -0.428)" fill="#fff"/>
        <path id="Path_79" data-name="Path 79" d="M326.055,5.787h10.708l5.476,34.224h-9.681l-.587-5.084H321.459l-2.3,5.084H308.453Zm-1.418,22.149h6.5l-1.271-11.2h-.1Z" transform="translate(-22.807 -0.428)" fill="#fff"/>
        <path id="Path_80" data-name="Path 80" d="M82.9,51.5a28.633,28.633,0,0,0-3.459,14.469A28.737,28.737,0,0,0,82.9,80.434H81.595c-1.679-2.709-3.56-7.448-3.56-14.469,0-7.057,1.881-11.8,3.56-14.469Z" transform="translate(-5.77 -3.808)" fill="#fff"/>
        <path id="Path_81" data-name="Path 81" d="M93.493,72.889a34.943,34.943,0,0,0,.135,3.848H92.285l-.134-1.888h-.1a3.319,3.319,0,0,1-3.023,2.173c-1.981,0-3.559-1.782-3.559-4.7,0-4.133,2.921-6.058,6.582-6.093v-.642c0-2.923-.436-4.882-2.787-4.882a3.824,3.824,0,0,0-2.283.82l-.4-1.175a4.89,4.89,0,0,1,2.988-1c2.183,0,3.928,1.354,3.928,5.452ZM92.05,67.543c-1.242,0-5.07.106-5.07,4.668,0,2.566,1.175,3.457,2.249,3.457,1.377,0,2.451-1.176,2.754-3.243a6.558,6.558,0,0,0,.067-1.1Z" transform="translate(-6.319 -4.388)" fill="#fff"/>
        <path id="Path_82" data-name="Path 82" d="M99.326,59.654l1.813,4.063c.437.963.806,1.924,1.243,3.065h.068c.436-1.211.907-2.174,1.276-3.065l1.746-4.063h1.578L103.088,68.1l3.862,8.66h-1.579l-1.813-4.277c-.4-.927-.739-1.818-1.243-3.136h-.067c-.4,1.14-.84,2.1-1.276,3.136L99.159,76.76H97.614l4-8.66-3.828-8.447Z" transform="translate(-7.218 -4.411)" fill="#fff"/>
        <path id="Path_83" data-name="Path 83" d="M111.78,56.133c-.6,0-1.041-.5-1.041-1.318,0-.784.437-1.32,1.075-1.32.738,0,1.108.535,1.108,1.32,0,.819-.37,1.318-1.108,1.318Zm-.671,3.065h1.444V76.3h-1.444Z" transform="translate(-8.188 -3.956)" fill="#fff"/>
        <path id="Path_84" data-name="Path 84" d="M124.932,76.238a4.724,4.724,0,0,1-2.62.713c-3.156,0-5.373-3.03-5.373-8.732,0-4.668,1.982-8.873,5.743-8.873a4.305,4.305,0,0,1,2.216.606l-.469,1.354a3.741,3.741,0,0,0-1.982-.57c-2.887,0-4,3.99-4,7.59,0,4.562,1.579,7.27,4.131,7.27a3.979,3.979,0,0,0,2.014-.534Z" transform="translate(-8.646 -4.388)" fill="#fff"/>
        <path id="Path_85" data-name="Path 85" d="M135.914,72.889a34.936,34.936,0,0,0,.135,3.848h-1.344l-.134-1.888h-.1a3.32,3.32,0,0,1-3.023,2.173c-1.981,0-3.559-1.782-3.559-4.7,0-4.133,2.921-6.058,6.582-6.093v-.642c0-2.923-.436-4.882-2.787-4.882a3.824,3.824,0,0,0-2.283.82l-.4-1.175a4.89,4.89,0,0,1,2.988-1c2.183,0,3.928,1.354,3.928,5.452Zm-1.444-5.346c-1.242,0-5.07.106-5.07,4.668,0,2.566,1.175,3.457,2.249,3.457,1.377,0,2.451-1.176,2.754-3.243a6.557,6.557,0,0,0,.067-1.1Z" transform="translate(-9.456 -4.388)" fill="#fff"/>
        <path id="Path_86" data-name="Path 86" d="M141.62,51.5h1.444v9.728h.067a3.509,3.509,0,0,1,3.425-2.458c2.149,0,4.332,2.6,4.332,8.837,0,6.307-2.519,8.837-4.668,8.837-1.948,0-2.753-1.354-3.224-2.673h-.134l-.134,2.387h-1.243c.034-.642.135-2.636.135-3.492Zm1.444,18.674a5.192,5.192,0,0,0,.067,1.033c.739,3.35,2.149,3.885,2.989,3.885,2.451,0,3.257-3.636,3.257-7.483,0-3.742-.84-7.483-3.325-7.483-1.51,0-2.753,2.1-2.955,3.99-.033.428-.033.82-.033,1.247Z" transform="translate(-10.461 -3.808)" fill="#fff"/>
        <path id="Path_87" data-name="Path 87" d="M157.67,55.614v3.741h3.056v1.319H157.67V72.328c0,2.387.739,3.029,1.712,3.029a3.59,3.59,0,0,0,.974-.106l.168,1.176a3.141,3.141,0,0,1-1.444.249,2.484,2.484,0,0,1-2.149-1c-.5-.712-.7-1.746-.7-3.92V60.674h-2.015V59.355h2.015V56.5Z" transform="translate(-11.402 -4.112)" fill="#fff"/>
        <path id="Path_88" data-name="Path 88" d="M171.663,72.889a34.939,34.939,0,0,0,.135,3.848h-1.344l-.134-1.888h-.1a3.319,3.319,0,0,1-3.023,2.173c-1.981,0-3.559-1.782-3.559-4.7,0-4.133,2.922-6.058,6.582-6.093v-.642c0-2.923-.436-4.882-2.787-4.882a3.824,3.824,0,0,0-2.283.82l-.4-1.175a4.89,4.89,0,0,1,2.988-1c2.183,0,3.928,1.354,3.928,5.452Zm-1.444-5.346c-1.242,0-5.07.106-5.07,4.668,0,2.566,1.175,3.457,2.249,3.457,1.377,0,2.451-1.176,2.754-3.243a6.56,6.56,0,0,0,.067-1.1Z" transform="translate(-12.099 -4.388)" fill="#fff"/>
        <path id="Path_89" data-name="Path 89" d="M185.814,74.349c0,5.025-.47,6.557-1.377,7.734a4.59,4.59,0,0,1-3.694,1.782,6.238,6.238,0,0,1-3.257-.855l.47-1.284a6.069,6.069,0,0,0,2.954.784c1.948,0,3.459-1.247,3.459-5.917V74.421H184.3a3.3,3.3,0,0,1-3.19,2.315c-2.385,0-4.567-2.923-4.567-8.552,0-6.7,2.855-8.838,4.87-8.838a3.248,3.248,0,0,1,3.022,2.316h.068l.067-2.032h1.377c-.034.927-.134,2.281-.134,5.276ZM184.369,65.3a5.072,5.072,0,0,0-.1-1.248c-.335-1.424-1.007-3.35-2.922-3.35-2.048,0-3.29,2.923-3.29,7.342,0,5.131,1.578,7.341,3.325,7.341.941,0,2.217-.428,2.854-3.208a7.667,7.667,0,0,0,.134-1.675Z" transform="translate(-13.054 -4.388)" fill="#fff"/>
        <path id="Path_90" data-name="Path 90" d="M192.235,67.544c0,6.878,2.249,8.053,4.064,8.053a4.137,4.137,0,0,0,2.417-.676l.336,1.175a5.322,5.322,0,0,1-3.022.856c-3.526,0-5.272-3.528-5.272-8.7,0-5.417,1.847-8.909,4.8-8.909,3.19,0,4.063,4.169,4.063,7.2v1Zm5.843-1.247c.067-4.205-1.579-5.6-2.754-5.6-1.88,0-2.887,2.85-3.056,5.6Z" transform="translate(-14.105 -4.388)" fill="#fff"/>
        <path id="Path_91" data-name="Path 91" d="M204.344,63.587c0-2.1-.1-2.744-.135-3.956h1.309l.069,2.1h.067a3.787,3.787,0,0,1,3.56-2.387c1.712,0,3.66,1.211,3.66,5.559V76.737H211.43V65.512c0-2.424-.4-4.847-2.653-4.847-1.309,0-2.586,1.212-2.922,3.564a10.717,10.717,0,0,0-.067,1.5V76.737h-1.444Z" transform="translate(-15.099 -4.388)" fill="#fff"/>
        <path id="Path_92" data-name="Path 92" d="M219.283,67.544c0,6.878,2.249,8.053,4.064,8.053a4.142,4.142,0,0,0,2.418-.676L226.1,76.1a5.32,5.32,0,0,1-3.022.856c-3.525,0-5.272-3.528-5.272-8.7,0-5.417,1.847-8.909,4.8-8.909,3.19,0,4.063,4.169,4.063,7.2v1Zm5.843-1.247c.067-4.205-1.579-5.6-2.754-5.6-1.88,0-2.887,2.85-3.056,5.6Z" transform="translate(-16.104 -4.388)" fill="#fff"/>
        <path id="Path_93" data-name="Path 93" d="M244.977,76.238a4.718,4.718,0,0,1-2.619.713c-3.157,0-5.373-3.03-5.373-8.732,0-4.668,1.981-8.873,5.743-8.873a4.308,4.308,0,0,1,2.216.606l-.47,1.354a3.737,3.737,0,0,0-1.981-.57c-2.887,0-4,3.99-4,7.59,0,4.562,1.578,7.27,4.13,7.27a3.98,3.98,0,0,0,2.015-.534Z" transform="translate(-17.523 -4.388)" fill="#fff"/>
        <path id="Path_94" data-name="Path 94" d="M249.81,56.133c-.6,0-1.041-.5-1.041-1.318,0-.784.437-1.32,1.074-1.32.739,0,1.109.535,1.109,1.32,0,.819-.37,1.318-1.109,1.318Zm-.671,3.065h1.444V76.3h-1.444Z" transform="translate(-18.394 -3.956)" fill="#fff"/>
        <rect id="Rectangle_79" data-name="Rectangle 79" width="1.444" height="24.661" transform="translate(236.923 47.688)" fill="#fff"/>
        <path id="Path_95" data-name="Path 95" d="M266.67,77.023c-2.284,0-4.667-2.53-4.667-8.837s2.384-8.838,4.9-8.838c2.283,0,4.634,2.53,4.634,8.838s-2.385,8.837-4.836,8.837Zm.134-1.354c2.72,0,3.224-4.7,3.224-7.483s-.5-7.484-3.29-7.484c-2.721,0-3.225,4.7-3.225,7.484s.5,7.483,3.258,7.483Z" transform="translate(-19.372 -4.388)" fill="#fff"/>
        <rect id="Rectangle_80" data-name="Rectangle 80" width="1.444" height="24.661" transform="translate(256.095 47.688)" fill="#fff"/>
        <path id="Path_96" data-name="Path 96" d="M284.182,67.544c0,6.878,2.249,8.053,4.064,8.053a4.143,4.143,0,0,0,2.418-.676L291,76.1a5.32,5.32,0,0,1-3.022.856c-3.526,0-5.272-3.528-5.272-8.7,0-5.417,1.847-8.909,4.8-8.909,3.19,0,4.063,4.169,4.063,7.2v1Zm5.843-1.247c.067-4.205-1.579-5.6-2.754-5.6-1.88,0-2.887,2.85-3.056,5.6Z" transform="translate(-20.903 -4.388)" fill="#fff"/>
        <path id="Path_97" data-name="Path 97" d="M304.626,72.448c0,1.924.1,3.244.134,4.312h-1.309l-.134-1.782h-.068a3.987,3.987,0,0,1-3.29,2.068c-2.653,0-3.694-2.281-3.694-6.308V59.654h1.444V70.416c0,2.959.4,5.31,2.519,5.31,2.014,0,2.787-2.066,2.887-2.993a12.175,12.175,0,0,0,.068-1.569V59.654h1.444Z" transform="translate(-21.906 -4.411)" fill="#fff"/>
        <path id="Path_98" data-name="Path 98" d="M317.454,76.238a4.716,4.716,0,0,1-2.619.713c-3.157,0-5.373-3.03-5.373-8.732,0-4.668,1.982-8.873,5.743-8.873a4.3,4.3,0,0,1,2.215.606l-.47,1.354a3.734,3.734,0,0,0-1.981-.57c-2.887,0-4,3.99-4,7.59,0,4.562,1.577,7.27,4.13,7.27a3.974,3.974,0,0,0,2.014-.534Z" transform="translate(-22.881 -4.388)" fill="#fff"/>
        <path id="Path_99" data-name="Path 99" d="M321.926,67.544c0,6.878,2.249,8.053,4.064,8.053a4.142,4.142,0,0,0,2.418-.676l.335,1.175a5.32,5.32,0,0,1-3.022.856c-3.525,0-5.272-3.528-5.272-8.7,0-5.417,1.847-8.909,4.8-8.909,3.19,0,4.063,4.169,4.063,7.2v1ZM327.77,66.3c.067-4.205-1.579-5.6-2.754-5.6-1.88,0-2.887,2.85-3.056,5.6Z" transform="translate(-23.694 -4.388)" fill="#fff"/>
        <rect id="Rectangle_81" data-name="Rectangle 81" width="1.444" height="24.661" transform="translate(309.347 47.688)" fill="#fff"/>
        <path id="Path_100" data-name="Path 100" d="M340.027,80.434a28.728,28.728,0,0,0,3.459-14.469A28.624,28.624,0,0,0,340.027,51.5h1.309c1.679,2.673,3.561,7.411,3.561,14.469,0,7.02-1.882,11.76-3.561,14.469Z" transform="translate(-25.141 -3.808)" fill="#fff"/>
        <path id="Path_101" data-name="Path 101" d="M2.035,33.628A211.475,211.475,0,0,1,56.4,24.034,210.717,210.717,0,0,1,1.98,14.777a23.129,23.129,0,0,0,.056,18.851" transform="translate(0 -1.093)" fill="#fff"/>
        <path id="Path_102" data-name="Path 102" d="M18.637,3.707A23.034,23.034,0,0,1,53.792,18.716a75.581,75.581,0,0,0,8.523,3.072A75.012,75.012,0,0,1,18.637,3.707m3.874,40.7a23.462,23.462,0,0,1-3.76-1.947A75.005,75.005,0,0,1,62.322,24.126a75.471,75.471,0,0,0-8.5,3.123A23.056,23.056,0,0,1,31.221,46.1a22.767,22.767,0,0,1-8.711-1.687" transform="translate(-1.378 0)" fill="#fff"/>
        <path id="Path_103" data-name="Path 103" d="M350.333,4.995a5.152,5.152,0,1,1-5.144,5.159,5.167,5.167,0,0,1,5.144-5.159m.014,9.451a4.307,4.307,0,1,0-4.292-4.292,4.31,4.31,0,0,0,4.292,4.292M348.2,7.468h2.573c1.478,0,2.032.868,2.032,1.748a1.623,1.623,0,0,1-1.023,1.521c.271.456.868,1.663,1.137,2.075H351.6l-.982-1.933h-1.194v1.933H348.2Zm2.445,2.487c.71,0,.953-.4.953-.739,0-.383-.243-.782-.953-.782h-1.222V9.955Z" transform="translate(-25.523 -0.37)" fill="#fff"/>
        <rect id="Rectangle_82" data-name="Rectangle 82" width="1.142" height="9.362" transform="translate(324.644 48.164)" fill="#fff"/>
        <path id="Path_104" data-name="Path 104" d="M353.331,56.587c0-.792-.044-1.195-.058-1.736h.994l.058.806h.03A1.844,1.844,0,0,1,356,54.74c.995,0,1.736.681,1.736,2.32v4.515H356.6V57.24c0-.806-.163-1.6-.995-1.6-.475,0-.934.375-1.068,1.1a2.273,2.273,0,0,0-.06.6v4.237h-1.142Z" transform="translate(-26.121 -4.048)" fill="#fff"/>
        <path id="Path_105" data-name="Path 105" d="M359.689,61.343V55.425h-.906v-.806h.906V54.2a2.814,2.814,0,0,1,.637-2.015,2.015,2.015,0,0,1,1.44-.57,2.122,2.122,0,0,1,.89.167l-.178.834a1.71,1.71,0,0,0-.638-.112c-.817,0-1.009.82-1.009,1.681v.431h1.307v.806h-1.307v5.918Z" transform="translate(-26.528 -3.817)" fill="#fff"/>
        <path id="Path_106" data-name="Path 106" d="M367.136,59.749c0,.736.044,1.334.058,1.834H366.2l-.089-.708h-.03a1.859,1.859,0,0,1-1.528.82c-1.246,0-1.751-.917-1.751-2.584V54.859h1.143v4.1c0,1.042.178,1.834.965,1.834a1.075,1.075,0,0,0,1.023-.9,2.489,2.489,0,0,0,.059-.6V54.859h1.143Z" transform="translate(-26.825 -4.056)" fill="#fff"/>
        <path id="Path_107" data-name="Path 107" d="M368.66,60.463a2.381,2.381,0,0,0,1.158.347.949.949,0,0,0,1.054-.972c0-.514-.193-.875-.92-1.32-.934-.57-1.44-1.153-1.44-1.917a1.864,1.864,0,0,1,1.974-1.861,2.4,2.4,0,0,1,1.275.347l-.3.806a1.715,1.715,0,0,0-.965-.306.85.85,0,0,0-.92.861c0,.445.178.708.89,1.153a2.485,2.485,0,0,1,1.485,2.056,1.952,1.952,0,0,1-2.168,2,2.558,2.558,0,0,1-1.409-.389Z" transform="translate(-27.238 -4.048)" fill="#fff"/>
        <path id="Path_108" data-name="Path 108" d="M373.725,53.623a.648.648,0,0,1-.653-.695.66.66,0,0,1,.668-.695.695.695,0,0,1,0,1.389Zm-.534,1.042h1.142v6.723h-1.142Z" transform="translate(-27.585 -3.862)" fill="#fff"/>
        <path id="Path_109" data-name="Path 109" d="M377.821,61.684c-1.291,0-2.33-1.1-2.33-3.459,0-2.459,1.172-3.487,2.4-3.487,1.29,0,2.314,1.111,2.314,3.459,0,2.611-1.276,3.487-2.374,3.487Zm.059-.847c.979,0,1.186-1.57,1.186-2.625s-.207-2.625-1.216-2.625c-1.024,0-1.218,1.584-1.218,2.625,0,1.111.208,2.625,1.232,2.625Z" transform="translate(-27.764 -4.048)" fill="#fff"/>
        <path id="Path_110" data-name="Path 110" d="M381.638,56.587c0-.792-.045-1.195-.059-1.736h.994l.059.806h.03a1.842,1.842,0,0,1,1.647-.917c.994,0,1.735.681,1.735,2.32v4.515H384.9V57.24c0-.806-.162-1.6-.994-1.6-.475,0-.935.375-1.068,1.1a2.235,2.235,0,0,0-.06.6v4.237h-1.142Z" transform="translate(-28.214 -4.048)" fill="#fff"/>
        <path id="Path_111" data-name="Path 111" d="M387.579,60.463a2.381,2.381,0,0,0,1.158.347.949.949,0,0,0,1.054-.972c0-.514-.193-.875-.92-1.32-.935-.57-1.44-1.153-1.44-1.917A1.864,1.864,0,0,1,389.4,54.74a2.4,2.4,0,0,1,1.276.347l-.3.806a1.712,1.712,0,0,0-.964-.306.85.85,0,0,0-.92.861c0,.445.178.708.89,1.153a2.484,2.484,0,0,1,1.484,2.056,1.951,1.951,0,0,1-2.167,2,2.558,2.558,0,0,1-1.409-.389Z" transform="translate(-28.637 -4.048)" fill="#fff"/>
        <rect id="Rectangle_83" data-name="Rectangle 83" width="3.25" height="0.82" transform="translate(362.77 53.484)" fill="#fff"/>
        <path id="Path_112" data-name="Path 112" d="M354.775,67.74v8c0,.458.045,1.222.06,1.611h-.98l-.074-.833h-.059a1.648,1.648,0,0,1-1.5.945c-1.217,0-2.092-1.222-2.092-3.445,0-2.389,1.053-3.5,2.166-3.5a1.386,1.386,0,0,1,1.306.792h.03V67.74Zm-1.142,5.444c0-.139,0-.292-.015-.445-.059-.695-.52-1.306-1.069-1.306-.949,0-1.276,1.236-1.276,2.584,0,1.417.386,2.556,1.218,2.556.356,0,.846-.181,1.1-1.153a1.379,1.379,0,0,0,.044-.445Z" transform="translate(-25.889 -5.009)" fill="#fff"/>
        <path id="Path_113" data-name="Path 113" d="M357.064,69.623a.648.648,0,0,1-.653-.695.661.661,0,0,1,.669-.695.695.695,0,0,1,0,1.389Zm-.533,1.042h1.142v6.723H356.53Z" transform="translate(-26.353 -5.045)" fill="#fff"/>
        <path id="Path_114" data-name="Path 114" d="M358.936,76.463a2.378,2.378,0,0,0,1.158.347.949.949,0,0,0,1.053-.972c0-.514-.193-.875-.92-1.32-.934-.57-1.439-1.153-1.439-1.917a1.863,1.863,0,0,1,1.973-1.861,2.4,2.4,0,0,1,1.276.347l-.3.806a1.712,1.712,0,0,0-.965-.306.851.851,0,0,0-.92.861c0,.445.179.708.89,1.153a2.484,2.484,0,0,1,1.484,2.056,1.951,1.951,0,0,1-2.166,2,2.564,2.564,0,0,1-1.41-.389Z" transform="translate(-26.519 -5.231)" fill="#fff"/>
        <path id="Path_115" data-name="Path 115" d="M363.455,72.949c0-1.028-.044-1.625-.06-2.1h1.024l.059.847h.03a1.674,1.674,0,0,1,1.513-.958c1.261,0,2.077,1.236,2.077,3.459,0,2.5-1.1,3.487-2.21,3.487a1.355,1.355,0,0,1-1.261-.764h-.03v3.32h-1.142Zm1.142,2.167a2.215,2.215,0,0,0,.059.556c.223.958.728,1.125,1.039,1.125.949,0,1.261-1.222,1.261-2.57,0-1.4-.357-2.57-1.261-2.57-.52,0-.995.611-1.054,1.222a1.958,1.958,0,0,0-.044.514Z" transform="translate(-26.869 -5.231)" fill="#fff"/>
        <path id="Path_116" data-name="Path 116" d="M370.322,74.309c.016,2.07.877,2.5,1.692,2.5a2.7,2.7,0,0,0,1.188-.25l.193.778a3.687,3.687,0,0,1-1.588.319c-1.706,0-2.6-1.306-2.6-3.375,0-2.181.979-3.542,2.419-3.542s2.048,1.445,2.048,2.959a5.994,5.994,0,0,1-.031.611Zm2.257-.792c.014-1.347-.52-1.945-1.069-1.945-.742,0-1.127,1.028-1.172,1.945Z" transform="translate(-27.299 -5.231)" fill="#fff"/>
        <path id="Path_117" data-name="Path 117" d="M375.02,72.587c0-.57-.044-1.236-.058-1.736h1.023l.058,1.056h.031a1.727,1.727,0,0,1,1.513-1.167,1.276,1.276,0,0,1,.237.014v1.1a1.277,1.277,0,0,0-.237-.014,1.5,1.5,0,0,0-1.38,1.4,3.714,3.714,0,0,0-.044.611v3.723H375.02Z" transform="translate(-27.725 -5.231)" fill="#fff"/>
        <path id="Path_118" data-name="Path 118" d="M378.462,76.463a2.382,2.382,0,0,0,1.158.347.949.949,0,0,0,1.054-.972c0-.514-.193-.875-.92-1.32-.935-.57-1.44-1.153-1.44-1.917a1.864,1.864,0,0,1,1.973-1.861,2.4,2.4,0,0,1,1.276.347l-.3.806a1.712,1.712,0,0,0-.964-.306.85.85,0,0,0-.92.861c0,.445.178.708.89,1.153a2.484,2.484,0,0,1,1.484,2.056,1.951,1.951,0,0,1-2.167,2,2.559,2.559,0,0,1-1.409-.389Z" transform="translate(-27.963 -5.231)" fill="#fff"/>
        <path id="Path_119" data-name="Path 119" d="M383.528,69.623a.648.648,0,0,1-.653-.695.66.66,0,0,1,.668-.695.695.695,0,0,1,0,1.389Zm-.534,1.042h1.142v6.723h-1.142Z" transform="translate(-28.31 -5.045)" fill="#fff"/>
        <path id="Path_120" data-name="Path 120" d="M387.624,77.684c-1.291,0-2.33-1.1-2.33-3.459,0-2.459,1.172-3.487,2.4-3.487,1.29,0,2.314,1.111,2.314,3.459,0,2.611-1.276,3.487-2.374,3.487Zm.059-.847c.979,0,1.186-1.57,1.186-2.625s-.207-2.625-1.216-2.625c-1.024,0-1.218,1.584-1.218,2.625,0,1.111.208,2.625,1.232,2.625Z" transform="translate(-28.488 -5.231)" fill="#fff"/>
        <path id="Path_121" data-name="Path 121" d="M391.44,72.587c0-.792-.044-1.195-.058-1.736h.994l.058.806h.03a1.844,1.844,0,0,1,1.648-.917c.995,0,1.736.681,1.736,2.32v4.515H394.7V73.24c0-.806-.163-1.6-.995-1.6-.475,0-.934.375-1.068,1.1a2.271,2.271,0,0,0-.06.6v4.237H391.44Z" transform="translate(-28.939 -5.231)" fill="#fff"/>
      </g>
    </g>
  </g>
</svg>
